<?xml version="1.0" encoding="utf-8"?>
<!-- Generator: Adobe Illustrator 16.0.0, SVG Export Plug-In . SVG Version: 6.00 Build 0)  -->
<!DOCTYPE svg PUBLIC "-//W3C//DTD SVG 1.1//EN" "http://www.w3.org/Graphics/SVG/1.1/DTD/svg11.dtd">
<svg version="1.1" id="Layer_1" xmlns="http://www.w3.org/2000/svg" xmlns:xlink="http://www.w3.org/1999/xlink" x="0px" y="0px"
	 width="250px" height="250px" viewBox="0 0 250 250" enable-background="new 0 0 250 250" xml:space="preserve">
<g id="Clocks_1_">
	<path id="Clocks" d="M245.683,102.582c-2.587-3.104-6.228-4.882-9.99-4.882h-5.656v-4.567c0-8.204-7.127-14.884-15.884-14.884
		h-7.458v-8.431c0-3.968-1.692-7.839-4.637-10.625c-5.858-5.535-15.985-5.535-21.844,0c-2.949,2.789-4.642,6.66-4.642,10.629v39.552
		H74.424V69.822c0-3.969-1.689-7.84-4.638-10.625c-5.859-5.535-15.985-5.535-21.844,0c-2.949,2.785-4.642,6.656-4.642,10.625v8.431
		h-8.363c-3.934,0-7.652,1.419-10.477,3.999c-2.859,2.626-4.5,6.29-4.5,10.049V97.7h-5.602c-3.781,0-7.438,1.786-10.034,4.902
		c-2.458,2.956-3.816,6.842-3.816,10.939v22.781c0,4.097,1.358,7.982,3.82,10.939c2.596,3.116,6.251,4.901,10.03,4.901h5.602v5.4
		c0,3.758,1.641,7.422,4.509,10.056c2.816,2.576,6.535,3.995,10.469,3.995h8.363v8.43c0,3.97,1.693,7.84,4.638,10.622
		c2.93,2.765,6.809,4.291,10.924,4.291c4.116,0,7.994-1.526,10.924-4.291c2.948-2.786,4.638-6.656,4.638-10.622v-39.552h101.148
		v39.552c0,3.97,1.692,7.84,4.638,10.622c2.929,2.765,6.807,4.291,10.924,4.291c4.115,0,7.994-1.526,10.924-4.291
		c2.944-2.786,4.637-6.656,4.637-10.622v-8.43h7.458c8.757,0,15.884-6.675,15.884-14.885v-4.566h5.656
		c3.763,0,7.403-1.781,9.994-4.882c2.451-2.945,3.806-6.813,3.806-10.894v-22.91C249.488,109.398,248.138,105.527,245.683,102.582z
		 M14.358,144.384c-1.482,0-2.922-0.747-4.051-2.101c-1.284-1.537-2.019-3.712-2.019-5.96v-22.781c0-2.249,0.735-4.42,2.019-5.961
		c1.128-1.354,2.569-2.1,4.051-2.1h5.602v38.902H14.358L14.358,144.384z M34.938,163.836c-1.957,0-3.859-0.713-5.209-1.95
		c-1.284-1.178-1.988-2.712-1.988-4.321v-9.291v-46.683v-9.29c0-1.611,0.704-3.147,1.979-4.318c1.362-1.241,3.261-1.953,5.218-1.953
		h8.363v77.807H34.938L34.938,163.836z M66.643,180.045c0,1.864-0.782,3.627-2.197,4.965c-2.918,2.755-8.244,2.755-11.161,0
		c-1.421-1.338-2.203-3.104-2.203-4.965v-12.319V82.139v-12.32c0-1.864,0.782-3.626,2.199-4.964
		c1.458-1.377,3.494-2.167,5.583-2.167c2.089,0,4.124,0.79,5.583,2.167c1.415,1.338,2.197,3.104,2.197,4.968v43.442v23.343V180.045z
		 M74.424,132.713v-15.562h101.148v15.562H74.424z M198.914,180.045c0,1.864-0.782,3.627-2.198,4.965
		c-2.917,2.755-8.243,2.755-11.161,0c-1.42-1.338-2.202-3.104-2.202-4.965v-43.441v-23.343V69.822c0-1.863,0.782-3.627,2.198-4.965
		c1.459-1.377,3.493-2.166,5.583-2.166c2.089,0,4.123,0.789,5.582,2.166c1.416,1.335,2.198,3.102,2.198,4.965v12.32v85.586V180.045z
		 M222.256,156.73c0,3.919-3.635,7.105-8.104,7.105h-7.458V86.029h7.458c4.465,0,8.104,3.187,8.104,7.104v8.458v46.683V156.73z
		 M241.708,136.385c0,2.233-0.732,4.385-2,5.913c-1.121,1.347-2.549,2.086-4.016,2.086h-5.656v-38.902h5.656
		c1.467,0,2.895,0.738,4.016,2.084c1.271,1.525,2,3.681,2,5.913V136.385z"/>
</g>
</svg>
