<?xml version="1.0" encoding="utf-8"?>
<!-- Generator: Adobe Illustrator 16.0.0, SVG Export Plug-In . SVG Version: 6.00 Build 0)  -->
<!DOCTYPE svg PUBLIC "-//W3C//DTD SVG 1.1//EN" "http://www.w3.org/Graphics/SVG/1.1/DTD/svg11.dtd">
<svg version="1.1" id="Layer_1" xmlns="http://www.w3.org/2000/svg" xmlns:xlink="http://www.w3.org/1999/xlink" x="0px" y="0px"
	 width="250px" height="250px" viewBox="0 0 250 250" enable-background="new 0 0 250 250" xml:space="preserve">
<path d="M146.496,228.491c-2.167,2.571-6.007,2.907-8.583,0.741c-2.976-2.504-6.485-3.72-10.73-3.72h-12.316
	c-4.245,0-7.753,1.214-10.728,3.718c-1.142,0.962-2.535,1.431-3.919,1.431c-1.735,0-3.459-0.737-4.664-2.168
	c-2.166-2.576-1.835-6.416,0.738-8.584c5.188-4.366,11.437-6.579,18.572-6.579h12.316c7.132,0,13.382,2.213,18.571,6.579
	C148.329,222.074,148.66,225.915,146.496,228.491z M32.768,64.898c-3.364,0-6.09,2.727-6.09,6.092v1.576
	c0,3.364,2.726,6.092,6.09,6.092c3.365,0,6.091-2.728,6.091-6.092V70.99C38.859,67.625,36.133,64.898,32.768,64.898z M99.838,183.59
	c0-11.684,9.504-21.188,21.188-21.188c11.682,0,21.187,9.504,21.187,21.188c0,11.682-9.505,21.185-21.187,21.185
	C109.342,204.774,99.838,195.271,99.838,183.59z M112.021,183.59c0,4.964,4.04,9.004,9.004,9.004c4.964,0,9.002-4.04,9.002-9.004
	c0-4.966-4.038-9.007-9.002-9.007C116.061,174.583,112.021,178.624,112.021,183.59z M85.305,64.898
	c-3.365,0-6.091,2.727-6.091,6.092v1.576c0,3.364,2.727,6.092,6.091,6.092c3.364,0,6.091-2.728,6.091-6.092V70.99
	C91.396,67.625,88.669,64.898,85.305,64.898z M91.823,31.519h66.354c3.365,0,6.091-2.727,6.091-6.091s-2.726-6.091-6.091-6.091
	H91.823c-3.364,0-6.092,2.727-6.092,6.091S88.459,31.519,91.823,31.519z M76.584,219.909c-5.19-4.366-11.438-6.579-18.571-6.579
	H45.695c-7.134,0-13.382,2.213-18.57,6.579c-2.574,2.165-2.905,6.008-0.738,8.584c1.205,1.431,2.927,2.168,4.664,2.168
	c1.384,0,2.777-0.469,3.919-1.431c2.974-2.504,6.482-3.718,10.726-3.718h12.318c4.244,0,7.753,1.216,10.728,3.718
	c2.574,2.165,6.417,1.835,8.583-0.739S79.159,222.074,76.584,219.909z M51.854,162.402c11.683,0,21.188,9.504,21.188,21.188
	c0,11.682-9.504,21.185-21.188,21.185c-11.683,0-21.186-9.503-21.186-21.185C30.669,171.906,40.172,162.402,51.854,162.402z
	 M51.854,174.583c-4.965,0-9.002,4.041-9.002,9.007c0,4.964,4.038,9.002,9.002,9.002c4.964,0,9.005-4.038,9.005-9.002
	C60.859,178.624,56.819,174.583,51.854,174.583z M65.128,72.566V70.99c0-3.365-2.728-6.092-6.091-6.092
	c-3.364,0-6.092,2.727-6.092,6.092v1.576c0,3.364,2.728,6.092,6.092,6.092C62.401,78.658,65.128,75.931,65.128,72.566z
	 M190.377,78.658c3.363,0,6.092-2.728,6.092-6.092V70.99c0-3.365-2.729-6.092-6.092-6.092c-3.365,0-6.091,2.727-6.091,6.092v1.576
	C184.286,75.931,187.013,78.658,190.377,78.658z M111.573,78.658c3.365,0,6.091-2.728,6.091-6.092V70.99
	c0-3.365-2.727-6.092-6.091-6.092s-6.092,2.727-6.092,6.092v1.576C105.48,75.931,108.208,78.658,111.573,78.658z M210.551,201.103
	c0,3.366,2.728,6.092,6.091,6.092c3.366,0,6.092-2.726,6.092-6.092v-1.577c0-3.362-2.726-6.091-6.092-6.091
	c-3.363,0-6.091,2.729-6.091,6.091V201.103z M216.642,78.658c3.366,0,6.092-2.728,6.092-6.092V70.99
	c0-3.365-2.726-6.092-6.092-6.092c-3.363,0-6.091,2.727-6.091,6.092v1.576C210.551,75.931,213.278,78.658,216.642,78.658z
	 M184.286,201.103c0,3.366,2.726,6.092,6.091,6.092c3.363,0,6.092-2.726,6.092-6.092v-1.577c0-3.362-2.729-6.091-6.092-6.091
	c-3.365,0-6.091,2.729-6.091,6.091V201.103z M243.113,41.433H6.886c-3.364,0-6.091,2.727-6.091,6.091v177.048
	c0,3.363,2.727,6.092,6.091,6.092c3.365,0,6.091-2.729,6.091-6.092V53.615h224.045V218.48h-63.779c-3.366,0-6.093,2.726-6.093,6.091
	c0,3.363,2.727,6.092,6.093,6.092h69.87c3.365,0,6.092-2.729,6.092-6.092V47.523C249.205,44.159,246.479,41.433,243.113,41.433z
	 M170.198,201.103v-1.577c0-3.362-2.728-6.091-6.091-6.091c-3.364,0-6.092,2.729-6.092,6.091v1.577c0,3.366,2.728,6.092,6.092,6.092
	C167.471,207.194,170.198,204.469,170.198,201.103z M143.933,72.566V70.99c0-3.365-2.727-6.092-6.091-6.092
	s-6.092,2.727-6.092,6.092v1.576c0,3.364,2.728,6.092,6.092,6.092S143.933,75.931,143.933,72.566z M164.107,78.658
	c3.363,0,6.091-2.728,6.091-6.092V70.99c0-3.365-2.728-6.092-6.091-6.092c-3.364,0-6.092,2.727-6.092,6.092v1.576
	C158.016,75.931,160.743,78.658,164.107,78.658z"/>
</svg>
