<?xml version="1.0" encoding="utf-8"?>
<!-- Generator: Adobe Illustrator 16.0.0, SVG Export Plug-In . SVG Version: 6.00 Build 0)  -->
<!DOCTYPE svg PUBLIC "-//W3C//DTD SVG 1.1//EN" "http://www.w3.org/Graphics/SVG/1.1/DTD/svg11.dtd">
<svg version="1.1" id="fairhousingIcon" xmlns="http://www.w3.org/2000/svg" xmlns:xlink="http://www.w3.org/1999/xlink" x="0px"
	 y="0px" width="45px" height="45px" viewBox="0 0 45 45" enable-background="new 0 0 45 45" xml:space="preserve">
<g>
	<polygon fill="#FFFFFF" points="5.442,35.921 3.714,35.921 3.714,36.605 5.303,36.605 5.303,37.189 3.714,37.189 3.714,38.027 
		5.522,38.027 5.522,38.607 3.045,38.607 3.045,35.348 5.442,35.348 	"/>
	<path fill="#FFFFFF" d="M7.636,37.719l0.329,0.311c-0.123,0.064-0.256,0.089-0.368,0.089c-0.369,0-0.889-0.228-0.889-1.142
		c0-0.916,0.519-1.139,0.889-1.139c0.368,0,0.886,0.227,0.886,1.139c0,0.307-0.059,0.531-0.149,0.701l-0.347-0.32L7.636,37.719
		L7.636,37.719z M9.177,38.477L8.82,38.143c0.201-0.258,0.343-0.629,0.343-1.166c0-1.533-1.137-1.717-1.566-1.717
		c-0.433,0-1.57,0.188-1.57,1.717c0,1.532,1.138,1.719,1.57,1.719c0.188,0,0.525-0.038,0.834-0.221l0.389,0.367L9.177,38.477
		L9.177,38.477z"/>
	<path fill="#FFFFFF" d="M12.372,37.47c0,0.853-0.52,1.226-1.34,1.226c-0.302,0-0.747-0.073-1.039-0.396
		c-0.179-0.197-0.246-0.464-0.256-0.791v-2.163h0.694v2.113c0,0.46,0.265,0.657,0.582,0.657c0.469,0,0.658-0.225,0.658-0.623v-2.147
		h0.698L12.372,37.47L12.372,37.47z"/>
	<path fill="#FFFFFF" d="M14.196,36.082h0.011l0.402,1.293h-0.833L14.196,36.082L14.196,36.082z M13.596,37.936h1.206l0.21,0.677
		h0.74l-1.15-3.265h-0.786l-1.166,3.26h0.72L13.596,37.936L13.596,37.936z"/>
	<polygon fill="#FFFFFF" points="16.965,38.02 18.588,38.02 18.588,38.607 16.284,38.607 16.284,35.348 16.965,35.348 	"/>
	<polygon fill="#FFFFFF" points="21.173,37.145 21.173,38.607 20.493,38.607 20.493,35.348 21.173,35.348 21.173,36.58 
		22.446,36.58 22.446,35.348 23.125,35.348 23.125,38.607 22.446,38.607 22.446,37.145 	"/>
	<path fill="#FFFFFF" d="M24.425,36.977c0-0.912,0.521-1.139,0.887-1.139c0.369,0,0.889,0.227,0.889,1.139
		c0,0.916-0.52,1.14-0.889,1.14C24.944,38.115,24.425,37.893,24.425,36.977L24.425,36.977z M23.747,36.977
		c0,1.532,1.133,1.721,1.564,1.721c0.436,0,1.571-0.188,1.571-1.721c0-1.53-1.136-1.717-1.571-1.717
		C24.88,35.258,23.747,35.443,23.747,36.977L23.747,36.977z"/>
	<path fill="#FFFFFF" d="M30.137,37.47c0,0.853-0.52,1.226-1.34,1.226c-0.299,0-0.744-0.073-1.038-0.396
		c-0.177-0.197-0.244-0.464-0.252-0.791v-2.163h0.692v2.113c0,0.46,0.265,0.657,0.581,0.657c0.469,0,0.66-0.225,0.66-0.623v-2.147
		h0.695L30.137,37.47L30.137,37.47z"/>
	<path fill="#FFFFFF" d="M31.385,37.604c0.007,0.183,0.099,0.526,0.693,0.526c0.319,0,0.68-0.073,0.68-0.422
		c0-0.255-0.245-0.322-0.589-0.404l-0.35-0.083c-0.529-0.121-1.037-0.236-1.037-0.955c0-0.365,0.193-1.007,1.253-1.007
		c1.001,0,1.267,0.655,1.272,1.056h-0.654c-0.021-0.146-0.07-0.49-0.668-0.49c-0.26,0-0.569,0.095-0.569,0.393
		c0,0.253,0.208,0.309,0.347,0.338l0.795,0.197c0.445,0.105,0.855,0.292,0.855,0.878c0,0.981-1.001,1.066-1.287,1.066
		c-1.189,0-1.395-0.687-1.395-1.091L31.385,37.604L31.385,37.604z"/>
	<polygon fill="#FFFFFF" points="34.653,38.607 33.976,38.607 33.976,35.348 34.653,35.348 	"/>
	<polygon fill="#FFFFFF" points="37.376,35.348 38.015,35.348 38.015,38.607 37.331,38.607 36.002,36.28 35.987,36.28 
		35.987,38.607 35.356,38.607 35.356,35.348 36.069,35.348 37.365,37.62 37.376,37.62 	"/>
	<path fill="#FFFFFF" d="M40.294,36.85h1.363v1.758h-0.453l-0.068-0.408c-0.174,0.201-0.426,0.496-1.019,0.496
		c-0.787,0-1.501-0.563-1.501-1.711c0-0.89,0.496-1.729,1.595-1.727c0.999,0,1.397,0.649,1.429,1.102h-0.679
		c0-0.129-0.231-0.538-0.714-0.538c-0.486,0-0.938,0.337-0.938,1.174c0,0.889,0.485,1.121,0.948,1.121
		c0.153,0,0.653-0.058,0.793-0.716h-0.758L40.294,36.85L40.294,36.85L40.294,36.85z"/>
	<path fill="#FFFFFF" d="M3.583,41.938c0-0.918,0.519-1.144,0.885-1.144c0.369,0,0.887,0.226,0.887,1.144
		c0,0.912-0.519,1.138-0.887,1.138S3.583,42.848,3.583,41.938L3.583,41.938z M2.897,41.938c0,1.527,1.136,1.715,1.567,1.715
		c0.433,0,1.567-0.188,1.567-1.715c0-1.533-1.135-1.72-1.567-1.72C4.035,40.218,2.897,40.402,2.897,41.938L2.897,41.938z"/>
	<path fill="#FFFFFF" d="M7.903,41.826v-0.959h0.541c0.423,0,0.597,0.132,0.597,0.449c0,0.146,0,0.51-0.508,0.51H7.903L7.903,41.826
		z M7.903,42.387h0.78c0.878,0,1.039-0.742,1.039-1.039c0-0.639-0.38-1.045-1.012-1.045h-1.49v3.266h0.682L7.903,42.387
		L7.903,42.387z"/>
	<path fill="#FFFFFF" d="M11.577,41.826v-0.959h0.539c0.423,0,0.6,0.132,0.6,0.449c0,0.146,0,0.51-0.509,0.51H11.577L11.577,41.826z
		 M11.577,42.387h0.78c0.875,0,1.041-0.742,1.041-1.039c0-0.639-0.383-1.045-1.014-1.045h-1.493v3.266h0.684v-1.182H11.577z"/>
	<path fill="#FFFFFF" d="M15.102,41.938c0-0.918,0.518-1.144,0.888-1.144c0.365,0,0.883,0.226,0.883,1.144
		c0,0.912-0.518,1.138-0.883,1.138C15.619,43.074,15.102,42.848,15.102,41.938L15.102,41.938z M14.421,41.938
		c0,1.527,1.135,1.715,1.569,1.715c0.433,0,1.565-0.188,1.565-1.715c0-1.533-1.133-1.72-1.565-1.72
		C15.556,40.218,14.421,40.402,14.421,41.938L14.421,41.938z"/>
	<path fill="#FFFFFF" d="M19.411,41.739v-0.874h0.848c0.399,0,0.479,0.253,0.479,0.428c0,0.324-0.172,0.446-0.528,0.446H19.411
		L19.411,41.739z M18.742,43.566h0.669V42.29h0.704c0.506,0,0.532,0.172,0.532,0.618c0,0.335,0.024,0.503,0.069,0.658h0.759v-0.088
		c-0.148-0.051-0.148-0.17-0.148-0.647c0-0.606-0.143-0.707-0.413-0.825c0.321-0.109,0.505-0.42,0.505-0.777
		c0-0.281-0.157-0.924-1.025-0.924h-1.651V43.566L18.742,43.566z"/>
	<polygon fill="#FFFFFF" points="23.958,43.566 23.276,43.566 23.276,40.881 22.293,40.881 22.293,40.301 24.944,40.301 
		24.944,40.881 23.958,40.881 	"/>
	<path fill="#FFFFFF" d="M28.606,42.425c0,0.854-0.521,1.228-1.342,1.228c-0.299,0-0.744-0.072-1.037-0.396
		c-0.177-0.198-0.246-0.464-0.256-0.79v-2.165h0.696v2.12c0,0.453,0.265,0.653,0.581,0.653c0.47,0,0.656-0.224,0.656-0.622v-2.151
		h0.699v2.123H28.606z"/>
	<polygon fill="#FFFFFF" points="31.903,40.301 32.541,40.301 32.541,43.566 31.856,43.566 30.526,41.238 30.521,41.238 
		30.521,43.566 29.88,43.566 29.88,40.301 30.603,40.301 31.897,42.576 31.903,42.576 	"/>
	<polygon fill="#FFFFFF" points="34.464,43.566 33.782,43.566 33.782,40.301 34.464,40.301 	"/>
	<polygon fill="#FFFFFF" points="37.123,43.566 36.442,43.566 36.442,40.881 35.462,40.881 35.462,40.301 38.112,40.301 
		38.112,40.881 37.123,40.881 	"/>
	<polygon fill="#FFFFFF" points="40.687,43.566 40.008,43.566 40.008,42.334 38.884,40.301 39.685,40.301 40.36,41.723 
		41.009,40.301 41.778,40.301 40.687,42.342 	"/>
	<path fill="#FFFFFF" d="M22.336,1.348L0.363,12.169v5.084h2.459v15.251h38.862V17.253h2.952v-5.084L22.336,1.348L22.336,1.348z
		 M36.933,27.909H7.58V13.973l14.755-7.544l14.594,7.544V27.91L36.933,27.909L36.933,27.909z"/>
	<polygon fill="#FFFFFF" points="29.06,18.891 15.449,18.891 15.449,13.973 29.06,13.973 	"/>
	<polygon fill="#FFFFFF" points="29.06,25.946 15.449,25.946 15.449,21.023 29.06,21.023 	"/>
</g>
</svg>
