<?xml version="1.0" encoding="utf-8"?>
<!-- Generator: Adobe Illustrator 16.0.0, SVG Export Plug-In . SVG Version: 6.00 Build 0)  -->
<!DOCTYPE svg PUBLIC "-//W3C//DTD SVG 1.1//EN" "http://www.w3.org/Graphics/SVG/1.1/DTD/svg11.dtd">
<svg version="1.1" id="fairhousingIcon" xmlns="http://www.w3.org/2000/svg" xmlns:xlink="http://www.w3.org/1999/xlink" x="0px"
	 y="0px" width="45px" height="45px" viewBox="7.5 7.5 45 45" enable-background="new 7.5 7.5 45 45" xml:space="preserve">
<g>
	<polygon fill="#707070" points="12.942,43.421 11.213,43.421 11.213,44.105 12.802,44.105 12.802,44.689 11.213,44.689 
		11.213,45.528 13.022,45.528 13.022,46.107 10.544,46.107 10.544,42.847 12.942,42.847 	"/>
	<path fill="#707070" d="M15.135,45.219l0.329,0.31c-0.123,0.065-0.256,0.089-0.368,0.089c-0.369,0-0.889-0.227-0.889-1.141
		c0-0.916,0.519-1.139,0.889-1.139c0.368,0,0.886,0.227,0.886,1.139c0,0.306-0.059,0.531-0.15,0.701l-0.346-0.32L15.135,45.219
		L15.135,45.219z M16.676,45.977l-0.356-0.335c0.201-0.257,0.342-0.628,0.342-1.165c0-1.533-1.136-1.717-1.566-1.717
		c-0.433,0-1.57,0.188-1.57,1.717c0,1.532,1.137,1.718,1.57,1.718c0.188,0,0.525-0.038,0.834-0.22l0.389,0.367L16.676,45.977
		L16.676,45.977z"/>
	<path fill="#707070" d="M19.871,44.97c0,0.852-0.519,1.225-1.34,1.225c-0.301,0-0.747-0.073-1.039-0.396
		c-0.178-0.197-0.246-0.464-0.255-0.791v-2.163h0.694v2.113c0,0.46,0.265,0.657,0.582,0.657c0.469,0,0.658-0.225,0.658-0.623v-2.147
		h0.698L19.871,44.97L19.871,44.97z"/>
	<path fill="#707070" d="M21.696,43.582h0.01l0.403,1.293h-0.833L21.696,43.582L21.696,43.582z M21.095,45.436h1.206l0.21,0.676
		h0.74l-1.15-3.265h-0.786l-1.166,3.261h0.719L21.095,45.436L21.095,45.436z"/>
	<polygon fill="#707070" points="24.464,45.519 26.087,45.519 26.087,46.107 23.783,46.107 23.783,42.847 24.464,42.847 	"/>
	<polygon fill="#707070" points="28.672,44.645 28.672,46.107 27.992,46.107 27.992,42.847 28.672,42.847 28.672,44.08 
		29.945,44.08 29.945,42.847 30.624,42.847 30.624,46.107 29.945,46.107 29.945,44.645 	"/>
	<path fill="#707070" d="M31.924,44.477c0-0.912,0.521-1.139,0.886-1.139c0.37,0,0.889,0.227,0.889,1.139
		c0,0.916-0.519,1.139-0.889,1.139C32.444,45.615,31.924,45.393,31.924,44.477L31.924,44.477z M31.246,44.477
		c0,1.532,1.133,1.72,1.564,1.72c0.436,0,1.572-0.188,1.572-1.72c0-1.531-1.136-1.717-1.572-1.717
		C32.379,42.758,31.246,42.943,31.246,44.477L31.246,44.477z"/>
	<path fill="#707070" d="M37.636,44.97c0,0.852-0.52,1.225-1.34,1.225c-0.299,0-0.744-0.073-1.038-0.396
		c-0.177-0.197-0.245-0.464-0.252-0.791v-2.163h0.692v2.113c0,0.46,0.265,0.657,0.582,0.657c0.468,0,0.66-0.225,0.66-0.623v-2.147
		h0.695V44.97L37.636,44.97z"/>
	<path fill="#707070" d="M38.884,45.104c0.007,0.182,0.098,0.526,0.693,0.526c0.32,0,0.68-0.074,0.68-0.422
		c0-0.255-0.245-0.322-0.589-0.404l-0.35-0.083c-0.529-0.121-1.037-0.237-1.037-0.956c0-0.364,0.193-1.006,1.253-1.006
		c1.001,0,1.267,0.655,1.272,1.056h-0.654c-0.02-0.146-0.07-0.491-0.667-0.491c-0.26,0-0.57,0.095-0.57,0.393
		c0,0.253,0.208,0.308,0.347,0.338l0.794,0.197c0.446,0.106,0.856,0.292,0.856,0.878c0,0.981-1.001,1.066-1.287,1.066
		c-1.19,0-1.394-0.686-1.394-1.09L38.884,45.104L38.884,45.104z"/>
	<polygon fill="#707070" points="42.153,46.107 41.474,46.107 41.474,42.847 42.153,42.847 	"/>
	<polygon fill="#707070" points="44.875,42.847 45.514,42.847 45.514,46.107 44.83,46.107 43.501,43.78 43.486,43.78 43.486,46.107 
		42.855,46.107 42.855,42.847 43.569,42.847 44.864,45.12 44.875,45.12 	"/>
	<path fill="#707070" d="M47.793,44.349h1.363v1.759h-0.453l-0.068-0.409c-0.174,0.201-0.426,0.496-1.019,0.496
		c-0.787,0-1.501-0.563-1.501-1.71c0-0.89,0.496-1.73,1.595-1.727c0.999,0,1.397,0.649,1.429,1.101H48.46
		c0-0.128-0.231-0.538-0.714-0.538c-0.486,0-0.938,0.337-0.938,1.174c0,0.889,0.486,1.121,0.949,1.121
		c0.153,0,0.653-0.057,0.793-0.716h-0.758L47.793,44.349L47.793,44.349L47.793,44.349z"/>
	<path fill="#707070" d="M11.082,49.437c0-0.917,0.519-1.143,0.885-1.143c0.369,0,0.887,0.226,0.887,1.143
		c0,0.912-0.519,1.138-0.887,1.138S11.082,50.347,11.082,49.437L11.082,49.437z M10.397,49.437c0,1.528,1.135,1.716,1.567,1.716
		c0.433,0,1.567-0.188,1.567-1.716c0-1.533-1.134-1.719-1.567-1.719C11.534,47.718,10.397,47.903,10.397,49.437L10.397,49.437z"/>
	<path fill="#707070" d="M15.403,49.326v-0.959h0.541c0.422,0,0.596,0.132,0.596,0.45c0,0.146,0,0.509-0.508,0.509H15.403
		L15.403,49.326z M15.403,49.887h0.78c0.878,0,1.039-0.742,1.039-1.04c0-0.638-0.38-1.044-1.012-1.044h-1.49v3.265h0.682
		L15.403,49.887L15.403,49.887z"/>
	<path fill="#707070" d="M19.076,49.326v-0.959h0.539c0.423,0,0.6,0.132,0.6,0.45c0,0.146,0,0.509-0.509,0.509H19.076L19.076,49.326
		z M19.076,49.887h0.781c0.875,0,1.041-0.742,1.041-1.04c0-0.638-0.383-1.044-1.014-1.044h-1.493v3.265h0.683v-1.181H19.076z"/>
	<path fill="#707070" d="M22.601,49.437c0-0.917,0.517-1.143,0.887-1.143c0.365,0,0.883,0.226,0.883,1.143
		c0,0.912-0.517,1.138-0.883,1.138C23.118,50.574,22.601,50.347,22.601,49.437L22.601,49.437z M21.92,49.437
		c0,1.528,1.134,1.716,1.569,1.716c0.433,0,1.566-0.188,1.566-1.716c0-1.533-1.133-1.719-1.566-1.719
		C23.054,47.718,21.92,47.903,21.92,49.437L21.92,49.437z"/>
	<path fill="#707070" d="M26.91,49.239v-0.874h0.848c0.399,0,0.479,0.253,0.479,0.428c0,0.324-0.172,0.446-0.529,0.446H26.91
		L26.91,49.239z M26.241,51.067h0.669V49.79h0.704c0.506,0,0.533,0.172,0.533,0.618c0,0.335,0.024,0.503,0.069,0.659h0.758v-0.089
		c-0.148-0.05-0.148-0.17-0.148-0.647c0-0.606-0.143-0.707-0.413-0.825c0.322-0.11,0.505-0.42,0.505-0.777
		c0-0.282-0.157-0.924-1.026-0.924h-1.651V51.067L26.241,51.067z"/>
	<polygon fill="#707070" points="31.457,51.067 30.776,51.067 30.776,48.381 29.792,48.381 29.792,47.801 32.444,47.801 
		32.444,48.381 31.457,48.381 	"/>
	<path fill="#707070" d="M36.105,49.925c0,0.854-0.52,1.228-1.342,1.228c-0.298,0-0.744-0.073-1.036-0.396
		c-0.177-0.198-0.247-0.464-0.257-0.79v-2.165h0.697v2.12c0,0.453,0.264,0.653,0.581,0.653c0.47,0,0.657-0.224,0.657-0.622v-2.151
		h0.699V49.925L36.105,49.925z"/>
	<polygon fill="#707070" points="39.402,47.801 40.04,47.801 40.04,51.067 39.356,51.067 38.025,48.738 38.019,48.738 
		38.019,51.067 37.379,51.067 37.379,47.801 38.101,47.801 39.396,50.076 39.402,50.076 	"/>
	<polygon fill="#707070" points="41.963,51.067 41.281,51.067 41.281,47.801 41.963,47.801 	"/>
	<polygon fill="#707070" points="44.622,51.067 43.942,51.067 43.942,48.381 42.961,48.381 42.961,47.801 45.611,47.801 
		45.611,48.381 44.622,48.381 	"/>
	<polygon fill="#707070" points="48.186,51.067 47.507,51.067 47.507,49.834 46.383,47.801 47.184,47.801 47.859,49.222 
		48.508,47.801 49.278,47.801 48.186,49.842 	"/>
	<path fill="#707070" d="M29.835,8.848L7.863,19.669v5.084h2.459v15.251h38.862V24.753h2.952v-5.084L29.835,8.848L29.835,8.848z
		 M44.431,35.409H15.079V21.473l14.755-7.544l14.594,7.544v13.937H44.431L44.431,35.409z"/>
	<polygon fill="#707070" points="36.558,26.391 22.948,26.391 22.948,21.473 36.558,21.473 	"/>
	<polygon fill="#707070" points="36.558,33.446 22.948,33.446 22.948,28.524 36.558,28.524 	"/>
</g>
</svg>
