<?xml version="1.0" encoding="utf-8"?>
<!-- Generator: Adobe Illustrator 16.0.0, SVG Export Plug-In . SVG Version: 6.00 Build 0)  -->
<!DOCTYPE svg PUBLIC "-//W3C//DTD SVG 1.1//EN" "http://www.w3.org/Graphics/SVG/1.1/DTD/svg11.dtd">
<svg version="1.1" id="inhouseLoader" xmlns="http://www.w3.org/2000/svg" xmlns:xlink="http://www.w3.org/1999/xlink" x="0px"
	 y="0px" width="360.5px" height="250px" viewBox="0 0 360.5 250" enable-background="new 0 0 360.5 250" xml:space="preserve">
<g opacity="0.2">
	<polygon fill="#FFFFFF" points="180.238,0 261.043,46.658 261.043,136.805 229.928,118.846 229.928,70.511 240.053,70.511 
		180.238,36.005 120.455,70.511 130.545,70.511 130.545,118.846 99.428,136.805 99.428,46.658 	"/>
	<polygon fill="#FFFFFF" points="261.072,149.602 180.251,104.089 99.428,149.602 	"/>
</g>
<rect x="99.428" y="176.5" opacity="0.2" fill="#FFFFFF" width="163.659" height="5"/>
<g opacity="0.2">
	<path fill="#FFFFFF" d="M58.824,221.195h-3.447l-1.934-7.5c-0.072-0.269-0.194-0.818-0.366-1.655
		c-0.172-0.837-0.272-1.397-0.298-1.685c-0.039,0.352-0.137,0.916-0.293,1.693c-0.156,0.778-0.277,1.333-0.361,1.665l-1.924,7.479
		h-3.438l-3.643-14.276h2.98l1.826,7.793c0.319,1.438,0.55,2.687,0.693,3.74c0.039-0.371,0.128-0.945,0.269-1.724
		c0.141-0.779,0.272-1.383,0.396-1.813l2.08-7.998h2.861l2.08,7.998c0.091,0.357,0.205,0.904,0.342,1.641
		c0.137,0.737,0.241,1.367,0.313,1.896c0.065-0.509,0.169-1.142,0.313-1.899s0.273-1.371,0.391-1.841l1.816-7.793h2.979
		L58.824,221.195z"/>
	<path fill="#FFFFFF" d="M68.961,221.391c-1.758,0-3.131-0.483-4.121-1.455c-0.99-0.971-1.484-2.344-1.484-4.121
		c0-1.83,0.458-3.244,1.372-4.242c0.914-0.999,2.179-1.499,3.794-1.499c1.543,0,2.744,0.438,3.604,1.317s1.289,2.094,1.289,3.644
		v1.444h-7.041c0.033,0.847,0.283,1.508,0.752,1.982c0.469,0.475,1.126,0.713,1.973,0.713c0.658,0,1.279-0.068,1.865-0.205
		s1.198-0.354,1.836-0.654v2.306c-0.521,0.26-1.078,0.454-1.67,0.581C70.538,221.328,69.814,221.391,68.961,221.391z
		 M68.541,212.191c-0.631,0-1.126,0.199-1.484,0.601s-0.563,0.968-0.615,1.704h4.18c-0.013-0.736-0.205-1.305-0.576-1.704
		S69.172,212.191,68.541,212.191z"/>
	<path fill="#FFFFFF" d="M90.006,221.195l-0.84-3.818l-1.133-4.824h-0.068l-1.992,8.643H82.77l-3.105-10.918h2.969l1.26,4.834
		c0.202,0.865,0.407,2.062,0.615,3.584h0.059c0.026-0.493,0.14-1.278,0.342-2.354l0.156-0.83l1.348-5.234h3.281l1.279,5.234
		c0.026,0.143,0.067,0.355,0.122,0.635c0.055,0.28,0.109,0.578,0.161,0.895c0.052,0.316,0.099,0.625,0.142,0.928
		s0.067,0.547,0.073,0.729h0.059c0.059-0.469,0.163-1.111,0.313-1.93c0.15-0.817,0.257-1.367,0.322-1.654l1.309-4.834h2.92
		l-3.145,10.918h-3.244V221.195z"/>
	<path fill="#FFFFFF" d="M98.023,207.455c0-0.971,0.541-1.455,1.621-1.455s1.621,0.484,1.621,1.455c0,0.463-0.135,0.822-0.405,1.079
		s-0.675,0.386-1.216,0.386C98.564,208.92,98.023,208.432,98.023,207.455z M101.129,221.195H98.15v-10.918h2.979V221.195z"/>
	<path fill="#FFFFFF" d="M107.232,221.195h-2.979V206h2.979V221.195z"/>
	<path fill="#FFFFFF" d="M113.336,221.195h-2.979V206h2.979V221.195z"/>
	<path fill="#FFFFFF" d="M127.73,210.072c1.289,0,2.299,0.503,3.027,1.509s1.094,2.384,1.094,4.136c0,1.803-0.376,3.199-1.128,4.189
		s-1.776,1.484-3.071,1.484c-1.283,0-2.289-0.466-3.018-1.396h-0.205l-0.498,1.201h-2.275V206h2.979v3.535
		c0,0.449-0.039,1.168-0.117,2.158h0.117C125.332,210.613,126.363,210.072,127.73,210.072z M126.773,212.455
		c-0.736,0-1.273,0.227-1.611,0.679s-0.514,1.2-0.527,2.241v0.322c0,1.172,0.174,2.012,0.522,2.52
		c0.349,0.508,0.899,0.762,1.655,0.762c0.611,0,1.099-0.28,1.46-0.845c0.361-0.563,0.542-1.382,0.542-2.456s-0.182-1.88-0.547-2.416
		C127.902,212.725,127.404,212.455,126.773,212.455z"/>
	<path fill="#FFFFFF" d="M139.254,221.391c-1.758,0-3.131-0.483-4.121-1.455c-0.99-0.971-1.484-2.344-1.484-4.121
		c0-1.83,0.457-3.244,1.372-4.242c0.915-0.999,2.179-1.499,3.794-1.499c1.543,0,2.744,0.438,3.604,1.317s1.289,2.094,1.289,3.644
		v1.444h-7.041c0.033,0.847,0.283,1.508,0.752,1.982c0.469,0.475,1.127,0.713,1.973,0.713c0.658,0,1.279-0.068,1.865-0.205
		s1.197-0.354,1.836-0.654v2.306c-0.521,0.26-1.078,0.454-1.67,0.581C140.831,221.328,140.107,221.391,139.254,221.391z
		 M138.834,212.191c-0.631,0-1.127,0.199-1.484,0.601s-0.563,0.968-0.615,1.704h4.18c-0.014-0.736-0.205-1.305-0.576-1.704
		S139.465,212.191,138.834,212.191z"/>
	<path fill="#FFFFFF" d="M160.299,221.195l-0.84-3.818l-1.133-4.824h-0.068l-1.992,8.643h-3.203l-3.105-10.918h2.969l1.26,4.834
		c0.201,0.865,0.406,2.062,0.615,3.584h0.059c0.025-0.493,0.141-1.278,0.342-2.354l0.156-0.83l1.348-5.234h3.281l1.279,5.234
		c0.025,0.143,0.066,0.355,0.122,0.635c0.056,0.28,0.108,0.578,0.161,0.895c0.053,0.316,0.1,0.625,0.142,0.928
		s0.067,0.547,0.073,0.729h0.059c0.059-0.469,0.162-1.111,0.313-1.93c0.151-0.817,0.258-1.367,0.322-1.654l1.309-4.834h2.92
		l-3.145,10.918h-3.244V221.195z"/>
	<path fill="#FFFFFF" d="M168.316,207.455c0-0.971,0.541-1.455,1.621-1.455s1.621,0.484,1.621,1.455
		c0,0.463-0.135,0.822-0.405,1.079s-0.675,0.386-1.216,0.386C168.857,208.92,168.316,208.432,168.316,207.455z M171.422,221.195
		h-2.979v-10.918h2.979V221.195z"/>
	<path fill="#FFFFFF" d="M179.146,219.018c0.521,0,1.146-0.113,1.875-0.342v2.217c-0.743,0.332-1.654,0.498-2.734,0.498
		c-1.191,0-2.059-0.301-2.603-0.902s-0.815-1.506-0.815-2.711v-5.264h-1.426v-1.26l1.641-0.996l0.859-2.305h1.904v2.324h3.057v2.236
		h-3.057v5.264c0,0.424,0.119,0.736,0.356,0.938C178.44,218.917,178.756,219.018,179.146,219.018z"/>
	<path fill="#FFFFFF" d="M193.307,221.195h-2.979v-6.377c0-1.576-0.586-2.363-1.758-2.363c-0.834,0-1.437,0.283-1.807,0.85
		c-0.371,0.567-0.558,1.484-0.558,2.754v5.137h-2.979V206h2.979v3.096c0,0.24-0.022,0.807-0.067,1.699l-0.068,0.879h0.156
		c0.664-1.068,1.719-1.602,3.164-1.602c1.282,0,2.256,0.346,2.92,1.035c0.664,0.688,0.996,1.68,0.996,2.969V221.195L193.307,221.195
		z"/>
	<path fill="#FFFFFF" d="M200.006,210.277h3.262l2.062,6.143c0.176,0.533,0.297,1.166,0.36,1.895h0.06
		c0.071-0.67,0.211-1.303,0.42-1.895l2.021-6.143h3.193l-4.619,12.313c-0.424,1.14-1.027,1.992-1.812,2.56
		c-0.785,0.566-1.7,0.85-2.749,0.85c-0.514,0-1.02-0.055-1.514-0.166v-2.363c0.356,0.084,0.748,0.127,1.172,0.127
		c0.527,0,0.988-0.16,1.382-0.482s0.702-0.811,0.923-1.461l0.176-0.536L200.006,210.277z"/>
	<path fill="#FFFFFF" d="M222.867,215.717c0,1.777-0.469,3.168-1.406,4.17s-2.242,1.504-3.916,1.504
		c-1.049,0-1.973-0.229-2.773-0.688c-0.799-0.459-1.416-1.118-1.846-1.979c-0.43-0.859-0.645-1.861-0.645-3.008
		c0-1.783,0.465-3.17,1.396-4.16s2.24-1.483,3.927-1.483c1.049,0,1.973,0.229,2.772,0.684s1.416,1.109,1.847,1.964
		C222.652,213.574,222.867,214.57,222.867,215.717z M215.318,215.717c0,1.08,0.178,1.898,0.531,2.451
		c0.354,0.553,0.934,0.83,1.733,0.83c0.795,0,1.365-0.275,1.714-0.825c0.35-0.55,0.521-1.368,0.521-2.456
		c0-1.08-0.176-1.891-0.526-2.432s-0.928-0.811-1.729-0.811c-0.795,0-1.367,0.269-1.719,0.805
		C215.492,213.816,215.318,214.629,215.318,215.717z"/>
	<path fill="#FFFFFF" d="M233.063,221.195l-0.399-1.396h-0.156c-0.317,0.508-0.771,0.9-1.356,1.178
		c-0.586,0.276-1.254,0.414-2.002,0.414c-1.283,0-2.25-0.344-2.9-1.029c-0.65-0.687-0.977-1.676-0.977-2.965v-7.119h2.979v6.377
		c0,0.787,0.141,1.38,0.42,1.772c0.279,0.394,0.727,0.591,1.338,0.591c0.834,0,1.436-0.277,1.807-0.834
		c0.371-0.558,0.558-1.479,0.558-2.77v-5.137h2.979v10.918H233.063z"/>
	<path fill="#FFFFFF" d="M251.285,217.953c0,1.119-0.389,1.973-1.167,2.559s-1.942,0.879-3.491,0.879
		c-0.795,0-1.471-0.054-2.031-0.16c-0.56-0.107-1.084-0.266-1.572-0.475v-2.461c0.554,0.26,1.178,0.479,1.871,0.654
		c0.692,0.175,1.303,0.264,1.83,0.264c1.08,0,1.621-0.313,1.621-0.938c0-0.234-0.072-0.426-0.215-0.571s-0.391-0.313-0.742-0.498
		c-0.351-0.185-0.82-0.401-1.406-0.649c-0.84-0.352-1.457-0.678-1.851-0.977s-0.681-0.643-0.858-1.03
		c-0.178-0.387-0.27-0.864-0.27-1.431c0-0.971,0.376-1.721,1.128-2.251s1.817-0.796,3.198-0.796c1.314,0,2.594,0.287,3.838,0.859
		l-0.898,2.147c-0.547-0.233-1.059-0.427-1.533-0.576c-0.473-0.149-0.961-0.226-1.454-0.226c-0.88,0-1.318,0.238-1.318,0.714
		c0,0.268,0.142,0.497,0.425,0.692s0.903,0.484,1.86,0.869c0.854,0.346,1.479,0.668,1.875,0.967s0.688,0.646,0.879,1.035
		C251.193,216.945,251.285,217.412,251.285,217.953z"/>
	<path fill="#FFFFFF" d="M263.688,221.195h-2.979v-6.377c0-1.576-0.586-2.363-1.758-2.363c-0.834,0-1.436,0.283-1.807,0.85
		c-0.371,0.567-0.558,1.484-0.558,2.754v5.137h-2.979V206h2.979v3.096c0,0.24-0.022,0.807-0.067,1.699l-0.068,0.879h0.156
		c0.664-1.068,1.719-1.602,3.164-1.602c1.283,0,2.256,0.346,2.92,1.035c0.664,0.688,0.996,1.68,0.996,2.969V221.195L263.688,221.195
		z"/>
	<path fill="#FFFFFF" d="M276.676,215.717c0,1.777-0.469,3.168-1.406,4.17c-0.937,1.002-2.242,1.504-3.916,1.504
		c-1.047,0-1.973-0.229-2.772-0.688s-1.416-1.118-1.847-1.979c-0.43-0.859-0.645-1.861-0.645-3.008c0-1.783,0.465-3.17,1.396-4.16
		c0.931-0.99,2.238-1.483,3.926-1.483c1.048,0,1.973,0.229,2.773,0.684c0.799,0.455,1.416,1.109,1.846,1.964
		C276.461,213.574,276.676,214.57,276.676,215.717z M269.127,215.717c0,1.08,0.178,1.898,0.532,2.451s0.933,0.83,1.733,0.83
		c0.793,0,1.364-0.275,1.713-0.825c0.35-0.55,0.522-1.368,0.522-2.456c0-1.08-0.176-1.891-0.526-2.432
		c-0.352-0.541-0.929-0.811-1.729-0.811c-0.794,0-1.367,0.269-1.72,0.805C269.301,213.816,269.127,214.629,269.127,215.717z"/>
	<path fill="#FFFFFF" d="M285.23,210.072c0.402,0,0.738,0.029,1.006,0.088l-0.225,2.793c-0.242-0.064-0.535-0.098-0.88-0.098
		c-0.95,0-1.69,0.244-2.222,0.731c-0.531,0.488-0.796,1.172-0.796,2.052v5.557h-2.979v-10.918h2.256l0.439,1.836h0.146
		c0.338-0.611,0.795-1.105,1.371-1.479S284.555,210.072,285.23,210.072z"/>
	<path fill="#FFFFFF" d="M292.818,219.018c0.521,0,1.146-0.113,1.875-0.342v2.217c-0.742,0.332-1.653,0.498-2.734,0.498
		c-1.191,0-2.059-0.301-2.604-0.902c-0.543-0.602-0.814-1.506-0.814-2.711v-5.264h-1.426v-1.26l1.641-0.996l0.859-2.305h1.904v2.324
		h3.057v2.236h-3.057v5.264c0,0.424,0.119,0.736,0.355,0.938C292.111,218.917,292.428,219.018,292.818,219.018z"/>
	<path fill="#FFFFFF" d="M299.879,221.195H296.9V206h2.979V221.195z"/>
	<path fill="#FFFFFF" d="M301.441,210.277h3.262l2.061,6.143c0.176,0.533,0.297,1.166,0.361,1.895h0.059
		c0.071-0.67,0.213-1.303,0.42-1.895l2.021-6.143h3.193l-4.619,12.313c-0.424,1.14-1.027,1.992-1.813,2.56
		c-0.785,0.566-1.701,0.85-2.748,0.85c-0.516,0-1.02-0.055-1.515-0.166v-2.363c0.358,0.084,0.749,0.127,1.172,0.127
		c0.527,0,0.988-0.16,1.382-0.482c0.395-0.322,0.701-0.811,0.924-1.461l0.176-0.536L301.441,210.277z"/>
	<path fill="#FFFFFF" d="M313.961,219.799c0-0.547,0.146-0.961,0.439-1.24s0.72-0.42,1.279-0.42c0.539,0,0.959,0.144,1.254,0.43
		c0.297,0.287,0.444,0.697,0.444,1.23c0,0.514-0.149,0.92-0.448,1.217c-0.301,0.295-0.717,0.443-1.25,0.443
		c-0.548,0-0.971-0.145-1.271-0.436C314.109,220.734,313.961,220.326,313.961,219.799z"/>
	<path fill="#FFFFFF" d="M30.24,245.195h-3.447l-1.934-7.5c-0.072-0.269-0.194-0.818-0.366-1.655
		c-0.172-0.837-0.272-1.397-0.298-1.685c-0.039,0.352-0.137,0.916-0.293,1.693c-0.156,0.778-0.277,1.333-0.361,1.665l-1.924,7.479
		H18.18l-3.643-14.276h2.979l1.826,7.793c0.319,1.438,0.55,2.687,0.693,3.74c0.039-0.371,0.128-0.945,0.269-1.724
		c0.141-0.779,0.272-1.383,0.396-1.813l2.08-7.998h2.861l2.08,7.998c0.091,0.357,0.205,0.904,0.342,1.641
		c0.137,0.737,0.241,1.367,0.313,1.896c0.065-0.509,0.169-1.142,0.313-1.899s0.273-1.371,0.391-1.841l1.816-7.793h2.979
		L30.24,245.195z"/>
	<path fill="#FFFFFF" d="M40.377,245.391c-1.758,0-3.131-0.483-4.121-1.455c-0.99-0.971-1.484-2.344-1.484-4.121
		c0-1.83,0.458-3.244,1.372-4.242c0.914-0.999,2.179-1.499,3.794-1.499c1.543,0,2.744,0.438,3.604,1.317s1.289,2.094,1.289,3.644
		v1.444H37.79c0.033,0.847,0.283,1.508,0.752,1.982c0.469,0.475,1.126,0.713,1.973,0.713c0.658,0,1.279-0.068,1.865-0.205
		s1.198-0.354,1.836-0.654v2.306c-0.521,0.26-1.078,0.454-1.67,0.581C41.954,245.328,41.23,245.391,40.377,245.391z M39.957,236.191
		c-0.631,0-1.126,0.199-1.484,0.601s-0.563,0.968-0.615,1.704h4.18c-0.013-0.736-0.205-1.305-0.576-1.704
		S40.588,236.191,39.957,236.191z"/>
	<path fill="#FFFFFF" d="M49.654,230.918l0.137,0.215c-0.326,1.283-0.898,2.842-1.719,4.678h-2.139
		c0.449-1.928,0.775-3.559,0.977-4.893H49.654L49.654,230.918z"/>
	<path fill="#FFFFFF" d="M57.682,234.072c0.404,0,0.739,0.029,1.006,0.088l-0.225,2.793c-0.241-0.064-0.534-0.098-0.879-0.098
		c-0.951,0-1.691,0.244-2.222,0.731c-0.531,0.488-0.796,1.172-0.796,2.052v5.557h-2.979v-10.918h2.256l0.439,1.836h0.146
		c0.338-0.611,0.796-1.105,1.372-1.479C56.376,234.26,57.004,234.072,57.682,234.072z"/>
	<path fill="#FFFFFF" d="M65.611,245.391c-1.758,0-3.131-0.483-4.121-1.455c-0.99-0.971-1.484-2.344-1.484-4.121
		c0-1.83,0.458-3.244,1.372-4.242c0.914-0.999,2.179-1.499,3.794-1.499c1.543,0,2.744,0.438,3.604,1.317s1.289,2.094,1.289,3.644
		v1.444h-7.041c0.033,0.847,0.283,1.508,0.752,1.982c0.469,0.475,1.126,0.713,1.973,0.713c0.658,0,1.279-0.068,1.865-0.205
		c0.586-0.137,1.198-0.354,1.836-0.654v2.306c-0.521,0.26-1.078,0.454-1.67,0.581C67.188,245.328,66.464,245.391,65.611,245.391z
		 M65.191,236.191c-0.631,0-1.126,0.199-1.484,0.601s-0.563,0.968-0.615,1.704h4.18c-0.013-0.736-0.205-1.305-0.576-1.704
		C66.325,236.393,65.823,236.191,65.191,236.191z"/>
	<path fill="#FFFFFF" d="M87.184,234.277v1.514l-1.709,0.439c0.313,0.487,0.469,1.035,0.469,1.641c0,1.172-0.409,2.085-1.226,2.738
		c-0.817,0.654-1.952,0.981-3.403,0.981l-0.537-0.028l-0.439-0.049c-0.306,0.233-0.459,0.493-0.459,0.78
		c0,0.431,0.547,0.646,1.641,0.646h1.855c1.198,0,2.111,0.258,2.739,0.771c0.628,0.513,0.942,1.271,0.942,2.267
		c0,1.274-0.532,2.266-1.597,2.969S82.867,250,80.875,250c-1.523,0-2.687-0.266-3.491-0.796c-0.804-0.53-1.206-1.274-1.206-2.231
		c0-0.658,0.205-1.207,0.615-1.649c0.41-0.443,1.012-0.759,1.807-0.947c-0.306-0.131-0.573-0.344-0.801-0.64
		c-0.228-0.297-0.342-0.61-0.342-0.942c0-0.416,0.121-0.765,0.361-1.04c0.24-0.275,0.589-0.548,1.045-0.814
		c-0.573-0.248-1.027-0.646-1.362-1.191s-0.503-1.191-0.503-1.934c0-1.191,0.387-2.113,1.162-2.765
		c0.775-0.651,1.881-0.978,3.32-0.978c0.306,0,0.669,0.027,1.089,0.084c0.42,0.056,0.688,0.097,0.806,0.121H87.184L87.184,234.277z
		 M78.756,246.738c0,0.41,0.197,0.732,0.591,0.967s0.946,0.352,1.655,0.352c1.068,0,1.904-0.146,2.51-0.438s0.908-0.693,0.908-1.201
		c0-0.41-0.179-0.692-0.537-0.851c-0.358-0.156-0.912-0.233-1.66-0.233H80.68c-0.547,0-1.004,0.129-1.372,0.386
		C78.94,245.977,78.756,246.314,78.756,246.738z M79.84,237.852c0,0.592,0.135,1.062,0.405,1.406
		c0.27,0.346,0.682,0.518,1.235,0.518c0.56,0,0.97-0.172,1.23-0.518c0.26-0.346,0.391-0.814,0.391-1.406
		c0-1.313-0.541-1.973-1.621-1.973C80.387,235.879,79.84,236.537,79.84,237.852z"/>
	<path fill="#FFFFFF" d="M95.914,245.195l-0.576-1.484H95.26c-0.501,0.631-1.017,1.068-1.548,1.313
		c-0.531,0.244-1.222,0.367-2.075,0.367c-1.048,0-1.874-0.3-2.476-0.898c-0.602-0.6-0.903-1.451-0.903-2.559
		c0-1.158,0.405-2.015,1.216-2.563c0.811-0.55,2.033-0.854,3.667-0.913l1.895-0.059v-0.479c0-1.106-0.566-1.66-1.699-1.66
		c-0.873,0-1.898,0.265-3.076,0.791l-0.986-2.012c1.256-0.658,2.65-0.985,4.18-0.985c1.465,0,2.588,0.317,3.369,0.956
		c0.781,0.64,1.172,1.607,1.172,2.91v7.274h-2.082V245.195z M95.035,240.137l-1.152,0.039c-0.866,0.025-1.51,0.182-1.934,0.469
		c-0.424,0.287-0.635,0.724-0.635,1.31c0,0.84,0.482,1.26,1.445,1.26c0.69,0,1.242-0.198,1.655-0.596s0.62-0.925,0.62-1.582
		L95.035,240.137L95.035,240.137z"/>
	<path fill="#FFFFFF" d="M105.66,243.018c0.521,0,1.146-0.113,1.875-0.342v2.217c-0.742,0.332-1.654,0.498-2.734,0.498
		c-1.191,0-2.059-0.301-2.603-0.902c-0.544-0.602-0.815-1.506-0.815-2.711v-5.264h-1.426v-1.26l1.641-0.996l0.859-2.305h1.904v2.324
		h3.057v2.236h-3.057v5.264c0,0.424,0.119,0.736,0.356,0.938C104.954,242.917,105.27,243.018,105.66,243.018z"/>
	<path fill="#FFFFFF" d="M119.82,245.195h-2.979v-6.377c0-1.576-0.586-2.363-1.758-2.363c-0.833,0-1.436,0.283-1.807,0.85
		c-0.371,0.567-0.557,1.484-0.557,2.754v5.137h-2.979V230h2.979v3.096c0,0.24-0.023,0.807-0.068,1.699l-0.068,0.879h0.156
		c0.664-1.068,1.719-1.602,3.164-1.602c1.283,0,2.256,0.346,2.92,1.035c0.664,0.688,0.996,1.68,0.996,2.969L119.82,245.195
		L119.82,245.195z"/>
	<path fill="#FFFFFF" d="M127.828,245.391c-1.758,0-3.131-0.483-4.121-1.455c-0.99-0.971-1.484-2.344-1.484-4.121
		c0-1.83,0.458-3.244,1.372-4.242c0.914-0.999,2.179-1.499,3.794-1.499c1.543,0,2.744,0.438,3.604,1.317
		c0.86,0.879,1.289,2.094,1.289,3.644v1.444h-7.041c0.033,0.847,0.283,1.508,0.752,1.982c0.469,0.475,1.127,0.713,1.973,0.713
		c0.658,0,1.279-0.068,1.865-0.205s1.197-0.354,1.836-0.654v2.306c-0.521,0.26-1.078,0.454-1.67,0.581
		C129.405,245.328,128.682,245.391,127.828,245.391z M127.408,236.191c-0.631,0-1.127,0.199-1.484,0.601s-0.563,0.968-0.615,1.704
		h4.18c-0.014-0.736-0.205-1.305-0.576-1.704S128.039,236.191,127.408,236.191z"/>
	<path fill="#FFFFFF" d="M140.797,234.072c0.404,0,0.738,0.029,1.006,0.088l-0.225,2.793c-0.24-0.064-0.533-0.098-0.879-0.098
		c-0.951,0-1.691,0.244-2.222,0.731c-0.531,0.488-0.796,1.172-0.796,2.052v5.557h-2.979v-10.918h2.256l0.439,1.836h0.146
		c0.338-0.611,0.796-1.105,1.372-1.479C139.491,234.26,140.119,234.072,140.797,234.072z"/>
	<path fill="#FFFFFF" d="M143.658,231.455c0-0.971,0.541-1.455,1.621-1.455c1.08,0,1.621,0.484,1.621,1.455
		c0,0.463-0.135,0.822-0.405,1.079s-0.675,0.386-1.216,0.386C144.199,232.92,143.658,232.432,143.658,231.455z M146.764,245.195
		h-2.979v-10.918h2.979V245.195z"/>
	<path fill="#FFFFFF" d="M159.967,245.195h-2.979v-6.377c0-0.787-0.141-1.379-0.42-1.772c-0.279-0.394-0.727-0.591-1.338-0.591
		c-0.834,0-1.436,0.277-1.807,0.835s-0.557,1.479-0.557,2.769v5.137h-2.979v-10.918h2.275l0.4,1.396h0.166
		c0.332-0.527,0.789-0.926,1.372-1.195c0.583-0.271,1.245-0.405,1.987-0.405c1.27,0,2.232,0.344,2.891,1.03
		c0.659,0.686,0.986,1.679,0.986,2.974v7.118H159.967z"/>
	<path fill="#FFFFFF" d="M172.535,234.277v1.514l-1.709,0.439c0.313,0.487,0.469,1.035,0.469,1.641c0,1.172-0.408,2.085-1.226,2.738
		c-0.818,0.654-1.952,0.981-3.403,0.981l-0.537-0.028l-0.439-0.049c-0.307,0.233-0.459,0.493-0.459,0.78
		c0,0.431,0.547,0.646,1.641,0.646h1.855c1.197,0,2.111,0.258,2.739,0.771s0.942,1.271,0.942,2.267c0,1.274-0.532,2.266-1.597,2.969
		S168.219,250,166.227,250c-1.523,0-2.688-0.266-3.491-0.796c-0.803-0.53-1.206-1.274-1.206-2.231c0-0.658,0.205-1.207,0.615-1.649
		c0.41-0.443,1.012-0.759,1.807-0.947c-0.307-0.131-0.572-0.344-0.801-0.64c-0.229-0.297-0.342-0.61-0.342-0.942
		c0-0.416,0.121-0.765,0.361-1.04c0.24-0.275,0.59-0.548,1.045-0.814c-0.572-0.248-1.027-0.646-1.362-1.191
		s-0.503-1.191-0.503-1.934c0-1.191,0.387-2.113,1.162-2.765c0.775-0.651,1.881-0.978,3.32-0.978c0.307,0,0.669,0.027,1.089,0.084
		c0.42,0.056,0.688,0.097,0.806,0.121H172.535L172.535,234.277z M164.107,246.738c0,0.41,0.197,0.732,0.591,0.967
		c0.394,0.234,0.946,0.352,1.655,0.352c1.068,0,1.904-0.146,2.51-0.438s0.908-0.693,0.908-1.201c0-0.41-0.18-0.692-0.537-0.851
		c-0.357-0.156-0.912-0.233-1.66-0.233h-1.543c-0.547,0-1.004,0.129-1.372,0.386C164.291,245.977,164.107,246.314,164.107,246.738z
		 M165.191,237.852c0,0.592,0.135,1.062,0.405,1.406c0.27,0.346,0.683,0.518,1.235,0.518c0.561,0,0.971-0.172,1.23-0.518
		c0.259-0.346,0.391-0.814,0.391-1.406c0-1.313-0.541-1.973-1.621-1.973C165.738,235.879,165.191,236.537,165.191,237.852z"/>
	<path fill="#FFFFFF" d="M186.461,245.195l-0.576-1.484h-0.078c-0.502,0.631-1.018,1.068-1.548,1.313s-1.222,0.367-2.075,0.367
		c-1.049,0-1.873-0.3-2.476-0.898c-0.603-0.6-0.903-1.451-0.903-2.559c0-1.158,0.405-2.015,1.216-2.563
		c0.811-0.55,2.032-0.854,3.667-0.913l1.896-0.059v-0.479c0-1.106-0.565-1.66-1.699-1.66c-0.872,0-1.897,0.265-3.075,0.791
		l-0.987-2.012c1.256-0.658,2.651-0.985,4.18-0.985c1.465,0,2.588,0.317,3.369,0.956c0.781,0.64,1.172,1.607,1.172,2.91v7.274
		h-2.082V245.195z M185.582,240.137l-1.152,0.039c-0.865,0.025-1.51,0.182-1.934,0.469s-0.635,0.724-0.635,1.31
		c0,0.84,0.481,1.26,1.445,1.26c0.688,0,1.241-0.198,1.654-0.596s0.62-0.925,0.62-1.582L185.582,240.137L185.582,240.137z"/>
	<path fill="#FFFFFF" d="M194.586,245.195h-2.979V230h2.979V245.195z"/>
	<path fill="#FFFFFF" d="M200.689,245.195h-2.979V230h2.979V245.195z"/>
	<path fill="#FFFFFF" d="M211.988,245.195h-2.979V230h2.979V245.195z"/>
	<path fill="#FFFFFF" d="M214.986,231.455c0-0.971,0.541-1.455,1.621-1.455s1.621,0.484,1.621,1.455
		c0,0.463-0.136,0.822-0.405,1.079c-0.271,0.257-0.675,0.386-1.216,0.386C215.527,232.92,214.986,232.432,214.986,231.455z
		 M218.092,245.195h-2.979v-10.918h2.979V245.195z"/>
	<path fill="#FFFFFF" d="M228.834,241.953c0,1.119-0.389,1.973-1.167,2.559s-1.942,0.879-3.491,0.879
		c-0.795,0-1.471-0.054-2.031-0.16c-0.56-0.107-1.084-0.266-1.572-0.475v-2.461c0.554,0.26,1.178,0.479,1.871,0.654
		c0.692,0.175,1.304,0.264,1.83,0.264c1.08,0,1.621-0.313,1.621-0.938c0-0.234-0.072-0.426-0.215-0.571s-0.391-0.313-0.742-0.498
		c-0.351-0.185-0.819-0.401-1.406-0.649c-0.84-0.352-1.456-0.678-1.85-0.977c-0.395-0.299-0.682-0.643-0.859-1.03
		c-0.178-0.387-0.27-0.864-0.27-1.431c0-0.971,0.377-1.721,1.129-2.251s1.816-0.796,3.197-0.796c1.314,0,2.594,0.287,3.838,0.859
		l-0.898,2.147c-0.547-0.233-1.059-0.427-1.532-0.576s-0.961-0.226-1.455-0.226c-0.879,0-1.317,0.238-1.317,0.714
		c0,0.268,0.141,0.497,0.424,0.692s0.903,0.484,1.86,0.869c0.854,0.346,1.479,0.668,1.875,0.967s0.688,0.646,0.879,1.035
		C228.742,240.945,228.834,241.412,228.834,241.953z"/>
	<path fill="#FFFFFF" d="M235.758,243.018c0.521,0,1.146-0.113,1.875-0.342v2.217c-0.742,0.332-1.654,0.498-2.734,0.498
		c-1.19,0-2.059-0.301-2.603-0.902s-0.815-1.506-0.815-2.711v-5.264h-1.426v-1.26l1.641-0.996l0.859-2.305h1.904v2.324h3.057v2.236
		h-3.057v5.264c0,0.424,0.119,0.736,0.355,0.938C235.053,242.917,235.367,243.018,235.758,243.018z"/>
	<path fill="#FFFFFF" d="M239.713,231.455c0-0.971,0.541-1.455,1.621-1.455s1.621,0.484,1.621,1.455
		c0,0.463-0.135,0.822-0.405,1.079s-0.675,0.386-1.216,0.386C240.254,232.92,239.713,232.432,239.713,231.455z M242.818,245.195
		h-2.979v-10.918h2.979V245.195z"/>
	<path fill="#FFFFFF" d="M256.021,245.195h-2.979v-6.377c0-0.787-0.142-1.379-0.42-1.772c-0.279-0.394-0.728-0.591-1.338-0.591
		c-0.834,0-1.437,0.277-1.808,0.835s-0.557,1.479-0.557,2.769v5.137h-2.979v-10.918h2.274l0.4,1.396h0.165
		c0.332-0.527,0.789-0.926,1.373-1.195c0.582-0.271,1.244-0.405,1.986-0.405c1.271,0,2.232,0.344,2.891,1.03
		c0.66,0.686,0.986,1.679,0.986,2.974v7.118H256.021z"/>
	<path fill="#FFFFFF" d="M268.59,234.277v1.514l-1.709,0.439c0.313,0.487,0.469,1.035,0.469,1.641c0,1.172-0.408,2.085-1.226,2.738
		c-0.817,0.654-1.952,0.981-3.403,0.981l-0.537-0.028l-0.438-0.049c-0.308,0.233-0.459,0.493-0.459,0.78
		c0,0.431,0.547,0.646,1.641,0.646h1.854c1.197,0,2.111,0.258,2.74,0.771c0.627,0.513,0.941,1.271,0.941,2.267
		c0,1.274-0.531,2.266-1.597,2.969S264.273,250,262.281,250c-1.523,0-2.688-0.266-3.491-0.796c-0.804-0.53-1.206-1.274-1.206-2.231
		c0-0.658,0.205-1.207,0.615-1.649c0.41-0.443,1.012-0.759,1.807-0.947c-0.307-0.131-0.572-0.344-0.801-0.64
		c-0.229-0.297-0.342-0.61-0.342-0.942c0-0.416,0.121-0.765,0.361-1.04c0.239-0.275,0.59-0.548,1.045-0.814
		c-0.572-0.248-1.027-0.646-1.362-1.191s-0.503-1.191-0.503-1.934c0-1.191,0.387-2.113,1.162-2.765
		c0.774-0.651,1.881-0.978,3.32-0.978c0.307,0,0.668,0.027,1.088,0.084c0.42,0.056,0.688,0.097,0.807,0.121H268.59L268.59,234.277z
		 M260.162,246.738c0,0.41,0.197,0.732,0.591,0.967s0.946,0.352,1.655,0.352c1.068,0,1.904-0.146,2.51-0.438
		s0.908-0.693,0.908-1.201c0-0.41-0.18-0.692-0.537-0.851c-0.357-0.156-0.912-0.233-1.66-0.233h-1.543
		c-0.547,0-1.004,0.129-1.372,0.386C260.346,245.977,260.162,246.314,260.162,246.738z M261.246,237.852
		c0,0.592,0.135,1.062,0.404,1.406c0.271,0.346,0.684,0.518,1.235,0.518c0.562,0,0.972-0.172,1.23-0.518s0.391-0.814,0.391-1.406
		c0-1.313-0.541-1.973-1.621-1.973C261.793,235.879,261.246,236.537,261.246,237.852z"/>
	<path fill="#FFFFFF" d="M279.039,245.391c-1.282,0-2.29-0.498-3.021-1.494c-0.732-0.996-1.1-2.377-1.1-4.141
		c0-1.791,0.373-3.186,1.118-4.186c0.745-0.998,1.772-1.498,3.081-1.498c1.374,0,2.422,0.533,3.145,1.602h0.098
		c-0.148-0.814-0.225-1.539-0.225-2.178V230h2.988v15.195h-2.285l-0.576-1.416h-0.127
		C281.458,244.854,280.426,245.391,279.039,245.391z M280.084,243.018c0.762,0,1.32-0.221,1.675-0.664
		c0.354-0.442,0.55-1.194,0.581-2.256v-0.322c0-1.172-0.181-2.012-0.542-2.52c-0.36-0.508-0.948-0.762-1.763-0.762
		c-0.664,0-1.18,0.281-1.549,0.845c-0.367,0.563-0.551,1.382-0.551,2.456s0.186,1.88,0.557,2.417S279.395,243.018,280.084,243.018z"
		/>
	<path fill="#FFFFFF" d="M293.18,245.391c-1.758,0-3.132-0.483-4.121-1.455c-0.988-0.971-1.483-2.344-1.483-4.121
		c0-1.83,0.457-3.244,1.372-4.242c0.914-0.999,2.18-1.499,3.794-1.499c1.543,0,2.743,0.438,3.604,1.317
		c0.859,0.879,1.288,2.094,1.288,3.644v1.444h-7.041c0.032,0.847,0.283,1.508,0.753,1.982c0.469,0.475,1.125,0.713,1.973,0.713
		c0.656,0,1.279-0.068,1.865-0.205s1.197-0.354,1.836-0.654v2.306c-0.521,0.26-1.078,0.454-1.67,0.581
		C294.756,245.328,294.032,245.391,293.18,245.391z M292.76,236.191c-0.632,0-1.126,0.199-1.484,0.601
		c-0.357,0.401-0.563,0.968-0.614,1.704h4.18c-0.013-0.736-0.204-1.305-0.575-1.704S293.393,236.191,292.76,236.191z"/>
	<path fill="#FFFFFF" d="M304.654,243.018c0.521,0,1.146-0.113,1.875-0.342v2.217c-0.742,0.332-1.653,0.498-2.734,0.498
		c-1.191,0-2.059-0.301-2.604-0.902c-0.543-0.602-0.814-1.506-0.814-2.711v-5.264h-1.426v-1.26l1.641-0.996l0.859-2.305h1.904v2.324
		h3.057v2.236h-3.057v5.264c0,0.424,0.119,0.736,0.355,0.938C303.947,242.917,304.264,243.018,304.654,243.018z"/>
	<path fill="#FFFFFF" d="M315.67,245.195l-0.576-1.484h-0.078c-0.5,0.631-1.018,1.068-1.548,1.313s-1.223,0.367-2.075,0.367
		c-1.047,0-1.873-0.3-2.476-0.898c-0.603-0.6-0.903-1.451-0.903-2.559c0-1.158,0.405-2.015,1.217-2.563
		c0.811-0.55,2.033-0.854,3.666-0.913l1.896-0.059v-0.479c0-1.106-0.565-1.66-1.699-1.66c-0.872,0-1.897,0.265-3.075,0.791
		l-0.986-2.012c1.257-0.658,2.648-0.985,4.18-0.985c1.465,0,2.588,0.317,3.369,0.956c0.781,0.64,1.172,1.607,1.172,2.91v7.274
		h-2.082V245.195z M314.791,240.137l-1.152,0.039c-0.865,0.025-1.511,0.182-1.934,0.469s-0.635,0.724-0.635,1.31
		c0,0.84,0.48,1.26,1.445,1.26c0.689,0,1.241-0.198,1.654-0.596s0.62-0.925,0.62-1.582L314.791,240.137L314.791,240.137z"/>
	<path fill="#FFFFFF" d="M320.689,231.455c0-0.971,0.539-1.455,1.621-1.455c1.08,0,1.621,0.484,1.621,1.455
		c0,0.463-0.136,0.822-0.406,1.079c-0.27,0.257-0.676,0.386-1.215,0.386C321.229,232.92,320.689,232.432,320.689,231.455z
		 M323.795,245.195h-2.979v-10.918h2.979V245.195z"/>
	<path fill="#FFFFFF" d="M329.898,245.195h-2.979V230h2.979V245.195z"/>
	<path fill="#FFFFFF" d="M340.641,241.953c0,1.119-0.389,1.973-1.166,2.559c-0.779,0.586-1.941,0.879-3.492,0.879
		c-0.793,0-1.471-0.054-2.03-0.16c-0.56-0.107-1.084-0.266-1.572-0.475v-2.461c0.554,0.26,1.177,0.479,1.87,0.654
		c0.693,0.175,1.305,0.264,1.831,0.264c1.081,0,1.621-0.313,1.621-0.938c0-0.234-0.071-0.426-0.216-0.571
		c-0.144-0.146-0.391-0.313-0.741-0.498s-0.82-0.401-1.406-0.649c-0.84-0.352-1.457-0.678-1.851-0.977
		c-0.395-0.299-0.682-0.643-0.859-1.03c-0.178-0.387-0.27-0.864-0.27-1.431c0-0.971,0.377-1.721,1.129-2.251
		s1.818-0.796,3.197-0.796c1.315,0,2.596,0.287,3.838,0.859l-0.897,2.147c-0.547-0.233-1.058-0.427-1.533-0.576
		c-0.475-0.149-0.96-0.226-1.454-0.226c-0.88,0-1.318,0.238-1.318,0.714c0,0.268,0.142,0.497,0.425,0.692
		c0.282,0.195,0.903,0.484,1.86,0.869c0.853,0.346,1.478,0.668,1.875,0.967c0.396,0.299,0.689,0.646,0.879,1.035
		C340.548,240.945,340.641,241.412,340.641,241.953z"/>
	<path fill="#FFFFFF" d="M342.545,243.799c0-0.547,0.146-0.961,0.439-1.24s0.72-0.42,1.279-0.42c0.539,0,0.959,0.144,1.254,0.43
		c0.297,0.287,0.444,0.697,0.444,1.23c0,0.514-0.149,0.92-0.448,1.217c-0.301,0.295-0.717,0.443-1.25,0.443
		c-0.548,0-0.971-0.145-1.271-0.436C342.693,244.734,342.545,244.326,342.545,243.799z"/>
</g>
</svg>
