<?xml version="1.0" encoding="utf-8"?>
<!-- Generator: Adobe Illustrator 16.0.0, SVG Export Plug-In . SVG Version: 6.00 Build 0)  -->
<!DOCTYPE svg PUBLIC "-//W3C//DTD SVG 1.1//EN" "http://www.w3.org/Graphics/SVG/1.1/DTD/svg11.dtd">
<svg version="1.1" id="inhouseLoader" xmlns="http://www.w3.org/2000/svg" xmlns:xlink="http://www.w3.org/1999/xlink" x="0px"
	 y="0px" width="360.5px" height="250px" viewBox="0 0 360.5 250" enable-background="new 0 0 360.5 250" xml:space="preserve">
<g>
	<g opacity="0.2">
		<polygon fill="#FFFFFF" points="180.239,17.994 249.412,57.936 249.412,135.105 222.776,119.731 222.776,78.354 231.444,78.354 
			180.239,48.815 129.063,78.354 137.7,78.354 137.7,119.731 111.063,135.105 111.063,57.936 		"/>
		<polygon fill="#FFFFFF" points="249.438,146.06 180.251,107.099 111.063,146.06 		"/>
	</g>
	<rect x="110.2" y="169.086" opacity="0.2" fill="#FFFFFF" enable-background="new    " width="140.1" height="4.28"/>
	<g opacity="0.2">
		<path fill="#FFFFFF" d="M76.305,207.348h-2.951l-1.656-6.42c-0.062-0.231-0.166-0.701-0.313-1.417
			c-0.147-0.717-0.233-1.196-0.255-1.442c-0.033,0.301-0.117,0.784-0.251,1.448c-0.133,0.667-0.237,1.142-0.309,1.426l-1.647,6.402
			h-2.943l-3.119-12.221h2.551l1.563,6.671c0.273,1.23,0.471,2.301,0.593,3.202c0.034-0.318,0.109-0.81,0.23-1.477
			c0.12-0.667,0.233-1.184,0.339-1.552l1.78-6.847h2.449l1.781,6.847c0.078,0.306,0.175,0.774,0.292,1.404
			c0.118,0.632,0.207,1.171,0.268,1.624c0.056-0.437,0.145-0.979,0.268-1.626c0.123-0.648,0.233-1.173,0.335-1.576l1.554-6.671h2.55
			L76.305,207.348z"/>
		<path fill="#FFFFFF" d="M84.982,207.515c-1.505,0-2.68-0.413-3.528-1.245c-0.847-0.831-1.27-2.007-1.27-3.528
			c0-1.566,0.392-2.777,1.174-3.631c0.783-0.854,1.866-1.283,3.248-1.283c1.321,0,2.349,0.375,3.085,1.127
			c0.736,0.753,1.104,1.793,1.104,3.12v1.235h-6.027c0.028,0.726,0.242,1.291,0.644,1.697c0.402,0.406,0.964,0.61,1.689,0.61
			c0.563,0,1.095-0.059,1.597-0.176c0.501-0.117,1.025-0.303,1.571-0.56v1.975c-0.446,0.222-0.922,0.389-1.429,0.497
			C86.332,207.461,85.712,207.515,84.982,207.515z M84.623,199.64c-0.54,0-0.964,0.171-1.271,0.515
			c-0.306,0.344-0.482,0.828-0.526,1.459h3.578c-0.011-0.631-0.175-1.117-0.493-1.459C85.593,199.813,85.163,199.64,84.623,199.64z"
			/>
		<path fill="#FFFFFF" d="M102.998,207.348l-0.719-3.269l-0.97-4.13h-0.058l-1.705,7.398h-2.742l-2.658-9.347h2.542l1.079,4.139
			c0.173,0.74,0.348,1.766,0.526,3.068h0.051c0.022-0.422,0.12-1.094,0.293-2.016l0.133-0.71l1.154-4.481h2.809l1.095,4.481
			c0.022,0.122,0.058,0.304,0.104,0.543c0.047,0.24,0.093,0.495,0.138,0.767c0.045,0.271,0.085,0.535,0.122,0.795
			c0.037,0.26,0.057,0.469,0.063,0.624h0.05c0.051-0.401,0.14-0.951,0.268-1.652c0.129-0.699,0.22-1.17,0.276-1.416l1.121-4.138h2.5
			l-2.692,9.346h-2.777V207.348L102.998,207.348z"/>
		<path fill="#FFFFFF" d="M109.86,195.585c0-0.831,0.463-1.245,1.388-1.245c0.925,0,1.388,0.414,1.388,1.245
			c0,0.396-0.116,0.704-0.347,0.924s-0.578,0.33-1.041,0.33C110.324,196.839,109.86,196.421,109.86,195.585z M112.52,207.348h-2.55
			v-9.347h2.55V207.348z"/>
		<path fill="#FFFFFF" d="M117.744,207.348h-2.55V194.34h2.55V207.348L117.744,207.348z"/>
		<path fill="#FFFFFF" d="M122.969,207.348h-2.55V194.34h2.55V207.348z"/>
		<path fill="#FFFFFF" d="M135.291,197.826c1.104,0,1.968,0.43,2.591,1.291s0.937,2.041,0.937,3.541
			c0,1.543-0.322,2.738-0.965,3.586s-1.521,1.271-2.629,1.271c-1.098,0-1.959-0.399-2.583-1.195h-0.175l-0.426,1.028h-1.948V194.34
			h2.55v3.026c0,0.385-0.033,1-0.1,1.848h0.1C133.238,198.289,134.121,197.826,135.291,197.826z M134.472,199.865
			c-0.63,0-1.089,0.194-1.379,0.581c-0.289,0.388-0.44,1.027-0.451,1.919v0.275c0,1.004,0.149,1.723,0.447,2.157
			s0.77,0.652,1.417,0.652c0.523,0,0.941-0.239,1.25-0.724c0.309-0.482,0.464-1.183,0.464-2.103c0-0.919-0.156-1.609-0.468-2.068
			C135.438,200.097,135.012,199.865,134.472,199.865z"/>
		<path fill="#FFFFFF" d="M145.156,207.515c-1.505,0-2.68-0.413-3.528-1.245c-0.847-0.831-1.271-2.007-1.271-3.528
			c0-1.566,0.392-2.777,1.175-3.631c0.783-0.854,1.865-1.283,3.248-1.283c1.321,0,2.349,0.375,3.085,1.127
			c0.736,0.753,1.104,1.793,1.104,3.12v1.235h-6.027c0.028,0.726,0.242,1.291,0.644,1.697c0.402,0.406,0.965,0.61,1.689,0.61
			c0.563,0,1.095-0.059,1.596-0.176c0.502-0.117,1.025-0.303,1.572-0.56v1.975c-0.445,0.222-0.922,0.389-1.43,0.497
			C146.506,207.461,145.886,207.515,145.156,207.515z M144.797,199.64c-0.54,0-0.965,0.171-1.271,0.515s-0.482,0.828-0.526,1.459
			h3.578c-0.012-0.631-0.175-1.117-0.493-1.459S145.337,199.64,144.797,199.64z"/>
		<path fill="#FFFFFF" d="M163.172,207.348l-0.719-3.269l-0.97-4.13h-0.059l-1.705,7.398h-2.742l-2.658-9.347h2.542l1.079,4.139
			c0.173,0.74,0.348,1.766,0.526,3.068h0.051c0.021-0.422,0.121-1.094,0.293-2.016l0.133-0.71l1.154-4.481h2.809l1.096,4.481
			c0.021,0.122,0.056,0.304,0.104,0.543c0.047,0.24,0.092,0.495,0.137,0.767c0.046,0.271,0.086,0.535,0.122,0.795
			s0.058,0.469,0.063,0.624h0.051c0.05-0.401,0.139-0.951,0.268-1.652c0.13-0.699,0.221-1.17,0.275-1.416l1.121-4.138h2.499
			l-2.691,9.346h-2.777V207.348L163.172,207.348z"/>
		<path fill="#FFFFFF" d="M170.035,195.585c0-0.831,0.463-1.245,1.388-1.245c0.924,0,1.388,0.414,1.388,1.245
			c0,0.396-0.116,0.704-0.348,0.924c-0.23,0.22-0.577,0.33-1.04,0.33C170.498,196.839,170.035,196.421,170.035,195.585z
			 M172.693,207.348h-2.55v-9.347h2.55V207.348z"/>
		<path fill="#FFFFFF" d="M179.306,205.483c0.446,0,0.981-0.097,1.605-0.293v1.898c-0.637,0.284-1.416,0.426-2.341,0.426
			c-1.02,0-1.763-0.257-2.229-0.771c-0.465-0.514-0.697-1.29-0.697-2.321v-4.506h-1.221v-1.079l1.404-0.853l0.735-1.973h1.631v1.989
			h2.616v1.915h-2.616v4.506c0,0.362,0.102,0.63,0.305,0.803C178.701,205.397,178.972,205.483,179.306,205.483z"/>
		<path fill="#FFFFFF" d="M191.428,207.348h-2.55v-5.459c0-1.35-0.501-2.023-1.505-2.023c-0.714,0-1.23,0.243-1.546,0.728
			c-0.318,0.485-0.479,1.271-0.479,2.357v4.397h-2.55V194.34h2.55v2.65c0,0.205-0.019,0.69-0.057,1.454l-0.059,0.753h0.134
			c0.568-0.915,1.472-1.371,2.708-1.371c1.098,0,1.932,0.296,2.5,0.886c0.568,0.589,0.853,1.438,0.853,2.541V207.348
			L191.428,207.348z"/>
		<path fill="#FFFFFF" d="M197.163,198.001h2.792l1.766,5.259c0.15,0.456,0.254,0.998,0.308,1.622h0.052
			c0.061-0.574,0.181-1.115,0.359-1.622l1.73-5.259h2.733l-3.954,10.54c-0.363,0.977-0.879,1.706-1.552,2.192
			c-0.672,0.484-1.455,0.728-2.353,0.728c-0.44,0-0.874-0.047-1.297-0.143v-2.022c0.305,0.071,0.641,0.108,1.003,0.108
			c0.451,0,0.847-0.138,1.184-0.412c0.338-0.276,0.601-0.695,0.79-1.252l0.15-0.458L197.163,198.001z"/>
		<path fill="#FFFFFF" d="M216.733,202.658c0,1.521-0.401,2.712-1.204,3.569s-1.919,1.287-3.353,1.287
			c-0.897,0-1.688-0.195-2.374-0.588c-0.684-0.394-1.212-0.958-1.58-1.694c-0.367-0.735-0.552-1.593-0.552-2.575
			c0-1.526,0.398-2.714,1.195-3.561c0.796-0.848,1.917-1.271,3.361-1.271c0.897,0,1.689,0.196,2.373,0.586s1.212,0.949,1.581,1.681
			C216.549,200.823,216.733,201.677,216.733,202.658z M210.271,202.658c0,0.924,0.151,1.625,0.454,2.098
			c0.303,0.474,0.8,0.711,1.483,0.711c0.681,0,1.169-0.236,1.467-0.706c0.301-0.471,0.446-1.172,0.446-2.103
			c0-0.925-0.151-1.619-0.45-2.082s-0.794-0.694-1.479-0.694c-0.681,0-1.171,0.23-1.473,0.689
			C210.42,201.031,210.271,201.727,210.271,202.658z"/>
		<path fill="#FFFFFF" d="M225.461,207.348l-0.341-1.195h-0.134c-0.271,0.435-0.661,0.771-1.16,1.008
			c-0.502,0.236-1.074,0.354-1.714,0.354c-1.099,0-1.927-0.294-2.483-0.881c-0.557-0.588-0.836-1.435-0.836-2.538v-6.095h2.55v5.459
			c0,0.674,0.12,1.183,0.359,1.518c0.239,0.337,0.622,0.506,1.146,0.506c0.714,0,1.229-0.236,1.547-0.714
			c0.317-0.478,0.478-1.266,0.478-2.371v-4.397h2.55v9.347H225.461z"/>
		<path fill="#FFFFFF" d="M241.061,204.572c0,0.958-0.333,1.688-0.999,2.19c-0.666,0.501-1.663,0.752-2.989,0.752
			c-0.68,0-1.259-0.046-1.738-0.137s-0.928-0.228-1.346-0.406v-2.106c0.475,0.222,1.009,0.409,1.602,0.56
			c0.593,0.149,1.115,0.226,1.566,0.226c0.925,0,1.388-0.268,1.388-0.803c0-0.2-0.062-0.364-0.184-0.488
			c-0.122-0.125-0.335-0.269-0.636-0.427c-0.3-0.158-0.702-0.344-1.204-0.556c-0.719-0.301-1.247-0.58-1.584-0.836
			s-0.582-0.551-0.734-0.882s-0.23-0.74-0.23-1.226c0-0.83,0.321-1.473,0.965-1.927s1.556-0.681,2.738-0.681
			c1.125,0,2.22,0.245,3.285,0.735l-0.769,1.838c-0.469-0.199-0.906-0.366-1.313-0.494c-0.405-0.127-0.823-0.193-1.244-0.193
			c-0.754,0-1.129,0.204-1.129,0.611c0,0.229,0.122,0.425,0.364,0.593c0.242,0.167,0.772,0.414,1.592,0.743
			c0.73,0.296,1.266,0.572,1.605,0.828c0.339,0.256,0.589,0.554,0.752,0.886C240.981,203.709,241.061,204.109,241.061,204.572z"/>
		<path fill="#FFFFFF" d="M251.678,207.348h-2.55v-5.459c0-1.35-0.502-2.023-1.505-2.023c-0.714,0-1.229,0.243-1.547,0.728
			c-0.317,0.485-0.479,1.271-0.479,2.357v4.397h-2.549V194.34h2.549v2.65c0,0.205-0.018,0.69-0.057,1.454l-0.059,0.753h0.134
			c0.568-0.915,1.472-1.371,2.709-1.371c1.099,0,1.931,0.296,2.499,0.886c0.569,0.589,0.854,1.438,0.854,2.541V207.348
			L251.678,207.348z"/>
		<path fill="#FFFFFF" d="M262.796,202.658c0,1.521-0.401,2.712-1.204,3.569c-0.802,0.857-1.919,1.287-3.352,1.287
			c-0.896,0-1.689-0.195-2.373-0.588c-0.684-0.394-1.212-0.958-1.581-1.694c-0.368-0.735-0.552-1.593-0.552-2.575
			c0-1.526,0.397-2.714,1.195-3.561c0.796-0.848,1.916-1.271,3.36-1.271c0.897,0,1.688,0.196,2.374,0.586
			c0.684,0.39,1.212,0.949,1.58,1.681C262.612,200.823,262.796,201.677,262.796,202.658z M256.334,202.658
			c0,0.924,0.152,1.625,0.455,2.098c0.304,0.474,0.799,0.711,1.484,0.711c0.679,0,1.167-0.236,1.466-0.706
			c0.3-0.471,0.446-1.172,0.446-2.103c0-0.925-0.15-1.619-0.449-2.082c-0.302-0.463-0.796-0.694-1.48-0.694
			c-0.68,0-1.171,0.23-1.473,0.689C256.482,201.031,256.334,201.727,256.334,202.658z"/>
		<path fill="#FFFFFF" d="M270.119,197.826c0.344,0,0.631,0.024,0.861,0.075l-0.192,2.391c-0.207-0.056-0.458-0.084-0.754-0.084
			c-0.813,0-1.446,0.209-1.902,0.626c-0.454,0.418-0.681,1.003-0.681,1.757v4.757H264.9v-9.347h1.932l0.375,1.572h0.125
			c0.289-0.523,0.681-0.946,1.174-1.267S269.541,197.826,270.119,197.826z"/>
		<path fill="#FFFFFF" d="M276.615,205.483c0.445,0,0.98-0.097,1.604-0.293v1.898c-0.635,0.284-1.415,0.426-2.341,0.426
			c-1.02,0-1.762-0.257-2.229-0.771c-0.465-0.516-0.697-1.29-0.697-2.321v-4.506h-1.221v-1.079l1.404-0.853l0.736-1.973h1.63v1.989
			h2.616v1.915h-2.616v4.506c0,0.362,0.102,0.63,0.304,0.803C276.01,205.397,276.28,205.483,276.615,205.483z"/>
		<path fill="#FFFFFF" d="M282.659,207.348h-2.55V194.34h2.55V207.348z"/>
		<path fill="#FFFFFF" d="M283.996,198.001h2.793l1.764,5.259c0.151,0.456,0.254,0.998,0.31,1.622h0.05
			c0.062-0.574,0.184-1.115,0.359-1.622l1.73-5.259h2.733l-3.954,10.54c-0.362,0.977-0.879,1.706-1.552,2.192
			c-0.672,0.484-1.456,0.728-2.352,0.728c-0.442,0-0.874-0.047-1.298-0.143v-2.022c0.306,0.071,0.642,0.108,1.003,0.108
			c0.452,0,0.847-0.138,1.184-0.412c0.338-0.276,0.6-0.695,0.791-1.252l0.15-0.458L283.996,198.001z"/>
		<path fill="#FFFFFF" d="M294.714,206.152c0-0.469,0.125-0.823,0.376-1.062c0.251-0.239,0.616-0.359,1.095-0.359
			c0.461,0,0.82,0.123,1.073,0.367c0.255,0.246,0.38,0.597,0.38,1.054c0,0.439-0.128,0.787-0.383,1.041
			c-0.258,0.253-0.614,0.38-1.07,0.38c-0.469,0-0.831-0.124-1.088-0.373C294.841,206.953,294.714,206.604,294.714,206.152z"/>
		<path fill="#FFFFFF" d="M51.835,227.893h-2.951l-1.656-6.42c-0.062-0.23-0.166-0.701-0.313-1.417
			c-0.147-0.717-0.233-1.196-0.255-1.442c-0.033,0.301-0.117,0.784-0.251,1.449c-0.133,0.666-0.237,1.141-0.309,1.425l-1.647,6.402
			h-2.942l-3.119-12.221h2.55l1.563,6.671c0.273,1.23,0.471,2.301,0.593,3.202c0.034-0.317,0.109-0.81,0.23-1.477
			c0.12-0.667,0.233-1.184,0.339-1.552l1.78-6.847h2.449l1.781,6.847c0.078,0.307,0.175,0.774,0.292,1.405
			c0.118,0.631,0.207,1.17,0.268,1.623c0.056-0.437,0.145-0.979,0.268-1.626c0.123-0.647,0.233-1.173,0.335-1.576l1.554-6.671h2.55
			L51.835,227.893z"/>
		<path fill="#FFFFFF" d="M60.513,228.06c-1.505,0-2.68-0.412-3.528-1.245c-0.847-0.831-1.27-2.007-1.27-3.528
			c0-1.566,0.392-2.776,1.174-3.63c0.783-0.855,1.866-1.283,3.248-1.283c1.321,0,2.349,0.374,3.085,1.127
			c0.736,0.752,1.104,1.792,1.104,3.119v1.236h-6.027c0.028,0.726,0.242,1.29,0.644,1.696c0.402,0.406,0.964,0.61,1.689,0.61
			c0.563,0,1.095-0.059,1.597-0.176c0.501-0.116,1.025-0.302,1.571-0.56v1.975c-0.446,0.223-0.922,0.389-1.429,0.497
			S61.243,228.06,60.513,228.06z M60.153,220.185c-0.54,0-0.964,0.171-1.271,0.515c-0.306,0.344-0.482,0.828-0.526,1.459h3.578
			c-0.011-0.631-0.175-1.117-0.493-1.459C61.124,220.357,60.693,220.185,60.153,220.185z"/>
		<path fill="#FFFFFF" d="M68.454,215.671l0.118,0.184c-0.279,1.099-0.769,2.433-1.472,4.005h-1.831
			c0.384-1.65,0.664-3.047,0.836-4.188H68.454L68.454,215.671z"/>
		<path fill="#FFFFFF" d="M75.327,218.371c0.346,0,0.633,0.025,0.861,0.075l-0.193,2.391c-0.206-0.055-0.457-0.083-0.752-0.083
			c-0.814,0-1.447,0.209-1.902,0.625c-0.454,0.418-0.681,1.003-0.681,1.757v4.757h-2.55v-9.346h1.931l0.376,1.571h0.125
			c0.289-0.523,0.681-0.946,1.174-1.267C74.208,218.531,74.746,218.371,75.327,218.371z"/>
		<path fill="#FFFFFF" d="M82.114,228.06c-1.505,0-2.68-0.412-3.527-1.245c-0.848-0.831-1.271-2.007-1.271-3.528
			c0-1.566,0.392-2.776,1.175-3.63c0.782-0.855,1.865-1.283,3.248-1.283c1.321,0,2.349,0.374,3.085,1.127
			c0.736,0.752,1.104,1.792,1.104,3.119v1.236h-6.028c0.029,0.726,0.243,1.29,0.644,1.696s0.964,0.61,1.689,0.61
			c0.563,0,1.095-0.059,1.596-0.176c0.502-0.116,1.026-0.302,1.572-0.56v1.975c-0.446,0.223-0.923,0.389-1.43,0.497
			C83.464,228.007,82.844,228.06,82.114,228.06z M81.755,220.185c-0.54,0-0.964,0.171-1.271,0.515
			c-0.306,0.344-0.482,0.828-0.527,1.459h3.579c-0.011-0.631-0.175-1.117-0.493-1.459C82.726,220.357,82.296,220.185,81.755,220.185
			z"/>
		<path fill="#FFFFFF" d="M100.582,218.547v1.295l-1.463,0.377c0.268,0.416,0.401,0.886,0.401,1.404c0,1.003-0.35,1.785-1.049,2.344
			c-0.699,0.561-1.671,0.84-2.913,0.84l-0.46-0.023l-0.375-0.042c-0.262,0.199-0.393,0.421-0.393,0.667
			c0,0.369,0.468,0.554,1.405,0.554h1.588c1.026,0,1.807,0.221,2.345,0.659c0.538,0.439,0.806,1.088,0.806,1.94
			c0,1.091-0.456,1.94-1.367,2.541c-0.912,0.603-2.22,0.903-3.925,0.903c-1.304,0-2.3-0.228-2.989-0.682
			c-0.688-0.454-1.032-1.091-1.032-1.91c0-0.563,0.175-1.033,0.526-1.411c0.351-0.379,0.867-0.65,1.547-0.811
			c-0.262-0.112-0.491-0.294-0.686-0.549c-0.195-0.254-0.293-0.521-0.293-0.806c0-0.356,0.104-0.655,0.309-0.891
			c0.206-0.234,0.504-0.469,0.895-0.696c-0.49-0.212-0.879-0.553-1.166-1.02c-0.287-0.467-0.43-1.02-0.43-1.655
			c0-1.02,0.331-1.81,0.995-2.367s1.61-0.837,2.842-0.837c0.262,0,0.573,0.022,0.932,0.071c0.36,0.048,0.589,0.083,0.69,0.104
			H100.582L100.582,218.547z M93.367,229.214c0,0.351,0.168,0.627,0.506,0.827c0.337,0.201,0.81,0.301,1.417,0.301
			c0.915,0,1.63-0.124,2.149-0.374c0.519-0.25,0.777-0.594,0.777-1.028c0-0.352-0.153-0.592-0.46-0.729
			c-0.306-0.134-0.78-0.199-1.421-0.199h-1.321c-0.468,0-0.86,0.11-1.174,0.331C93.524,228.562,93.367,228.851,93.367,229.214z
			 M94.295,221.606c0,0.507,0.116,0.909,0.347,1.203c0.231,0.297,0.584,0.443,1.057,0.443c0.479,0,0.831-0.146,1.053-0.443
			c0.223-0.296,0.334-0.696,0.334-1.203c0-1.124-0.463-1.688-1.388-1.688C94.764,219.918,94.295,220.481,94.295,221.606z"/>
		<path fill="#FFFFFF" d="M108.055,227.893l-0.493-1.271h-0.067c-0.429,0.54-0.87,0.915-1.325,1.124
			c-0.454,0.209-1.046,0.313-1.776,0.313c-0.897,0-1.604-0.256-2.12-0.768c-0.516-0.515-0.773-1.242-0.773-2.191
			c0-0.991,0.347-1.725,1.042-2.193c0.694-0.472,1.74-0.73,3.139-0.782l1.622-0.051v-0.409c0-0.946-0.484-1.422-1.455-1.422
			c-0.748,0-1.625,0.228-2.633,0.678l-0.845-1.723c1.076-0.563,2.269-0.843,3.579-0.843c1.254,0,2.215,0.271,2.884,0.818
			c0.668,0.548,1.003,1.376,1.003,2.491v6.227L108.055,227.893L108.055,227.893L108.055,227.893z M107.303,223.563l-0.986,0.033
			c-0.741,0.021-1.292,0.155-1.655,0.401c-0.363,0.246-0.544,0.62-0.544,1.122c0,0.719,0.413,1.078,1.237,1.078
			c0.591,0,1.063-0.169,1.417-0.51s0.531-0.793,0.531-1.354L107.303,223.563L107.303,223.563z"/>
		<path fill="#FFFFFF" d="M116.398,226.028c0.446,0,0.981-0.097,1.605-0.292v1.897c-0.635,0.284-1.416,0.426-2.341,0.426
			c-1.02,0-1.762-0.257-2.228-0.771c-0.466-0.516-0.698-1.29-0.698-2.321v-4.506h-1.221v-1.078l1.405-0.854l0.735-1.973h1.63v1.99
			h2.617v1.914h-2.617v4.506c0,0.363,0.102,0.631,0.305,0.803C115.794,225.942,116.064,226.028,116.398,226.028z"/>
		<path fill="#FFFFFF" d="M128.52,227.893h-2.55v-5.459c0-1.349-0.502-2.022-1.505-2.022c-0.713,0-1.229,0.242-1.547,0.727
			c-0.318,0.486-0.477,1.271-0.477,2.357v4.397h-2.55v-13.008h2.55v2.65c0,0.205-0.02,0.69-0.059,1.454l-0.058,0.753h0.134
			c0.568-0.915,1.471-1.371,2.708-1.371c1.099,0,1.932,0.296,2.5,0.886c0.568,0.589,0.853,1.438,0.853,2.542L128.52,227.893
			L128.52,227.893z"/>
		<path fill="#FFFFFF" d="M135.375,228.06c-1.505,0-2.68-0.412-3.528-1.245c-0.848-0.831-1.27-2.007-1.27-3.528
			c0-1.566,0.392-2.776,1.174-3.63c0.782-0.855,1.865-1.283,3.248-1.283c1.321,0,2.349,0.374,3.085,1.127
			c0.736,0.752,1.104,1.792,1.104,3.119v1.236h-6.027c0.028,0.726,0.242,1.29,0.644,1.696s0.965,0.61,1.689,0.61
			c0.563,0,1.095-0.059,1.597-0.176c0.501-0.116,1.024-0.302,1.572-0.56v1.975c-0.446,0.223-0.923,0.389-1.43,0.497
			C136.725,228.007,136.106,228.06,135.375,228.06z M135.016,220.185c-0.541,0-0.965,0.171-1.271,0.515s-0.482,0.828-0.526,1.459
			h3.578c-0.012-0.631-0.175-1.117-0.493-1.459C135.986,220.357,135.556,220.185,135.016,220.185z"/>
		<path fill="#FFFFFF" d="M146.477,218.371c0.346,0,0.632,0.025,0.861,0.075l-0.192,2.391c-0.206-0.055-0.457-0.083-0.752-0.083
			c-0.814,0-1.448,0.209-1.902,0.625c-0.455,0.418-0.681,1.003-0.681,1.757v4.757h-2.55v-9.346h1.931l0.375,1.571h0.125
			c0.29-0.523,0.682-0.946,1.175-1.267S145.897,218.371,146.477,218.371z"/>
		<path fill="#FFFFFF" d="M148.926,216.131c0-0.831,0.463-1.246,1.388-1.246s1.388,0.415,1.388,1.246
			c0,0.396-0.116,0.703-0.347,0.924c-0.231,0.22-0.578,0.33-1.041,0.33C149.39,217.385,148.926,216.967,148.926,216.131z
			 M151.585,227.893h-2.55v-9.346h2.55V227.893z"/>
		<path fill="#FFFFFF" d="M162.888,227.893h-2.551v-5.459c0-0.674-0.12-1.18-0.359-1.517c-0.238-0.337-0.622-0.506-1.146-0.506
			c-0.714,0-1.229,0.237-1.547,0.715c-0.317,0.477-0.476,1.266-0.476,2.369v4.397h-2.55v-9.346h1.947l0.343,1.195h0.142
			c0.284-0.451,0.675-0.793,1.174-1.023c0.499-0.231,1.065-0.346,1.701-0.346c1.087,0,1.91,0.294,2.475,0.881
			c0.563,0.588,0.844,1.438,0.844,2.546v6.093H162.888L162.888,227.893z"/>
		<path fill="#FFFFFF" d="M173.646,218.547v1.295l-1.463,0.377c0.268,0.416,0.401,0.886,0.401,1.404c0,1.003-0.349,1.785-1.05,2.344
			c-0.7,0.561-1.671,0.84-2.913,0.84l-0.46-0.023l-0.375-0.042c-0.264,0.199-0.394,0.421-0.394,0.667
			c0,0.369,0.469,0.554,1.405,0.554h1.588c1.024,0,1.807,0.221,2.345,0.659c0.537,0.439,0.807,1.088,0.807,1.94
			c0,1.091-0.456,1.94-1.367,2.541c-0.912,0.603-2.22,0.903-3.925,0.903c-1.304,0-2.301-0.228-2.988-0.682s-1.032-1.091-1.032-1.91
			c0-0.563,0.176-1.033,0.526-1.411c0.352-0.379,0.866-0.65,1.547-0.811c-0.263-0.112-0.489-0.294-0.686-0.549
			c-0.196-0.254-0.293-0.521-0.293-0.806c0-0.356,0.104-0.655,0.31-0.891c0.205-0.234,0.505-0.469,0.895-0.696
			c-0.49-0.212-0.88-0.553-1.166-1.02c-0.287-0.467-0.431-1.02-0.431-1.655c0-1.02,0.331-1.81,0.995-2.367
			c0.663-0.558,1.609-0.837,2.842-0.837c0.263,0,0.572,0.022,0.932,0.071c0.359,0.048,0.589,0.083,0.69,0.104H173.646
			L173.646,218.547z M166.432,229.214c0,0.351,0.169,0.627,0.506,0.827c0.337,0.201,0.81,0.301,1.417,0.301
			c0.914,0,1.63-0.124,2.148-0.374s0.777-0.594,0.777-1.028c0-0.352-0.154-0.592-0.46-0.729c-0.306-0.134-0.78-0.199-1.421-0.199
			h-1.321c-0.468,0-0.859,0.11-1.174,0.331C166.589,228.562,166.432,228.851,166.432,229.214z M167.359,221.606
			c0,0.507,0.116,0.909,0.347,1.203c0.231,0.297,0.585,0.443,1.058,0.443c0.48,0,0.831-0.146,1.053-0.443
			c0.222-0.296,0.335-0.696,0.335-1.203c0-1.124-0.463-1.688-1.388-1.688C167.828,219.918,167.359,220.481,167.359,221.606z"/>
		<path fill="#FFFFFF" d="M185.567,227.893l-0.493-1.271h-0.066c-0.43,0.54-0.871,0.915-1.325,1.124
			c-0.454,0.21-1.046,0.313-1.776,0.313c-0.898,0-1.604-0.256-2.119-0.768c-0.517-0.515-0.773-1.242-0.773-2.191
			c0-0.991,0.347-1.725,1.041-2.193c0.694-0.472,1.739-0.73,3.139-0.782l1.624-0.051v-0.409c0-0.946-0.483-1.422-1.455-1.422
			c-0.746,0-1.623,0.228-2.632,0.678l-0.845-1.723c1.075-0.563,2.27-0.843,3.578-0.843c1.254,0,2.215,0.271,2.884,0.818
			c0.668,0.548,1.003,1.376,1.003,2.491v6.227L185.567,227.893L185.567,227.893L185.567,227.893z M184.815,223.563l-0.986,0.033
			c-0.741,0.021-1.293,0.155-1.655,0.401c-0.363,0.246-0.544,0.62-0.544,1.122c0,0.719,0.412,1.078,1.237,1.078
			c0.589,0,1.062-0.169,1.416-0.51c0.354-0.341,0.53-0.793,0.53-1.354L184.815,223.563L184.815,223.563z"/>
		<path fill="#FFFFFF" d="M192.523,227.893h-2.55v-13.008h2.55V227.893z"/>
		<path fill="#FFFFFF" d="M197.748,227.893h-2.551v-13.008h2.551V227.893z"/>
		<path fill="#FFFFFF" d="M207.42,227.893h-2.55v-13.008h2.55V227.893z"/>
		<path fill="#FFFFFF" d="M209.987,216.131c0-0.831,0.463-1.246,1.388-1.246c0.924,0,1.388,0.415,1.388,1.246
			c0,0.396-0.117,0.703-0.348,0.924c-0.232,0.22-0.577,0.33-1.04,0.33C210.45,217.385,209.987,216.967,209.987,216.131z
			 M212.646,227.893h-2.55v-9.346h2.55V227.893z"/>
		<path fill="#FFFFFF" d="M221.841,225.117c0,0.958-0.332,1.688-0.999,2.19c-0.666,0.502-1.662,0.752-2.988,0.752
			c-0.681,0-1.259-0.046-1.739-0.137c-0.479-0.091-0.928-0.228-1.346-0.406v-2.106c0.475,0.222,1.009,0.409,1.602,0.56
			s1.117,0.226,1.567,0.226c0.924,0,1.388-0.267,1.388-0.802c0-0.201-0.063-0.365-0.185-0.489c-0.122-0.125-0.334-0.269-0.635-0.427
			s-0.701-0.344-1.203-0.556c-0.72-0.301-1.247-0.58-1.584-0.836c-0.338-0.256-0.584-0.55-0.736-0.882
			c-0.152-0.331-0.23-0.74-0.23-1.225c0-0.831,0.322-1.474,0.967-1.927c0.644-0.454,1.555-0.682,2.736-0.682
			c1.126,0,2.221,0.246,3.286,0.735l-0.77,1.838c-0.468-0.199-0.906-0.366-1.311-0.493c-0.405-0.127-0.823-0.194-1.246-0.194
			c-0.752,0-1.127,0.204-1.127,0.612c0,0.229,0.121,0.425,0.363,0.592s0.772,0.414,1.592,0.744c0.73,0.296,1.266,0.571,1.604,0.827
			c0.34,0.256,0.589,0.554,0.753,0.887C221.763,224.255,221.841,224.654,221.841,225.117z"/>
		<path fill="#FFFFFF" d="M227.769,226.028c0.446,0,0.981-0.097,1.604-0.292v1.897c-0.635,0.284-1.416,0.426-2.341,0.426
			c-1.018,0-1.762-0.257-2.228-0.771c-0.466-0.514-0.698-1.29-0.698-2.321v-4.506h-1.221v-1.078l1.404-0.854l0.736-1.973h1.63v1.99
			h2.617v1.914h-2.617v4.506c0,0.363,0.103,0.631,0.305,0.803C227.165,225.942,227.434,226.028,227.769,226.028z"/>
		<path fill="#FFFFFF" d="M231.154,216.131c0-0.831,0.463-1.246,1.388-1.246c0.924,0,1.388,0.415,1.388,1.246
			c0,0.396-0.115,0.703-0.348,0.924c-0.231,0.22-0.577,0.33-1.04,0.33C231.617,217.385,231.154,216.967,231.154,216.131z
			 M233.813,227.893h-2.551v-9.346h2.551V227.893z"/>
		<path fill="#FFFFFF" d="M245.115,227.893h-2.551v-5.459c0-0.674-0.121-1.18-0.359-1.517c-0.239-0.337-0.623-0.506-1.146-0.506
			c-0.714,0-1.229,0.237-1.548,0.715c-0.317,0.477-0.477,1.266-0.477,2.369v4.397h-2.551v-9.346h1.947l0.342,1.195h0.142
			c0.284-0.451,0.676-0.793,1.176-1.023c0.498-0.231,1.064-0.346,1.7-0.346c1.088,0,1.91,0.294,2.475,0.881
			c0.565,0.588,0.845,1.438,0.845,2.546v6.093H245.115L245.115,227.893z"/>
		<path fill="#FFFFFF" d="M255.874,218.547v1.295l-1.463,0.377c0.268,0.416,0.401,0.886,0.401,1.404c0,1.003-0.35,1.785-1.05,2.344
			c-0.699,0.561-1.671,0.84-2.913,0.84l-0.46-0.023l-0.374-0.042c-0.265,0.199-0.394,0.421-0.394,0.667
			c0,0.369,0.469,0.554,1.405,0.554h1.586c1.025,0,1.808,0.221,2.346,0.659c0.537,0.439,0.807,1.088,0.807,1.94
			c0,1.091-0.455,1.94-1.367,2.541c-0.913,0.603-2.22,0.903-3.925,0.903c-1.304,0-2.302-0.228-2.988-0.682
			c-0.688-0.454-1.033-1.091-1.033-1.91c0-0.563,0.176-1.033,0.527-1.411c0.351-0.379,0.866-0.65,1.546-0.811
			c-0.262-0.112-0.489-0.294-0.686-0.549c-0.195-0.254-0.292-0.521-0.292-0.806c0-0.356,0.104-0.655,0.31-0.891
			c0.203-0.234,0.505-0.469,0.894-0.696c-0.489-0.212-0.879-0.553-1.166-1.02c-0.286-0.467-0.431-1.02-0.431-1.655
			c0-1.02,0.331-1.81,0.995-2.367c0.662-0.558,1.61-0.837,2.843-0.837c0.262,0,0.571,0.022,0.931,0.071
			c0.359,0.048,0.589,0.083,0.69,0.104H255.874L255.874,218.547z M248.659,229.214c0,0.351,0.169,0.627,0.506,0.827
			c0.337,0.201,0.811,0.301,1.417,0.301c0.915,0,1.631-0.124,2.148-0.374c0.519-0.25,0.777-0.594,0.777-1.028
			c0-0.352-0.153-0.592-0.459-0.729c-0.307-0.134-0.781-0.199-1.422-0.199h-1.32c-0.469,0-0.859,0.11-1.175,0.331
			C248.816,228.562,248.659,228.851,248.659,229.214z M249.588,221.606c0,0.507,0.115,0.909,0.346,1.203
			c0.231,0.297,0.585,0.443,1.057,0.443c0.481,0,0.833-0.146,1.054-0.443c0.221-0.296,0.334-0.696,0.334-1.203
			c0-1.124-0.463-1.688-1.388-1.688C250.056,219.918,249.588,220.481,249.588,221.606z"/>
		<path fill="#FFFFFF" d="M264.819,228.06c-1.098,0-1.961-0.426-2.587-1.278s-0.941-2.035-0.941-3.545
			c0-1.533,0.319-2.727,0.957-3.583c0.639-0.854,1.518-1.282,2.638-1.282c1.177,0,2.073,0.456,2.692,1.371h0.083
			c-0.126-0.697-0.192-1.317-0.192-1.864v-2.993h2.559v13.008h-1.956l-0.493-1.212h-0.109
			C266.89,227.601,266.006,228.06,264.819,228.06z M265.714,226.028c0.651,0,1.13-0.188,1.434-0.568
			c0.304-0.378,0.471-1.021,0.497-1.931v-0.276c0-1.003-0.154-1.722-0.464-2.156c-0.309-0.436-0.812-0.652-1.509-0.652
			c-0.568,0-1.01,0.24-1.326,0.723c-0.314,0.482-0.472,1.184-0.472,2.103c0,0.92,0.159,1.609,0.477,2.069
			C264.669,225.799,265.123,226.028,265.714,226.028z"/>
		<path fill="#FFFFFF" d="M276.924,228.06c-1.505,0-2.681-0.412-3.527-1.245c-0.847-0.831-1.27-2.007-1.27-3.528
			c0-1.566,0.392-2.776,1.175-3.63c0.781-0.855,1.866-1.283,3.248-1.283c1.32,0,2.348,0.374,3.085,1.127
			c0.735,0.752,1.103,1.792,1.103,3.119v1.236h-6.027c0.027,0.726,0.242,1.29,0.645,1.696c0.401,0.406,0.963,0.61,1.688,0.61
			c0.562,0,1.095-0.059,1.597-0.176c0.502-0.116,1.024-0.302,1.571-0.56v1.975c-0.445,0.223-0.923,0.389-1.43,0.497
			C278.273,228.007,277.654,228.06,276.924,228.06z M276.564,220.185c-0.541,0-0.964,0.171-1.271,0.515
			c-0.305,0.344-0.481,0.828-0.525,1.459h3.578c-0.011-0.631-0.174-1.117-0.491-1.459S277.106,220.185,276.564,220.185z"/>
		<path fill="#FFFFFF" d="M286.747,226.028c0.445,0,0.98-0.097,1.604-0.292v1.897c-0.635,0.284-1.415,0.426-2.34,0.426
			c-1.021,0-1.763-0.257-2.229-0.771c-0.465-0.516-0.697-1.29-0.697-2.321v-4.506h-1.22v-1.078l1.404-0.854l0.735-1.973h1.63v1.99
			h2.617v1.914h-2.617v4.506c0,0.363,0.103,0.631,0.304,0.803C286.142,225.942,286.412,226.028,286.747,226.028z"/>
		<path fill="#FFFFFF" d="M296.177,227.893l-0.493-1.271h-0.066c-0.429,0.54-0.871,0.915-1.325,1.124
			c-0.453,0.21-1.047,0.313-1.776,0.313c-0.896,0-1.604-0.256-2.119-0.768c-0.517-0.515-0.773-1.242-0.773-2.191
			c0-0.991,0.347-1.725,1.042-2.193c0.694-0.472,1.74-0.73,3.138-0.782l1.623-0.051v-0.409c0-0.946-0.483-1.422-1.454-1.422
			c-0.747,0-1.624,0.228-2.633,0.678l-0.844-1.723c1.076-0.563,2.267-0.843,3.578-0.843c1.254,0,2.216,0.271,2.885,0.818
			c0.668,0.548,1.003,1.376,1.003,2.491v6.227h-1.782v0.001H296.177z M295.425,223.563l-0.986,0.033
			c-0.74,0.021-1.294,0.155-1.655,0.401c-0.362,0.246-0.544,0.62-0.544,1.122c0,0.719,0.41,1.078,1.236,1.078
			c0.591,0,1.063-0.169,1.416-0.51s0.531-0.793,0.531-1.354L295.425,223.563L295.425,223.563z"/>
		<path fill="#FFFFFF" d="M300.474,216.131c0-0.831,0.461-1.246,1.387-1.246c0.925,0,1.388,0.415,1.388,1.246
			c0,0.396-0.116,0.703-0.347,0.924c-0.231,0.22-0.579,0.33-1.041,0.33C300.936,217.385,300.474,216.967,300.474,216.131z
			 M303.132,227.893h-2.55v-9.346h2.55V227.893z"/>
		<path fill="#FFFFFF" d="M308.357,227.893h-2.551v-13.008h2.551V227.893z"/>
		<path fill="#FFFFFF" d="M317.553,225.117c0,0.958-0.332,1.688-0.998,2.19s-1.661,0.752-2.988,0.752
			c-0.679,0-1.26-0.046-1.738-0.137c-0.479-0.091-0.928-0.228-1.346-0.406v-2.106c0.474,0.222,1.007,0.409,1.601,0.56
			s1.117,0.226,1.567,0.226c0.926,0,1.388-0.267,1.388-0.802c0-0.201-0.061-0.365-0.185-0.489c-0.124-0.125-0.335-0.269-0.635-0.427
			c-0.299-0.158-0.702-0.344-1.203-0.556c-0.72-0.301-1.248-0.58-1.585-0.836c-0.338-0.256-0.584-0.55-0.735-0.882
			c-0.152-0.331-0.23-0.74-0.23-1.225c0-0.831,0.322-1.474,0.966-1.927c0.645-0.454,1.557-0.682,2.736-0.682
			c1.126,0,2.224,0.246,3.286,0.735l-0.768,1.838c-0.469-0.199-0.905-0.366-1.313-0.493c-0.406-0.127-0.822-0.194-1.245-0.194
			c-0.753,0-1.128,0.204-1.128,0.612c0,0.229,0.121,0.425,0.364,0.592c0.241,0.167,0.772,0.414,1.592,0.744
			c0.73,0.296,1.266,0.571,1.605,0.827c0.339,0.256,0.589,0.554,0.752,0.887C317.474,224.255,317.553,224.654,317.553,225.117z"/>
		<path fill="#FFFFFF" d="M319.184,226.697c0-0.468,0.125-0.822,0.376-1.062s0.616-0.359,1.094-0.359
			c0.462,0,0.821,0.124,1.073,0.367c0.256,0.246,0.381,0.598,0.381,1.054c0,0.439-0.127,0.787-0.384,1.042
			c-0.258,0.252-0.613,0.379-1.07,0.379c-0.469,0-0.831-0.123-1.087-0.372C319.311,227.498,319.184,227.148,319.184,226.697z"/>
	</g>
</g>
</svg>
