<?xml version="1.0" encoding="utf-8"?>
<!-- Generator: Adobe Illustrator 16.0.0, SVG Export Plug-In . SVG Version: 6.00 Build 0)  -->
<!DOCTYPE svg PUBLIC "-//W3C//DTD SVG 1.1//EN" "http://www.w3.org/Graphics/SVG/1.1/DTD/svg11.dtd">
<svg version="1.1" id="Layer_1" xmlns="http://www.w3.org/2000/svg" xmlns:xlink="http://www.w3.org/1999/xlink" x="0px" y="0px"
	 width="154.45px" height="145.027px" viewBox="0 0 154.45 145.027" enable-background="new 0 0 154.45 145.027"
	 xml:space="preserve">
<path fill="#EEEEEE" d="M77.226,25.639L27.096,54.58v64.809h100.257V54.58L77.226,25.639z M81.212,103.921
	c-1.271,1.146-3.008,1.719-5.209,1.719c-2.27,0-4.047-0.567-5.33-1.702c-1.284-1.135-1.926-2.757-1.926-4.866
	s0.613-3.737,1.84-4.884s3.031-1.72,5.416-1.72c2.293,0,4.052,0.58,5.278,1.737c1.228,1.158,1.84,2.779,1.84,4.867
	C83.122,101.158,82.486,102.774,81.212,103.921z M92.425,73.538c-1.297,2.029-3.366,3.95-6.208,5.761
	c-2.406,1.559-3.917,2.699-4.523,3.422c-0.608,0.722-0.911,1.576-0.911,2.561v1.755H70.226v-2.957c0-2.247,0.459-4.146,1.375-5.692
	s2.545-3.055,4.884-4.521c1.856-1.17,3.192-2.225,4.007-3.164c0.813-0.939,1.221-2.018,1.221-3.232c0-0.963-0.436-1.725-1.307-2.287
	c-0.871-0.562-2.008-0.842-3.404-0.842c-3.462,0-7.509,1.227-12.139,3.68l-4.781-9.355c5.709-3.254,11.67-4.882,17.883-4.882
	c5.111,0,9.125,1.124,12.036,3.37c2.91,2.247,4.367,5.307,4.367,9.182C94.368,69.107,93.72,71.51,92.425,73.538z"/>
</svg>
