<?xml version="1.0" encoding="utf-8"?>
<!-- Generator: Adobe Illustrator 16.0.0, SVG Export Plug-In . SVG Version: 6.00 Build 0)  -->
<!DOCTYPE svg PUBLIC "-//W3C//DTD SVG 1.1//EN" "http://www.w3.org/Graphics/SVG/1.1/DTD/svg11.dtd">
<svg version="1.1" id="Layer_1" xmlns="http://www.w3.org/2000/svg" xmlns:xlink="http://www.w3.org/1999/xlink" x="0px" y="0px"
	 width="309.926px" height="310.094px" viewBox="0 0 309.926 310.094" enable-background="new 0 0 309.926 310.094"
	 xml:space="preserve">
<path opacity="0.1" fill="#E6E7E8" d="M259.999,268.884c30.694-28.314,49.928-68.869,49.928-113.921
	C309.926,69.38,240.547,0,154.963,0S0,69.38,0,154.963c0,85.584,69.379,154.963,154.963,154.963c24.698,0,48.141-5.86,68.863-16.139
	l63.158,16.307L259.999,268.884z"/>
<path fill="#E6E7E8" d="M259.999,268.884c30.694-28.314,49.928-68.869,49.928-113.921C309.926,69.38,240.547,0,154.963,0
	S0,69.38,0,154.963c0,85.584,69.379,154.963,154.963,154.963c24.698,0,48.141-5.86,68.863-16.139l63.158,16.307L259.999,268.884z
	 M253.147,285.83l-23.719-6.151l-7.32-1.893c-7.081,3.886-14.521,7.188-22.254,9.813c-14.271,4.815-29.387,7.327-44.891,7.327
	c-37.386,0-72.534-14.559-98.969-40.994S15,192.349,15,154.963S29.559,82.43,55.994,55.994S117.578,15,154.963,15
	c37.385,0,72.533,14.559,98.969,40.994s40.994,61.583,40.994,98.969s-14.559,72.533-40.994,98.969
	c-0.761,0.761-1.531,1.509-2.305,2.25c-3.629,3.465-7.449,6.742-11.443,9.811l4.576,7.002l8.402,12.832l-0.021-0.006L253.147,285.83
	z"/>
<g>
	<path fill="#E6E7E8" d="M232.26,139.531l-34.813,33.949l8.248,47.951c0.096,0.671,0.096,1.247,0.096,1.918
		c0,2.493-1.151,4.795-3.932,4.795c-1.344,0-2.686-0.479-3.837-1.15l-43.06-22.633l-43.06,22.633
		c-1.247,0.671-2.494,1.15-3.836,1.15c-2.781,0-4.028-2.302-4.028-4.795c0-0.671,0.096-1.247,0.192-1.918l8.248-47.951
		l-34.908-33.949c-1.151-1.246-2.397-2.877-2.397-4.603c0-2.877,2.973-4.028,5.371-4.412l48.143-7l21.578-43.636
		c0.863-1.822,2.494-3.932,4.699-3.932c2.205,0,3.836,2.109,4.699,3.932l21.578,43.636l48.143,7c2.301,0.384,5.37,1.535,5.37,4.412
		C234.753,136.654,233.506,138.285,232.26,139.531z"/>
</g>
</svg>
