<?xml version="1.0" encoding="utf-8"?>
<!-- Generator: Adobe Illustrator 16.0.0, SVG Export Plug-In . SVG Version: 6.00 Build 0)  -->
<!DOCTYPE svg PUBLIC "-//W3C//DTD SVG 1.1//EN" "http://www.w3.org/Graphics/SVG/1.1/DTD/svg11.dtd">
<svg version="1.1" id="Layer_1" xmlns="http://www.w3.org/2000/svg" xmlns:xlink="http://www.w3.org/1999/xlink" x="0px" y="0px"
	 width="335px" height="90px" viewBox="0 0 335 90" enable-background="new 0 0 335 90" xml:space="preserve">
<rect x="136.275" y="15.775" opacity="0.1" fill="#FFFFFF" enable-background="new    " width="62.449" height="58.449"/>
<g>
	<g>
		<path fill="#DF3E36" d="M153.684,67.783c-0.736,0.509-1.536,0.853-2.439,0.964c-0.333-0.588-0.423-1.221-0.479-1.84
			c-0.101-1.123-0.21-2.251-0.183-3.377c0.046-1.888,0.306-3.762,0.696-5.611c0.554-2.626,1.271-5.208,2.352-7.669
			c0.831-1.893,1.807-3.713,3.08-5.352c1.12-1.441,2.413-2.724,3.886-3.799c1.609-1.172,3.387-2.045,5.34-2.48
			c0.809-0.18,1.65-0.242,2.482-0.281c1.977-0.09,3.919,0.121,5.817,0.721c1.792,0.567,3.435,1.412,4.927,2.551
			c0.99,0.756,1.95,1.542,2.811,2.454c1.397,1.477,2.515,3.127,3.176,5.055c0.537,1.556,0.832,3.159,0.929,4.814
			c0.111,1.904-0.147,3.751-0.691,5.548c-0.492,1.63-1.247,3.151-2.347,4.486c-0.895,1.087-1.896,2.059-3.08,2.806
			c-1.215,0.766-2.52,1.372-3.906,1.777c-1.608,0.466-3.242,0.783-4.925,0.804c-1.623,0.02-3.193-0.299-4.744-0.778
			c-1.388-0.429-2.708-1.013-4.036-1.583c-0.322-0.138-0.496-0.344-0.518-0.689c-0.049-0.803-0.112-1.605-0.145-2.408
			c-0.007-0.188,0.087-0.378,0.146-0.613c0.477,0.195,0.878,0.359,1.281,0.523c1.726,0.697,3.473,1.325,5.299,1.708
			c1.265,0.265,2.547,0.473,3.843,0.361c1.795-0.155,3.513-0.613,5.063-1.58c2.752-1.718,4.565-4.122,5.308-7.292
			c0.376-1.609,0.276-3.229,0.001-4.848c-0.212-1.247-0.503-2.475-1.063-3.607c-0.923-1.871-2.248-3.414-3.928-4.661
			c-1.951-1.449-4.127-2.328-6.531-2.605c-3.941-0.453-7.453,0.588-10.511,3.13c-1.416,1.178-2.484,2.636-3.396,4.216
			c-1.455,2.527-2.361,5.25-2.842,8.118c-0.222,1.326-0.422,2.659-0.573,3.995c-0.1,0.888-0.12,1.784-0.129,2.679
			c-0.014,1.293,0.016,2.587,0.027,3.88C153.684,67.443,153.684,67.589,153.684,67.783z"/>
		<path fill="#DF3E36" d="M162.41,56.459c0.451,0.269,0.806,0.469,1.148,0.685c2.053,1.292,4.278,2.11,6.69,2.362
			c1.154,0.121,2.318,0.084,3.42-0.384c1.219-0.515,2.042-1.383,2.419-2.661c0.437-1.471,0.543-2.965,0.234-4.473
			c-0.276-1.35-0.935-2.491-2.019-3.347c-0.902-0.71-1.953-1.104-3.089-1.282c-1.617-0.256-3.142,0.073-4.627,0.7
			c-2.634,1.113-4.342,3.119-5.3,5.737c-0.459,1.256-0.679,2.606-0.924,3.929c-0.407,2.192-0.56,4.413-0.633,6.64
			c-0.011,0.35-0.052,0.698-0.084,1.12c-0.875,0.348-1.778,0.707-2.755,1.095c-0.035-0.586-0.082-1.108-0.097-1.63
			c-0.028-1.157-0.072-2.314-0.05-3.471c0.043-2.282,0.42-4.521,1.094-6.695c0.715-2.304,1.776-4.456,3.283-6.356
			c1.004-1.268,2.118-2.419,3.546-3.236c1.612-0.926,3.333-1.313,5.184-1.214c1.06,0.058,2.102,0.22,3.089,0.598
			c0.941,0.36,1.833,0.829,2.635,1.469c1.495,1.197,2.498,2.755,3.205,4.487c0.547,1.342,0.79,2.774,0.723,4.25
			c-0.067,1.432-0.436,2.775-1.151,4.005c-0.762,1.303-1.805,2.343-3.165,3.025c-0.873,0.435-1.816,0.668-2.782,0.744
			c-2.585,0.204-5.036-0.319-7.368-1.438c-0.913-0.436-1.802-0.907-2.574-1.576c-0.23-0.198-0.379-0.403-0.342-0.713
			C162.212,58.081,162.305,57.328,162.41,56.459z"/>
		<path fill="#DF3E36" d="M150.629,52.664c-0.032-0.275-0.08-0.55-0.095-0.826c-0.095-1.843-0.176-3.687-0.271-5.53
			c-0.081-1.549-0.179-3.099-0.261-4.648c-0.065-1.198-0.118-2.397-0.179-3.595c-0.087-1.726-0.177-3.451-0.265-5.177
			c-0.059-1.141-0.111-2.283-0.178-3.423c-0.1-1.694-0.216-3.386-0.312-5.081c-0.057-0.965-0.085-1.933-0.128-2.898
			c-0.009-0.204-0.027-0.408-0.046-0.696c0.145-0.046,0.316-0.161,0.475-0.141c0.676,0.081,1.291,0.345,1.881,0.683
			c0.399,0.23,0.428,0.611,0.449,0.986c0.082,1.331,0.139,2.662,0.219,3.992c0.099,1.607,0.215,3.212,0.313,4.819
			c0.079,1.315,0.136,2.632,0.216,3.948c0.098,1.606,0.214,3.209,0.312,4.815c0.08,1.286,0.142,2.572,0.217,3.858
			c0.051,0.892,0.108,1.781,0.168,2.67c0.022,0.328-0.015,0.627-0.174,0.932c-0.77,1.465-1.383,3-1.97,4.545
			c-0.096,0.253-0.166,0.517-0.247,0.776C150.714,52.666,150.672,52.665,150.629,52.664z"/>
		<path fill="#DF3E36" d="M156.126,41.655c-0.458-6.255-0.915-12.51-1.375-18.788c0.585-0.157,1.071,0.018,1.529,0.223
			c0.385,0.171,0.746,0.407,1.09,0.651c0.123,0.088,0.226,0.281,0.238,0.433c0.089,1.035,0.151,2.072,0.221,3.109
			c0.081,1.242,0.159,2.484,0.239,3.727c0.066,1.037,0.131,2.073,0.203,3.11c0.102,1.46,0.211,2.92,0.311,4.38
			c0.02,0.276,0.003,0.556,0.003,0.917c-0.751,0.724-1.558,1.503-2.366,2.282C156.188,41.685,156.157,41.67,156.126,41.655z"/>
	</g>
</g>
<path fill="#F5F5F5" d="M286.419,42.853v-2.75h-84.946V13.061h-67.88v27.042H48.581v2.75h85.012v4.296H48.581v2.749h85.012v27.042
	h67.88V49.897h84.946v-2.75h-84.946v-4.296L286.419,42.853L286.419,42.853z M198.758,74.225h-62.449V15.775h62.449V74.225z"/>
</svg>
