<?xml version="1.0" encoding="utf-8"?>
<!-- Generator: Adobe Illustrator 16.0.0, SVG Export Plug-In . SVG Version: 6.00 Build 0)  -->
<!DOCTYPE svg PUBLIC "-//W3C//DTD SVG 1.1//EN" "http://www.w3.org/Graphics/SVG/1.1/DTD/svg11.dtd">
<svg version="1.1" id="Layer_1" xmlns="http://www.w3.org/2000/svg" xmlns:xlink="http://www.w3.org/1999/xlink" x="0px" y="0px"
	 width="460px" height="90px" viewBox="0 0 460 90" enable-background="new 0 0 460 90" xml:space="preserve">
<g>
	<rect x="23.639" y="5.531" opacity="0.1" fill="#FFFFFF" width="84.698" height="79.271"/>
	<path fill="#FFFFFF" d="M19.956,1.849v86.638h92.063V1.849H19.956z M108.337,84.803H23.639V5.531h84.698V84.803z"/>
	<g>
		<g>
			<path fill-rule="evenodd" clip-rule="evenodd" fill="#DF3E36" d="M47.248,76.066c-0.999,0.693-2.083,1.158-3.309,1.307
				c-0.45-0.797-0.572-1.652-0.647-2.494c-0.137-1.521-0.287-3.055-0.249-4.578c0.063-2.561,0.416-5.104,0.946-7.611
				c0.751-3.563,1.723-7.063,3.189-10.4c1.127-2.566,2.448-5.037,4.177-7.259c1.52-1.955,3.272-3.697,5.27-5.152
				c2.183-1.592,4.595-2.775,7.243-3.365c1.096-0.245,2.238-0.329,3.364-0.38c2.681-0.124,5.317,0.162,7.892,0.977
				c2.43,0.769,4.657,1.915,6.681,3.46c1.343,1.025,2.646,2.092,3.813,3.327c1.896,2.005,3.408,4.244,4.308,6.857
				c0.727,2.111,1.126,4.283,1.258,6.529c0.151,2.582-0.2,5.088-0.938,7.525c-0.668,2.211-1.692,4.273-3.183,6.086
				c-1.213,1.475-2.571,2.791-4.177,3.805c-1.648,1.037-3.416,1.861-5.299,2.408c-2.181,0.635-4.398,1.066-6.676,1.092
				c-2.206,0.027-4.333-0.406-6.437-1.055c-1.883-0.582-3.672-1.375-5.474-2.148c-0.436-0.188-0.673-0.467-0.701-0.934
				c-0.067-1.09-0.151-2.178-0.194-3.268c-0.01-0.252,0.116-0.512,0.195-0.83c0.646,0.264,1.192,0.486,1.738,0.707
				c2.34,0.947,4.71,1.799,7.185,2.318c1.716,0.359,3.455,0.641,5.212,0.49c2.437-0.211,4.766-0.832,6.869-2.145
				c3.731-2.328,6.19-5.588,7.196-9.887c0.511-2.184,0.376-4.381,0.002-6.576c-0.288-1.691-0.681-3.355-1.441-4.895
				c-1.253-2.535-3.05-4.629-5.329-6.322c-2.645-1.965-5.597-3.157-8.857-3.532c-5.345-0.614-10.108,0.797-14.253,4.245
				c-1.92,1.597-3.369,3.574-4.605,5.721c-1.974,3.426-3.203,7.121-3.855,11.008c-0.302,1.799-0.572,3.605-0.776,5.42
				c-0.136,1.201-0.163,2.42-0.175,3.631c-0.019,1.754,0.022,3.508,0.037,5.262C47.25,75.607,47.248,75.807,47.248,76.066z"/>
			<path fill-rule="evenodd" clip-rule="evenodd" fill="#DF3E36" d="M59.085,60.709c0.612,0.365,1.092,0.635,1.557,0.93
				c2.783,1.752,5.803,2.861,9.073,3.203c1.565,0.164,3.143,0.113,4.64-0.52c1.651-0.699,2.769-1.877,3.28-3.609
				c0.592-1.996,0.735-4.021,0.317-6.066c-0.374-1.828-1.266-3.379-2.737-4.539c-1.224-0.963-2.65-1.498-4.189-1.74
				c-2.192-0.346-4.261,0.1-6.274,0.951c-3.571,1.512-5.887,4.23-7.187,7.783c-0.622,1.701-0.919,3.533-1.253,5.326
				c-0.554,2.973-0.759,5.984-0.857,9.004c-0.016,0.473-0.07,0.947-0.115,1.52c-1.185,0.471-2.41,0.957-3.735,1.484
				c-0.048-0.795-0.111-1.502-0.13-2.209c-0.038-1.57-0.099-3.141-0.069-4.709c0.059-3.094,0.571-6.131,1.484-9.076
				c0.969-3.127,2.409-6.045,4.453-8.625c1.36-1.717,2.872-3.279,4.809-4.39c2.188-1.253,4.521-1.781,7.029-1.645
				c1.437,0.077,2.851,0.296,4.188,0.809c1.278,0.489,2.487,1.125,3.573,1.993c2.029,1.625,3.39,3.738,4.348,6.088
				c0.742,1.82,1.072,3.764,0.979,5.766c-0.092,1.939-0.589,3.764-1.562,5.43c-1.032,1.768-2.446,3.18-4.292,4.102
				c-1.184,0.592-2.463,0.908-3.773,1.012c-3.505,0.275-6.829-0.438-9.992-1.951c-1.237-0.592-2.442-1.23-3.491-2.139
				c-0.312-0.27-0.514-0.545-0.463-0.965C58.816,62.908,58.941,61.889,59.085,60.709z"/>
			<path fill-rule="evenodd" clip-rule="evenodd" fill="#DF3E36" d="M43.106,55.563c-0.044-0.373-0.109-0.746-0.129-1.121
				c-0.127-2.498-0.237-5-0.366-7.5c-0.109-2.103-0.242-4.203-0.354-6.307c-0.088-1.624-0.159-3.25-0.242-4.876
				c-0.117-2.341-0.238-4.681-0.358-7.021c-0.08-1.548-0.149-3.096-0.241-4.643c-0.134-2.298-0.292-4.594-0.423-6.892
				c-0.075-1.309-0.115-2.62-0.173-3.932c-0.013-0.276-0.037-0.553-0.063-0.943c0.194-0.063,0.43-0.218,0.644-0.191
				c0.916,0.11,1.751,0.468,2.551,0.927c0.543,0.311,0.579,0.828,0.611,1.337c0.11,1.804,0.188,3.609,0.296,5.414
				c0.132,2.179,0.292,4.356,0.425,6.535c0.108,1.785,0.185,3.57,0.293,5.354c0.132,2.178,0.29,4.354,0.424,6.531
				c0.107,1.744,0.191,3.489,0.292,5.233c0.07,1.207,0.148,2.415,0.229,3.622c0.029,0.443-0.019,0.852-0.236,1.264
				c-1.044,1.986-1.876,4.068-2.672,6.164c-0.131,0.344-0.226,0.699-0.336,1.051C43.221,55.566,43.163,55.564,43.106,55.563z"/>
			<path fill-rule="evenodd" clip-rule="evenodd" fill="#DF3E36" d="M50.562,40.63c-0.621-8.483-1.242-16.968-1.865-25.48
				c0.794-0.213,1.453,0.023,2.077,0.301c0.521,0.233,1.011,0.553,1.477,0.884c0.167,0.119,0.306,0.38,0.323,0.587
				c0.119,1.405,0.205,2.812,0.298,4.218c0.11,1.685,0.217,3.369,0.325,5.054c0.092,1.406,0.177,2.813,0.275,4.219
				c0.137,1.98,0.287,3.96,0.421,5.939c0.025,0.376,0.004,0.754,0.004,1.245c-1.019,0.98-2.113,2.038-3.209,3.094
				C50.646,40.67,50.604,40.65,50.562,40.63z"/>
		</g>
	</g>
	<rect x="9.195" y="47.484" fill="#FFFFFF" width="10.761" height="2.926"/>
	<g>
		<path fill="#FFFFFF" d="M157.541,29.643c0,1.475-0.301,2.795-0.9,3.96c-0.6,1.166-1.406,2.151-2.417,2.956
			c-1.011,0.807-2.202,1.424-3.573,1.852c-1.372,0.429-2.829,0.643-4.371,0.643h-17.434V2.543h18.822
			c1.268,0,2.416,0.274,3.444,0.822c1.029,0.549,1.903,1.261,2.623,2.135s1.276,1.869,1.672,2.982
			c0.393,1.114,0.591,2.237,0.591,3.368c0,1.783-0.455,3.454-1.362,5.014c-0.909,1.561-2.203,2.717-3.883,3.471
			c2.091,0.617,3.745,1.74,4.962,3.368C156.933,25.332,157.541,27.312,157.541,29.643z M134.606,7.531v10.747h10.593
			c0.721,0,1.38-0.137,1.979-0.412c0.6-0.273,1.132-0.643,1.595-1.104c0.463-0.464,0.822-1.02,1.08-1.673
			c0.257-0.649,0.385-1.37,0.385-2.158c0-1.577-0.445-2.871-1.337-3.883c-0.892-1.011-2.022-1.517-3.394-1.517H134.606z
			 M151.627,28.563c0-0.754-0.129-1.473-0.386-2.159c-0.257-0.686-0.6-1.286-1.028-1.8c-0.429-0.515-0.951-0.926-1.568-1.234
			c-0.616-0.309-1.285-0.463-2.006-0.463h-12.032v11.158h11.673c0.754,0,1.457-0.145,2.107-0.437
			c0.651-0.291,1.217-0.686,1.697-1.183c0.479-0.496,0.857-1.08,1.132-1.749C151.489,30.028,151.627,29.317,151.627,28.563z"/>
		<path fill="#FFFFFF" d="M177.904,17.044c-2.194,0.069-4.131,0.574-5.811,1.517c-1.681,0.943-2.897,2.289-3.651,4.036v16.456
			h-5.656V12.158h5.245v6.018c0.959-1.852,2.186-3.359,3.677-4.526c1.491-1.164,3.076-1.747,4.757-1.747c0.342,0,0.624,0,0.848,0
			c0.223,0,0.421,0.018,0.592,0.051V17.044z"/>
		<path fill="#FFFFFF" d="M182.841,45.43c0.479,0.103,0.926,0.171,1.336,0.205c0.412,0.033,0.789,0.052,1.133,0.052
			c0.444,0,0.839-0.052,1.183-0.154c0.342-0.103,0.676-0.369,1.002-0.797c0.326-0.429,0.686-1.09,1.08-1.98
			c0.394-0.892,0.865-2.125,1.414-3.702l-11.004-26.895h5.811l8.331,21.906l7.404-21.906h5.349l-12.29,33.117
			c-0.687,1.852-1.715,3.223-3.086,4.115c-1.371,0.891-2.966,1.336-4.782,1.336c-0.995,0-1.954-0.139-2.88-0.412V45.43z"/>
		<path fill="#FFFFFF" d="M216.575,39.567c-1.304,0-2.513-0.214-3.626-0.643c-1.115-0.429-2.075-1.021-2.88-1.774
			c-0.806-0.754-1.439-1.646-1.902-2.674s-0.694-2.143-0.694-3.342c0-1.269,0.273-2.418,0.822-3.446s1.329-1.919,2.341-2.674
			c1.01-0.754,2.211-1.337,3.599-1.749c1.389-0.411,2.923-0.616,4.603-0.616c1.269,0,2.521,0.111,3.754,0.334
			c1.234,0.224,2.349,0.523,3.343,0.9v-1.852c0-1.988-0.565-3.539-1.697-4.654c-1.131-1.113-2.76-1.671-4.885-1.671
			c-1.44,0-2.854,0.266-4.242,0.798c-1.389,0.531-2.82,1.294-4.295,2.287l-1.747-3.599c3.462-2.331,7.062-3.497,10.799-3.497
			c3.702,0,6.582,0.943,8.639,2.829c2.057,1.885,3.083,4.593,3.083,8.124v9.719c0,0.651,0.121,1.114,0.363,1.389
			c0.238,0.274,0.648,0.429,1.232,0.463v4.833c-0.549,0.103-1.053,0.172-1.518,0.206c-0.463,0.034-0.882,0.051-1.259,0.051
			c-1.098-0.068-1.929-0.359-2.494-0.874c-0.565-0.514-0.917-1.199-1.054-2.056l-0.154-1.697c-1.201,1.577-2.684,2.785-4.448,3.625
			C220.491,39.146,218.597,39.567,216.575,39.567z M218.117,35.402c1.371,0,2.665-0.249,3.883-0.746
			c1.217-0.496,2.167-1.19,2.854-2.082c0.719-0.617,1.079-1.268,1.079-1.955v-3.548c-0.96-0.376-1.979-0.668-3.06-0.874
			c-1.08-0.205-2.134-0.309-3.162-0.309c-2.023,0-3.678,0.438-4.963,1.312c-1.286,0.874-1.929,2.031-1.929,3.471
			c0,1.337,0.497,2.461,1.492,3.368C215.306,34.948,216.575,35.402,218.117,35.402z"/>
		<path fill="#FFFFFF" d="M262.648,39.053h-5.656V23.986c0-2.537-0.412-4.379-1.234-5.528c-0.822-1.147-2.006-1.723-3.549-1.723
			c-0.822,0-1.654,0.154-2.494,0.463s-1.617,0.746-2.34,1.311c-0.719,0.566-1.361,1.235-1.928,2.007
			c-0.566,0.771-1.002,1.619-1.311,2.545v15.992h-5.658V12.158h5.145v5.4c1.027-1.816,2.518-3.248,4.475-4.294
			c1.951-1.046,4.111-1.568,6.477-1.568c1.611,0,2.939,0.291,3.986,0.874c1.045,0.583,1.867,1.381,2.469,2.391
			c0.6,1.012,1.02,2.178,1.26,3.497c0.24,1.32,0.359,2.718,0.359,4.191V39.053z"/>
		<path fill="#FFFFFF" d="M278.076,39.053l15.271-36.51h2.932l15.273,36.51h-3.857l-4.732-11.416h-16.402l-4.68,11.416H278.076z
			 M294.838,6.76l-7.506,18.05h14.811L294.838,6.76z"/>
		<path fill="#FFFFFF" d="M316.025,1.514h3.498v31.472c0,0.995,0.271,1.773,0.82,2.34c0.549,0.565,1.32,0.849,2.316,0.849
			c0.375,0,0.822-0.052,1.336-0.154c0.514-0.104,0.992-0.24,1.438-0.411l0.619,2.827c-0.65,0.274-1.449,0.497-2.393,0.669
			c-0.941,0.171-1.756,0.257-2.441,0.257c-1.611,0-2.881-0.453-3.805-1.363c-0.926-0.907-1.389-2.185-1.389-3.83V1.514z"/>
		<path fill="#FFFFFF" d="M336.646,39.053l-10.902-26.791h3.65l9.205,23.552l9.256-23.552h3.395l-10.9,26.791H336.646z"/>
		<path fill="#FFFFFF" d="M362.307,39.567c-1.371,0-2.623-0.214-3.754-0.643s-2.1-1.021-2.906-1.774
			c-0.805-0.754-1.43-1.627-1.875-2.622c-0.447-0.994-0.67-2.039-0.67-3.137c0-1.235,0.273-2.357,0.824-3.369
			c0.547-1.011,1.318-1.877,2.313-2.597c0.994-0.721,2.186-1.276,3.574-1.671c1.389-0.394,2.922-0.592,4.602-0.592
			c1.338,0,2.709,0.121,4.115,0.36c1.404,0.241,2.656,0.583,3.754,1.028v-2.417c0-2.365-0.676-4.242-2.031-5.63
			c-1.355-1.389-3.18-2.084-5.477-2.084c-1.441,0-2.871,0.275-4.293,0.823c-1.424,0.549-2.873,1.337-4.346,2.365l-1.234-2.313
			c1.748-1.165,3.445-2.039,5.09-2.623c1.646-0.582,3.359-0.875,5.143-0.875c3.256,0,5.846,0.944,7.766,2.829
			c1.92,1.887,2.879,4.491,2.879,7.816v12.085c0,0.96,0.41,1.439,1.234,1.439v3.085c-0.275,0.034-0.531,0.06-0.771,0.077
			c-0.24,0.017-0.447,0.025-0.615,0.025c-0.688,0-1.313-0.205-1.879-0.617c-0.566-0.411-0.883-1.027-0.951-1.851l-0.102-2.108
			c-1.168,1.577-2.701,2.803-4.602,3.677C366.189,39.13,364.262,39.567,362.307,39.567z M363.182,36.894
			c1.543,0,3.076-0.335,4.602-1.003s2.734-1.585,3.627-2.752c0.236-0.308,0.445-0.643,0.615-1.002
			c0.172-0.36,0.258-0.694,0.258-1.002v-4.371c-1.166-0.445-2.385-0.789-3.652-1.029c-1.268-0.239-2.502-0.36-3.701-0.36
			c-2.504,0-4.535,0.507-6.094,1.518c-1.561,1.012-2.34,2.408-2.34,4.191c0,0.72,0.135,1.422,0.412,2.107
			c0.273,0.687,0.693,1.304,1.258,1.852c0.566,0.549,1.26,0.995,2.084,1.338C361.074,36.722,362.049,36.894,363.182,36.894z"/>
		<path fill="#FFFFFF" d="M396.76,15.347c-2.365,0.069-4.422,0.72-6.17,1.954c-1.75,1.234-2.984,2.932-3.703,5.092v16.66h-3.498
			V12.262h3.293v6.428c0.924-1.885,2.141-3.453,3.65-4.705c1.508-1.251,3.137-1.877,4.885-1.877c0.309,0,0.6,0,0.875,0
			c0.273,0,0.496,0.018,0.668,0.051V15.347z"/>
		<path fill="#FFFFFF" d="M413.164,39.567c-1.955,0-3.756-0.368-5.398-1.105c-1.646-0.737-3.07-1.749-4.27-3.034
			c-1.201-1.285-2.135-2.769-2.803-4.447c-0.668-1.681-1.004-3.479-1.004-5.399c0-1.885,0.336-3.66,1.004-5.323
			c0.668-1.662,1.602-3.119,2.803-4.371c1.199-1.251,2.613-2.244,4.242-2.982c1.629-0.736,3.42-1.106,5.373-1.106
			c1.955,0,3.746,0.37,5.373,1.106c1.629,0.738,3.027,1.74,4.193,3.008c1.164,1.27,2.072,2.726,2.725,4.372
			c0.65,1.645,0.977,3.394,0.977,5.244c0,0.275-0.008,0.549-0.025,0.823s-0.043,0.463-0.078,0.566h-22.883
			c0.104,1.439,0.438,2.769,1.004,3.984c0.564,1.218,1.285,2.271,2.16,3.162c0.873,0.893,1.883,1.587,3.033,2.083
			c1.146,0.498,2.373,0.746,3.678,0.746c0.891,0,1.764-0.12,2.621-0.359c0.857-0.24,1.646-0.566,2.365-0.978
			c0.721-0.412,1.363-0.917,1.93-1.518c0.566-0.599,1.004-1.26,1.311-1.979l3.033,0.822c-0.41,0.995-0.994,1.895-1.746,2.7
			c-0.756,0.806-1.631,1.509-2.623,2.108c-0.996,0.6-2.092,1.063-3.293,1.389C415.664,39.404,414.432,39.567,413.164,39.567z
			 M423.037,24.243c-0.104-1.439-0.438-2.751-1.002-3.934c-0.566-1.183-1.285-2.202-2.162-3.06
			c-0.873-0.856-1.893-1.525-3.059-2.006c-1.166-0.479-2.398-0.719-3.703-0.719c-1.303,0-2.535,0.239-3.703,0.719
			c-1.164,0.48-2.184,1.149-3.059,2.006c-0.873,0.857-1.576,1.885-2.107,3.085c-0.533,1.2-0.85,2.503-0.951,3.908H423.037z"/>
		<path fill="#FFFFFF" d="M428.898,36.688L447,14.885h-17.689v-2.623h21.494v2.365l-17.998,21.804h17.998v2.622h-21.906V36.688z"/>
	</g>
	<rect x="198.729" y="47.484" fill="#FFFFFF" width="252.076" height="2.926"/>
	<rect x="109.412" y="47.484" fill="#FFFFFF" width="66.94" height="2.926"/>
	<rect x="109.412" y="54.762" fill="#FFFFFF" width="341.393" height="2.926"/>
	<rect x="9.195" y="54.762" fill="#FFFFFF" width="10.761" height="2.926"/>
	<g>
		<path fill="#DF3E36" d="M129.404,88.195l2.529-20.469h7.023c1.19,0,2.208,0.111,3.057,0.336c0.848,0.225,1.541,0.545,2.079,0.963
			c0.539,0.416,0.932,0.918,1.18,1.502c0.248,0.586,0.373,1.236,0.373,1.947c0,0.563-0.072,1.102-0.218,1.621
			c-0.146,0.521-0.375,1.002-0.688,1.441s-0.719,0.84-1.215,1.201c-0.497,0.361-1.097,0.662-1.799,0.906
			c1.105,0.299,1.923,0.766,2.452,1.398c0.528,0.631,0.793,1.43,0.793,2.395c0,0.945-0.18,1.83-0.54,2.648
			c-0.361,0.818-0.884,1.533-1.567,2.143s-1.516,1.088-2.494,1.439c-0.978,0.352-2.085,0.527-3.322,0.527H129.404z M135.053,79.457
			l-0.647,5.297h3.008c0.562,0,1.034-0.082,1.419-0.246c0.383-0.164,0.694-0.395,0.934-0.689s0.412-0.639,0.52-1.031
			c0.107-0.395,0.162-0.824,0.162-1.293c0-0.311-0.04-0.59-0.119-0.844c-0.08-0.252-0.216-0.465-0.408-0.639
			c-0.191-0.174-0.444-0.309-0.759-0.406c-0.313-0.1-0.699-0.148-1.159-0.148H135.053z M135.418,76.422h2.191
			c0.515,0,0.979-0.051,1.391-0.154s0.766-0.279,1.061-0.527c0.296-0.248,0.522-0.578,0.682-0.99s0.239-0.922,0.239-1.531
			c0-0.758-0.199-1.295-0.598-1.607c-0.397-0.314-1.014-0.471-1.848-0.471h-2.473L135.418,76.422z"/>
		<path fill="#DF3E36" d="M167.196,88.195h-4.607l1.067-8.711h-7.391l-1.067,8.711h-4.608l2.529-20.469h4.608l-1.068,8.639h7.39
			l1.068-8.639h4.608L167.196,88.195z"/>
		<path fill="#DF3E36" d="M194.368,76.646c0,1.105-0.129,2.164-0.387,3.176s-0.623,1.953-1.097,2.824
			c-0.472,0.871-1.044,1.662-1.713,2.373c-0.67,0.713-1.422,1.318-2.255,1.82c-0.834,0.5-1.738,0.891-2.712,1.166
			s-2,0.414-3.077,0.414c-1.349,0-2.559-0.236-3.632-0.709c-1.072-0.473-1.983-1.119-2.732-1.939
			c-0.749-0.818-1.322-1.783-1.721-2.895c-0.398-1.109-0.597-2.305-0.597-3.59c0-1.104,0.128-2.164,0.386-3.182
			c0.258-1.016,0.623-1.959,1.096-2.83c0.474-0.871,1.047-1.662,1.722-2.375c0.674-0.711,1.428-1.318,2.262-1.818
			c0.833-0.502,1.737-0.891,2.712-1.168c0.974-0.275,2.004-0.414,3.09-0.414c1.34,0,2.546,0.236,3.618,0.711
			c1.072,0.473,1.98,1.121,2.726,1.945c0.744,0.824,1.315,1.793,1.714,2.908S194.368,75.373,194.368,76.646z M189.676,76.76
			c0-0.844-0.102-1.609-0.302-2.297c-0.202-0.689-0.498-1.279-0.886-1.771c-0.39-0.49-0.864-0.871-1.426-1.137
			c-0.563-0.268-1.199-0.4-1.911-0.4c-0.938,0-1.775,0.193-2.515,0.582c-0.74,0.389-1.37,0.936-1.89,1.637
			c-0.52,0.703-0.919,1.549-1.194,2.535c-0.276,0.99-0.415,2.084-0.415,3.281c0,0.844,0.099,1.607,0.295,2.291
			c0.197,0.684,0.485,1.268,0.864,1.756c0.38,0.486,0.851,0.863,1.412,1.131c0.563,0.266,1.204,0.4,1.925,0.4
			c0.937,0,1.777-0.191,2.522-0.576c0.744-0.385,1.377-0.928,1.896-1.629c0.52-0.703,0.92-1.547,1.201-2.529
			C189.535,79.049,189.676,77.959,189.676,76.76z"/>
		<path fill="#DF3E36" d="M210.692,81.016c0.15-0.309,0.307-0.613,0.471-0.912c0.164-0.301,0.335-0.6,0.513-0.9l6.266-10.775
			c0.188-0.318,0.422-0.514,0.703-0.59c0.281-0.074,0.553-0.111,0.814-0.111h3.597l-2.528,20.469h-4.019l1.433-11.914
			c0.028-0.252,0.073-0.531,0.134-0.836s0.129-0.621,0.204-0.947l-6.153,10.564c-0.188,0.318-0.431,0.555-0.731,0.709
			c-0.299,0.154-0.627,0.232-0.982,0.232h-0.618c-0.356,0-0.667-0.08-0.935-0.238c-0.267-0.16-0.452-0.395-0.555-0.703
			l-3.598-10.594c-0.019,0.318-0.034,0.629-0.049,0.928c-0.014,0.299-0.035,0.57-0.063,0.814l-1.405,11.984h-4.046l2.529-20.455
			h3.483c0.197,0,0.37,0,0.52,0s0.283,0.021,0.401,0.063c0.116,0.043,0.218,0.111,0.302,0.205s0.154,0.229,0.21,0.406l3.597,10.787
			C210.384,79.793,210.552,80.398,210.692,81.016z"/>
		<path fill="#DF3E36" d="M241.965,71.252h-7.572l-0.617,4.945h5.801l-0.447,3.4h-5.775l-0.617,5.07h7.627l-0.449,3.527h-12.223
			l2.529-20.469h12.195L241.965,71.252z"/>
		<path fill="#DF3E36" d="M272.424,67.727l-0.479,3.623h-5.197l-2.08,16.846h-4.553l2.053-16.846h-5.227l0.449-3.623H272.424z"/>
		<path fill="#DF3E36" d="M290.096,71.252h-7.572l-0.617,4.945h5.803l-0.449,3.4h-5.775l-0.617,5.07h7.629l-0.449,3.527h-12.225
			l2.529-20.469h12.195L290.096,71.252z"/>
		<path fill="#DF3E36" d="M312.07,88.195h-3.541c-0.393,0-0.709-0.092-0.949-0.273c-0.238-0.184-0.381-0.424-0.428-0.725
			l-0.633-3.68h-6.953l-1.518,3.68c-0.104,0.262-0.305,0.494-0.604,0.695c-0.301,0.203-0.633,0.303-0.998,0.303h-3.598l9.779-20.469
			h4.691L312.07,88.195z M300.846,80.398h5.141l-0.998-5.846c-0.084-0.486-0.174-0.98-0.273-1.48
			c-0.098-0.502-0.18-0.959-0.246-1.371c-0.074,0.225-0.172,0.48-0.295,0.766c-0.121,0.287-0.24,0.564-0.359,0.836
			c-0.117,0.271-0.227,0.525-0.336,0.76c-0.109,0.232-0.186,0.406-0.23,0.52L300.846,80.398z"/>
		<path fill="#DF3E36" d="M328.986,81.016c0.148-0.309,0.307-0.613,0.469-0.912c0.164-0.301,0.334-0.6,0.514-0.9l6.266-10.775
			c0.186-0.318,0.422-0.514,0.701-0.59c0.283-0.074,0.553-0.111,0.816-0.111h3.596l-2.529,20.469h-4.018l1.434-11.914
			c0.027-0.252,0.072-0.531,0.135-0.836c0.061-0.305,0.127-0.621,0.201-0.947l-6.152,10.564c-0.188,0.318-0.432,0.555-0.73,0.709
			s-0.627,0.232-0.984,0.232h-0.617c-0.357,0-0.668-0.08-0.934-0.238c-0.268-0.16-0.453-0.395-0.557-0.703L323,74.469
			c-0.02,0.318-0.035,0.629-0.049,0.928s-0.035,0.57-0.063,0.814l-1.406,11.984h-4.047l2.529-20.455h3.484c0.197,0,0.369,0,0.52,0
			s0.283,0.021,0.4,0.063c0.117,0.043,0.219,0.111,0.303,0.205s0.154,0.229,0.211,0.406l3.598,10.787
			C328.676,79.793,328.844,80.398,328.986,81.016z"/>
	</g>
</g>
</svg>
