<?xml version="1.0" encoding="utf-8"?>
<!-- Generator: Adobe Illustrator 16.0.0, SVG Export Plug-In . SVG Version: 6.00 Build 0)  -->
<!DOCTYPE svg PUBLIC "-//W3C//DTD SVG 1.1//EN" "http://www.w3.org/Graphics/SVG/1.1/DTD/svg11.dtd">
<svg version="1.1" id="Layer_1" xmlns="http://www.w3.org/2000/svg" xmlns:xlink="http://www.w3.org/1999/xlink" x="0px" y="0px"
	 width="177.5px" height="86.17px" viewBox="0 0 177.5 86.17" enable-background="new 0 0 177.5 86.17" xml:space="preserve">
<g>
	<path fill="none" stroke="#FFFFFF" stroke-width="2" d="M166.708,39.441l0.433,2.883c0.979,6.054,2.595,12.109,1.499,17.443
		c-1.586,7.783-6.834,15.799-22.661,17.645c-17.875,1.037-32.552-13.693-57.575,1.473c-26.842-15.742-44.141,1.008-62.361-1.529
		C9.549,74.96,4.534,62.419,5.284,54.577c0.114-3.488,1.845-7.697,3.085-12.253l0.721-2.883c1.21-5.882,1.037-12.225-4.671-18.25
		C8.288,17.272,20.606,5.017,20.402,5.237C46.269,17.495,64.198,12.276,88.403,0c33.068,15.05,51.117,13.58,68.387,5.045
		l16.291,15.741C166.506,26.15,165.9,32.694,166.708,39.441z"/>
	<g>
		<path fill="#FFFFFF" d="M41.423,49.382l3.229-3.314c0.404-0.434,0.692-0.664,0.75-0.809c0.201-0.172,0.519-0.375,0.778-0.518
			c0.316-0.145,0.634-0.203,1.325-0.203h0.317l0.26-1.182h-5.392l-0.23,1.182c0.114,0,0.23,0,0.288,0
			c0.461,0,0.634,0.145,0.634,0.49c0,0.23-0.173,0.49-0.69,1.039l-1.528,1.729c-1.065-5.88-2.797-10.638-12.888-9.083
			c7.236,0.896,7.842,6.344,8.332,12.11l-3.488,3.604c-1.124,1.152-2.22,1.729-3.143,1.729h-0.347l-0.316,1.211h5.709l0.315-1.211
			h-0.259c-0.433,0-0.75-0.26-0.75-0.576c0-0.229,0.26-0.777,0.634-1.152l2.02-2.221c0.691,1.355-0.403,11.82,13.349,11.129
			C42.606,59.79,42.145,54.659,41.423,49.382z"/>
		<path fill="#FFFFFF" d="M162.601,48.026l1.066-4.611h-1.299l-0.229,0.259c-0.174,0.174-0.289,0.287-0.289,0.287
			c-0.115,0.115-0.26,0.23-0.404,0.23c-0.086,0-0.172-0.057-0.26-0.115c-0.058-0.027-0.144-0.086-0.346-0.172
			c-1.01-0.49-2.135-0.836-3.432-0.836c-3.719,0-6.516,2.163-6.516,5.104c0,1.559,0.807,2.682,2.797,3.775l1.24,0.693
			c1.325,0.719,1.844,1.324,1.844,2.104c0,1.008-0.836,1.758-1.93,1.758c-0.98,0-2.076-0.518-2.712-1.238
			c-0.69-0.691-0.979-1.527-1.124-2.912l-1.326,0.057l-1.152,4.988h1.297l0.461-0.434c0.289-0.346,0.375-0.373,0.605-0.373
			c0.086,0,0.23,0.027,0.403,0.143l0.462,0.23c1.01,0.49,2.162,0.779,3.486,0.779c3.721,0,6.894-2.479,6.894-5.479
			c0-1.557-0.837-2.855-2.337-3.721c-0.287-0.143-0.691-0.373-1.211-0.633c-0.547-0.289-0.863-0.463-0.895-0.52
			c-1.152-0.49-1.471-0.922-1.471-1.615c0-0.807,0.865-1.355,2.049-1.355c0.864,0,1.526,0.23,2.074,0.779
			c0.635,0.691,0.836,1.24,0.952,2.883L162.601,48.026z"/>
		<path fill="#FFFFFF" d="M148.041,52.265l-1.239-0.316c-0.75,1.412-1.153,2.02-1.787,2.652c-1.01,1.01-2.163,1.471-3.489,1.471
			c-0.691,0-0.979-0.145-0.979-0.576c0-0.145,0-0.434,0.087-0.75l1.124-4.035c0.229-0.059,0.317-0.059,0.403-0.059
			c0.777,0,1.152,0.605,1.152,1.758c0,0.146,0,0.26,0,0.549h1.327l1.527-5.709h-1.354c-0.49,1.441-1.27,2.162-2.363,2.162
			c-0.144,0-0.203,0-0.348-0.027l0.98-3.689c0.23-0.924,0.548-1.184,1.613-1.184c1.789,0,2.479,1.01,2.74,3.719h1.152l1.096-4.814
			H135.73l-0.318,1.24h0.578c0.836,0,1.297,0.318,1.297,0.895c0,0.201-0.088,0.662-0.23,1.211l-2.02,7.438
			c-0.461,1.789-0.689,2.021-2.104,2.021h-0.605l-0.316,1.182h14.475L148.041,52.265z"/>
		<path fill="#FFFFFF" d="M126.129,57.542l6.142-10.639c1.123-1.902,1.354-2.133,2.219-2.221l0.261-0.029l0.347-1.238h-4.699
			l-0.375,1.238h0.229c0.778,0,1.009,0.117,1.009,0.578c0,0.316-0.402,1.297-0.895,2.133l-2.709,4.613l-0.375-5.998
			c0-0.086-0.059-0.201-0.059-0.287c0-0.779,0.316-1.039,1.299-1.039h0.26l0.346-1.238h-8.419l-0.317,1.238h0.26
			c0.75,0,1.066,0.434,1.154,1.5l0.836,11.389H126.129z"/>
		<path fill="#FFFFFF" d="M105.859,57.397h10.295l0.373-1.182h-0.748c-0.809,0-1.24-0.289-1.24-0.924
			c0-0.172,0.115-0.604,0.23-1.182l1.988-7.439c0.49-1.787,0.721-2.02,2.163-2.02h0.69l0.318-1.239h-10.352l-0.316,1.239h0.691
			c0.865,0,1.298,0.318,1.298,0.895c0,0.23-0.087,0.664-0.231,1.213l-2.018,7.438c-0.463,1.789-0.75,2.02-2.135,2.02h-0.691
			L105.859,57.397z"/>
		<path fill="#FFFFFF" d="M107.389,48.144l1.095-4.73h-13.81l-1.298,4.73l1.24,0.086c0.836-2.076,2.248-3.402,3.719-3.488
			l-2.564,9.455c-0.463,1.789-0.693,2.021-2.104,2.021h-0.692l-0.346,1.182h10.35l0.375-1.182h-0.691
			c-0.922,0-1.326-0.289-1.326-0.926c0-0.229,0.087-0.633,0.23-1.182l2.508-9.369c0.088-0.059,0.232-0.059,0.318-0.059
			c1.211,0,1.758,1.066,1.758,3.229v0.316L107.389,48.144z"/>
		<path fill="#FFFFFF" d="M93.549,43.416h-4.986l-0.317,1.238h0.434c0.808,0,1.124,0.26,1.124,0.865c0,0.174-0.059,0.605-0.201,1.01
			l-1.903,7.15c-0.173,0.75-0.345,1.123-0.691,1.527c-0.549,0.691-1.471,1.096-2.363,1.096c-1.125,0-1.76-0.549-1.76-1.412
			c0-0.316,0.059-0.75,0.174-1.211l1.902-7.006c0.489-1.789,0.722-2.02,2.248-2.02h0.087l0.317-1.24h-9.86l-0.347,1.24h0.75
			c0.865,0,1.298,0.26,1.298,0.895c0,0.201-0.116,0.605-0.23,1.125l-1.385,5.074c-0.288,0.979-0.374,1.758-0.374,2.363
			c0,2.248,2.248,3.633,5.823,3.633c1.759,0,2.998-0.346,4.066-0.98c0.922-0.605,1.439-1.383,1.844-2.883l2.076-7.727
			c0.316-1.24,0.577-1.5,1.7-1.5h0.26L93.549,43.416z"/>
		<path fill="#FFFFFF" d="M73.888,52.265c-0.521,1.154-0.692,1.529-1.153,2.191c-0.837,1.154-1.932,1.816-3.027,1.816
			c-1.095,0-1.846-0.836-1.846-2.248c0-0.836,0.229-2.277,0.548-3.691c0.923-3.949,2.162-5.881,3.806-5.881
			c1.385,0,2.162,1.297,2.364,3.863l1.326-0.088l1.096-4.928h-1.384c-0.087,0.143-0.173,0.229-0.229,0.286
			c-0.261,0.375-0.347,0.461-0.577,0.461c-0.145,0-0.23-0.057-0.375-0.086l-0.403-0.199c-0.836-0.405-1.989-0.693-3.056-0.693
			c-4.671,0-8.853,4.007-8.853,8.361c0,3.604,2.854,6.313,6.574,6.313c1.383,0,2.854-0.432,3.863-1.211
			c0.547-0.375,1.009-0.865,1.412-1.5c0.52-0.689,0.721-1.123,1.152-2.219L73.888,52.265z"/>
		<path fill="#FFFFFF" d="M61.058,52.265l-1.24-0.316c-0.721,1.412-1.153,2.02-1.787,2.652c-1.009,1.01-2.162,1.471-3.488,1.471
			c-0.691,0-0.952-0.145-0.952-0.576c0-0.145,0-0.434,0.088-0.75l1.096-4.035c0.229-0.059,0.315-0.059,0.402-0.059
			c0.778,0,1.153,0.605,1.153,1.758c0,0.146,0,0.26,0,0.549h1.326l1.528-5.709h-1.326c-0.521,1.441-1.298,2.162-2.395,2.162
			c-0.144,0-0.173,0-0.315-0.027l0.951-3.689c0.229-0.924,0.548-1.184,1.613-1.184c1.788,0,2.479,1.01,2.769,3.719h1.125
			l1.124-4.814H48.746l-0.315,1.24h0.604c0.836,0,1.27,0.318,1.27,0.895c0,0.201-0.088,0.662-0.23,1.211l-2.019,7.438
			c-0.462,1.789-0.692,2.021-2.104,2.021h-0.605l-0.317,1.182h14.474L61.058,52.265z"/>
		<path fill="#FFFFFF" d="M29.862,52.265l-1.24-0.316c-0.721,1.412-1.124,2.02-1.787,2.652c-1.009,1.01-2.162,1.471-3.487,1.471
			c-0.692,0-0.952-0.145-0.952-0.576c0-0.145,0-0.434,0.087-0.75l1.096-4.035c0.23-0.059,0.317-0.059,0.433-0.059
			c0.778,0,1.124,0.605,1.124,1.758c0,0.146,0,0.26,0,0.549h1.355l1.499-5.709h-1.326c-0.52,1.441-1.298,2.162-2.393,2.162
			c-0.146,0-0.174,0-0.317-0.027l0.951-3.689c0.229-0.924,0.577-1.184,1.614-1.184c1.788,0,2.479,1.01,2.768,3.719h1.153
			l1.096-4.814H17.551l-0.316,1.238h0.604c0.836,0,1.298,0.318,1.298,0.896c0,0.199-0.115,0.662-0.23,1.211l-2.019,7.438
			c-0.462,1.789-0.691,2.02-2.134,2.02h-0.576l-0.347,1.182h14.475L29.862,52.265z"/>
	</g>
	<g>
		<path fill="#FFFFFF" d="M130.929,30.066l4.093-5.017c0.778-1.01,1.386-1.413,2.075-1.413h0.261l0.317-1.239h-5.189l-0.316,1.239
			h0.287c0.809,0,1.096,0.145,1.096,0.604c0,0.173-0.172,0.577-0.402,0.895l-0.605,0.837l-2.076,2.623l-0.691-2.335
			c-0.172-0.548-0.316-1.355-0.316-1.615c0-0.691,0.403-1.009,1.241-1.009h0.315l0.375-1.239h-9.082l-0.346,1.239h0.346
			c0.865,0,1.184,0.26,1.471,1.24l1.557,5.189l-0.836,3.113c-0.461,1.788-0.721,2.019-2.162,2.019h-0.721l-0.316,1.211h10.149
			l0.315-1.211h-0.605c-0.865,0-1.298-0.26-1.298-0.923c0-0.173,0.115-0.635,0.229-1.182L130.929,30.066z"/>
		<path fill="#FFFFFF" d="M120.261,27.125l1.125-4.729h-13.84l-1.27,4.729l1.24,0.086c0.807-2.076,2.248-3.402,3.719-3.488
			l-2.596,9.456c-0.461,1.788-0.688,2.019-2.104,2.019h-0.691l-0.316,1.211h10.352l0.346-1.211h-0.691
			c-0.924,0-1.326-0.26-1.326-0.923c0-0.23,0.086-0.635,0.229-1.182l2.536-9.37c0.088-0.058,0.232-0.058,0.318-0.058
			c1.182,0,1.729,1.066,1.729,3.229v0.317L120.261,27.125z"/>
		<path fill="#FFFFFF" d="M105.296,31.162L104,30.989c-1.183,2.797-2.709,4.122-4.729,4.122c-0.549,0-0.809-0.144-0.809-0.461
			c0-0.146,0.029-0.317,0.088-0.548l2.307-8.447c0.434-1.788,0.662-2.019,2.104-2.019h0.721L104,22.397H93.623l-0.318,1.249
			l0.693-0.01c0.863,0,1.297,0.316,1.297,0.923c0,0.23-0.086,0.635-0.23,1.182l-1.987,7.438c-0.491,1.788-0.724,2.019-2.163,2.019
			h-0.692l-0.346,1.211h13.81L105.296,31.162z"/>
		<path fill="#FFFFFF" d="M73.412,31.248l-1.24-0.317c-0.749,1.442-1.152,2.019-1.787,2.682c-1.009,1.01-2.162,1.471-3.518,1.471
			c-0.663,0-0.951-0.145-0.951-0.605c0-0.145,0-0.434,0.087-0.75l1.095-4.036c0.231-0.029,0.347-0.029,0.433-0.029
			c0.778,0,1.153,0.577,1.153,1.73c0,0.145,0,0.288,0,0.548h1.326l1.499-5.68h-1.325c-0.491,1.412-1.27,2.162-2.394,2.162
			c-0.115,0-0.173,0-0.317-0.059l0.98-3.689c0.229-0.895,0.548-1.183,1.586-1.183c1.815,0,2.479,1.01,2.768,3.719h1.153l1.096-4.806
			H61.1l-0.316,1.23h0.575c0.837,0,1.299,0.316,1.299,0.923c0,0.173-0.088,0.635-0.23,1.182l-2.019,7.438
			c-0.462,1.788-0.692,2.019-2.104,2.019H57.7l-0.317,1.211h14.474L73.412,31.248z"/>
		<path fill="#FFFFFF" d="M89.788,35.198c-1.153,0-1.441-0.26-1.528-1.558L87.28,22.195l-3.949,0.009l-6.719,10.659
			c-0.721,1.183-1.238,1.7-1.961,2.075c-0.374,0.173-0.604,0.23-1.557,0.26l-0.346,1.211h6.313l0.259-1.211h-0.259
			c-1.125,0-1.471-0.173-1.471-0.692c0-0.315,0.173-0.807,0.576-1.411l0.604-0.924h3.633l0.145,1.76c0,0.029,0,0.115,0,0.229
			c0,0.778-0.374,1.038-1.441,1.038h-0.345l-0.317,1.211h9.283l0.317-1.211H89.788z M79.551,30.902l2.394-3.863l0.317,3.863H79.551z
			"/>
		<path fill="#FFFFFF" d="M57.178,32.545c-0.259,0.777-0.576,1.152-0.864,1.152c-0.173,0-0.229-0.087-0.375-0.52
			c-0.173-0.808-0.316-1.27-0.346-1.47c-0.146-0.548-0.433-1.038-0.75-1.413c-0.634-0.75-1.528-1.01-3.085-1.066
			c1.066-0.087,1.441-0.087,2.307-0.26c0.778-0.146,1.385-0.346,1.933-0.549c1.096-0.575,1.874-1.759,1.874-2.911
			c0-1.183-0.692-2.162-1.846-2.652c-0.895-0.375-1.586-0.461-3.662-0.452h-8.821l-0.26,1.23h0.489c0.836,0,1.298,0.316,1.298,0.923
			c0,0.173-0.087,0.635-0.229,1.182l-2.02,7.438c-0.461,1.788-0.691,2.019-2.134,2.019H40.14l-0.316,1.211h9.657l0.347-1.211H49.51
			c-0.864,0-1.269-0.26-1.269-0.923c0-0.173,0.087-0.635,0.229-1.182l0.865-3.258c0.173,0,0.375-0.058,0.49-0.058
			c0.519,0,0.75,0.316,0.75,0.894c0,0.173,0,0.317-0.146,1.182c-0.145,0.605-0.173,1.096-0.173,1.558
			c0,1.902,1.471,3.315,3.488,3.315c2.075,0,3.574-1.298,4.498-3.863L57.178,32.545z M49.971,28.452c-0.087,0-0.174,0-0.26,0
			l1.096-4.095c0.173-0.634,0.403-0.864,0.865-0.864c0.548,0,0.836,0.374,0.836,1.152c0,0.865-0.23,1.846-0.605,2.652
			C51.5,28.192,51.039,28.452,49.971,28.452z"/>
	</g>
	<g>
		<path fill="#FFFFFF" d="M66.684,62.521h-1.346v-0.945h3.829v0.945h-1.36v4.037h-1.123V62.521z"/>
		<path fill="#FFFFFF" d="M70.89,61.575v2.861c0,0.865,0.333,1.301,0.902,1.301c0.592,0,0.917-0.414,0.917-1.301v-2.861h1.123v2.795
			c0,1.537-0.776,2.271-2.077,2.271c-1.258,0-1.988-0.703-1.988-2.285v-2.781H70.89L70.89,61.575z"/>
		<path fill="#FFFFFF" d="M78.462,66.425c-0.2,0.096-0.673,0.215-1.271,0.215c-1.723,0-2.609-1.08-2.609-2.506
			c0-1.701,1.213-2.641,2.721-2.641c0.584,0,1.027,0.119,1.228,0.223l-0.235,0.887c-0.223-0.098-0.54-0.186-0.946-0.186
			c-0.888,0-1.583,0.539-1.583,1.656c0,0.998,0.592,1.627,1.59,1.627c0.349,0,0.718-0.066,0.946-0.164L78.462,66.425z"/>
		<path fill="#FFFFFF" d="M79.246,65.405c0.296,0.154,0.77,0.311,1.25,0.311c0.517,0,0.791-0.215,0.791-0.547
			c0-0.305-0.236-0.486-0.836-0.695c-0.829-0.295-1.375-0.754-1.375-1.484c0-0.852,0.718-1.494,1.886-1.494
			c0.568,0,0.976,0.111,1.271,0.252l-0.252,0.9c-0.19-0.096-0.554-0.234-1.035-0.234c-0.486,0-0.725,0.229-0.725,0.479
			c0,0.316,0.274,0.459,0.925,0.711c0.88,0.324,1.286,0.783,1.286,1.492c0,0.836-0.636,1.547-2.003,1.547
			c-0.569,0-1.132-0.156-1.412-0.313L79.246,65.405z"/>
		<path fill="#FFFFFF" d="M85.315,66.64c-1.472,0-2.344-1.117-2.344-2.537c0-1.492,0.961-2.609,2.425-2.609
			c1.53,0,2.366,1.146,2.366,2.521c0,1.641-0.983,2.625-2.44,2.625H85.315z M85.368,65.745c0.762,0,1.196-0.717,1.196-1.691
			c0-0.896-0.421-1.664-1.196-1.664c-0.776,0-1.214,0.754-1.214,1.686c0,0.939,0.451,1.672,1.205,1.672h0.009V65.745z"/>
		<path fill="#FFFFFF" d="M88.502,66.558v-4.982h1.314l1.035,1.826c0.297,0.523,0.586,1.146,0.813,1.707h0.014
			c-0.064-0.658-0.087-1.33-0.087-2.084v-1.449h1.035v4.982h-1.184l-1.065-1.922c-0.294-0.539-0.628-1.176-0.864-1.76h-0.029
			c0.037,0.666,0.053,1.367,0.053,2.182v1.5H88.502z"/>
		<path fill="#FFFFFF" d="M98.061,64.45h-1.834v1.186h2.049v0.924h-3.172v-4.984h3.068v0.926h-1.945v1.035h1.834V64.45z"/>
		<path fill="#FFFFFF" d="M99.053,61.575h1.123v4.037h1.981v0.945h-3.104V61.575z"/>
		<path fill="#FFFFFF" d="M103.954,61.575v4.982h-1.124v-4.982H103.954z"/>
		<path fill="#FFFFFF" d="M105.899,62.521h-1.346v-0.945h3.827v0.945h-1.358v4.037h-1.123V62.521z"/>
		<path fill="#FFFFFF" d="M111.945,64.45h-1.833v1.186h2.049v0.924h-3.172v-4.984h3.068v0.926h-1.945v1.035h1.833V64.45z"/>
	</g>
</g>
</svg>
