<?xml version="1.0" encoding="utf-8"?>
<!-- Generator: Adobe Illustrator 16.0.0, SVG Export Plug-In . SVG Version: 6.00 Build 0)  -->
<!DOCTYPE svg PUBLIC "-//W3C//DTD SVG 1.1//EN" "http://www.w3.org/Graphics/SVG/1.1/DTD/svg11.dtd">
<svg version="1.1" id="inhouseLoader" xmlns="http://www.w3.org/2000/svg" xmlns:xlink="http://www.w3.org/1999/xlink" x="0px"
	 y="0px" width="360.5px" height="250px" viewBox="0 0 360.5 250" enable-background="new 0 0 360.5 250" xml:space="preserve">
<g>
	<g>
		<polygon fill="#DDDDDD" points="180.239,17.994 249.412,57.936 249.412,135.105 222.775,119.731 222.775,78.354 231.443,78.354 
			180.239,48.815 129.063,78.354 137.7,78.354 137.7,119.731 111.063,135.105 111.063,57.936 		"/>
		<polygon fill="#DDDDDD" points="249.438,146.061 180.251,107.099 111.063,146.061 		"/>
	</g>
	<rect x="110.2" y="169.086" fill="#DDDDDD" enable-background="new    " width="140.1" height="4.28"/>
	<g>
		<path fill="#DDDDDD" d="M76.305,207.348h-2.951l-1.656-6.42c-0.062-0.23-0.166-0.701-0.313-1.416
			c-0.147-0.718-0.233-1.197-0.255-1.443c-0.033,0.302-0.117,0.785-0.251,1.449c-0.133,0.666-0.237,1.142-0.309,1.426l-1.647,6.402
			H65.98l-3.119-12.222h2.551l1.563,6.671c0.273,1.23,0.471,2.301,0.593,3.202c0.034-0.317,0.109-0.81,0.23-1.478
			c0.12-0.666,0.233-1.184,0.339-1.552l1.78-6.847h2.449l1.781,6.847c0.078,0.306,0.175,0.774,0.292,1.404
			c0.118,0.632,0.207,1.171,0.268,1.624c0.056-0.438,0.145-0.979,0.268-1.626s0.233-1.173,0.335-1.576l1.554-6.671h2.55
			L76.305,207.348z"/>
		<path fill="#DDDDDD" d="M84.982,207.516c-1.505,0-2.68-0.414-3.528-1.246c-0.847-0.83-1.27-2.006-1.27-3.527
			c0-1.566,0.392-2.777,1.174-3.631c0.783-0.854,1.866-1.283,3.248-1.283c1.321,0,2.349,0.375,3.085,1.127
			c0.736,0.753,1.104,1.793,1.104,3.12v1.235h-6.027c0.028,0.726,0.242,1.291,0.644,1.696c0.402,0.406,0.964,0.61,1.689,0.61
			c0.563,0,1.095-0.059,1.597-0.176c0.501-0.117,1.025-0.303,1.571-0.561v1.975c-0.446,0.223-0.922,0.39-1.429,0.498
			C86.332,207.461,85.712,207.516,84.982,207.516z M84.623,199.641c-0.54,0-0.964,0.17-1.271,0.514
			c-0.306,0.345-0.482,0.828-0.526,1.459h3.578c-0.011-0.631-0.175-1.116-0.493-1.459C85.593,199.813,85.163,199.641,84.623,199.641
			z"/>
		<path fill="#DDDDDD" d="M102.998,207.348l-0.719-3.269l-0.97-4.13h-0.058l-1.705,7.398h-2.742L94.146,198h2.542l1.079,4.139
			c0.173,0.74,0.348,1.766,0.526,3.068h0.051c0.022-0.422,0.12-1.094,0.293-2.016l0.133-0.711l1.154-4.48h2.809l1.095,4.48
			c0.022,0.123,0.058,0.305,0.104,0.543c0.047,0.24,0.093,0.496,0.138,0.768c0.045,0.271,0.085,0.535,0.122,0.795
			s0.057,0.469,0.063,0.624h0.05c0.051-0.401,0.14-0.951,0.268-1.651c0.129-0.699,0.22-1.17,0.276-1.416l1.121-4.139h2.5
			l-2.692,9.346h-2.777v-0.002H102.998z"/>
		<path fill="#DDDDDD" d="M109.86,195.585c0-0.831,0.463-1.245,1.388-1.245s1.388,0.414,1.388,1.245
			c0,0.396-0.116,0.704-0.347,0.924s-0.578,0.33-1.041,0.33C110.324,196.839,109.86,196.421,109.86,195.585z M112.52,207.348h-2.55
			v-9.347h2.55V207.348z"/>
		<path fill="#DDDDDD" d="M117.744,207.348h-2.55V194.34h2.55V207.348L117.744,207.348z"/>
		<path fill="#DDDDDD" d="M122.969,207.348h-2.55V194.34h2.55V207.348z"/>
		<path fill="#DDDDDD" d="M135.291,197.826c1.104,0,1.968,0.43,2.591,1.291s0.937,2.041,0.937,3.541
			c0,1.543-0.322,2.738-0.965,3.586s-1.521,1.271-2.629,1.271c-1.098,0-1.959-0.399-2.583-1.195h-0.175l-0.426,1.027h-1.948V194.34
			h2.55v3.026c0,0.385-0.033,1-0.1,1.848h0.1C133.238,198.289,134.121,197.826,135.291,197.826z M134.472,199.865
			c-0.63,0-1.089,0.193-1.379,0.58c-0.289,0.389-0.44,1.027-0.451,1.92v0.275c0,1.004,0.149,1.723,0.447,2.156
			c0.298,0.434,0.77,0.652,1.417,0.652c0.523,0,0.941-0.239,1.25-0.725c0.309-0.481,0.464-1.183,0.464-2.103
			c0-0.919-0.156-1.608-0.468-2.067C135.438,200.098,135.012,199.865,134.472,199.865z"/>
		<path fill="#DDDDDD" d="M145.156,207.516c-1.505,0-2.68-0.414-3.528-1.246c-0.847-0.83-1.271-2.006-1.271-3.527
			c0-1.566,0.392-2.777,1.175-3.631c0.783-0.854,1.865-1.283,3.248-1.283c1.321,0,2.349,0.375,3.085,1.127
			c0.736,0.753,1.104,1.793,1.104,3.12v1.235h-6.027c0.028,0.726,0.242,1.291,0.644,1.696c0.402,0.406,0.965,0.61,1.689,0.61
			c0.563,0,1.095-0.059,1.596-0.176c0.502-0.117,1.025-0.303,1.572-0.561v1.975c-0.445,0.223-0.922,0.39-1.43,0.498
			C146.506,207.461,145.886,207.516,145.156,207.516z M144.797,199.641c-0.54,0-0.965,0.17-1.271,0.514
			c-0.306,0.345-0.482,0.828-0.526,1.459h3.578c-0.012-0.631-0.175-1.116-0.493-1.459
			C145.767,199.813,145.337,199.641,144.797,199.641z"/>
		<path fill="#DDDDDD" d="M163.172,207.348l-0.719-3.269l-0.97-4.13h-0.059l-1.705,7.398h-2.742L154.319,198h2.542l1.079,4.139
			c0.173,0.74,0.348,1.766,0.526,3.068h0.051c0.021-0.422,0.121-1.094,0.293-2.016l0.133-0.711l1.154-4.48h2.809l1.096,4.48
			c0.021,0.123,0.056,0.305,0.104,0.543c0.047,0.24,0.092,0.496,0.137,0.768c0.046,0.271,0.086,0.535,0.122,0.795
			c0.036,0.26,0.058,0.469,0.063,0.624h0.051c0.05-0.401,0.139-0.951,0.268-1.651c0.13-0.699,0.221-1.17,0.275-1.416l1.121-4.139
			h2.499l-2.691,9.346h-2.777v-0.002H163.172z"/>
		<path fill="#DDDDDD" d="M170.035,195.585c0-0.831,0.463-1.245,1.388-1.245c0.924,0,1.388,0.414,1.388,1.245
			c0,0.396-0.116,0.704-0.348,0.924c-0.23,0.22-0.577,0.33-1.04,0.33C170.498,196.839,170.035,196.421,170.035,195.585z
			 M172.693,207.348h-2.55v-9.347h2.55V207.348z"/>
		<path fill="#DDDDDD" d="M179.306,205.482c0.446,0,0.981-0.096,1.605-0.293v1.898c-0.637,0.284-1.416,0.426-2.341,0.426
			c-1.02,0-1.763-0.257-2.229-0.771c-0.465-0.515-0.697-1.29-0.697-2.321v-4.506h-1.221v-1.079l1.404-0.853l0.735-1.973h1.631V198
			h2.616v1.915h-2.616v4.506c0,0.362,0.102,0.63,0.305,0.804C178.701,205.396,178.972,205.482,179.306,205.482z"/>
		<path fill="#DDDDDD" d="M191.428,207.348h-2.55v-5.459c0-1.35-0.501-2.022-1.505-2.022c-0.714,0-1.23,0.243-1.546,0.728
			c-0.318,0.485-0.479,1.271-0.479,2.357v4.396h-2.55V194.34h2.55v2.65c0,0.205-0.019,0.689-0.057,1.453l-0.059,0.754h0.134
			c0.567-0.915,1.472-1.371,2.708-1.371c1.098,0,1.932,0.296,2.5,0.886c0.568,0.589,0.853,1.438,0.853,2.541L191.428,207.348
			L191.428,207.348z"/>
		<path fill="#DDDDDD" d="M197.163,198.001h2.792l1.766,5.259c0.15,0.456,0.254,0.998,0.309,1.622h0.052
			c0.062-0.573,0.181-1.114,0.358-1.622l1.73-5.259h2.732l-3.953,10.54c-0.363,0.977-0.879,1.706-1.553,2.191
			c-0.672,0.484-1.455,0.729-2.353,0.729c-0.44,0-0.874-0.047-1.297-0.143v-2.022c0.305,0.071,0.642,0.108,1.003,0.108
			c0.451,0,0.848-0.139,1.184-0.412c0.338-0.276,0.602-0.695,0.791-1.252l0.149-0.458L197.163,198.001z"/>
		<path fill="#DDDDDD" d="M216.732,202.658c0,1.521-0.4,2.712-1.203,3.568c-0.803,0.857-1.92,1.287-3.354,1.287
			c-0.896,0-1.688-0.195-2.373-0.588c-0.685-0.394-1.213-0.958-1.58-1.693s-0.553-1.594-0.553-2.575
			c0-1.526,0.398-2.714,1.195-3.562c0.796-0.848,1.917-1.271,3.361-1.271c0.896,0,1.688,0.196,2.373,0.586
			c0.684,0.39,1.211,0.948,1.58,1.681C216.549,200.823,216.732,201.677,216.732,202.658z M210.271,202.658
			c0,0.924,0.15,1.625,0.453,2.098c0.303,0.475,0.801,0.711,1.483,0.711c0.681,0,1.169-0.236,1.467-0.705
			c0.302-0.472,0.446-1.173,0.446-2.104c0-0.926-0.15-1.619-0.45-2.082c-0.299-0.463-0.794-0.694-1.479-0.694
			c-0.681,0-1.17,0.229-1.473,0.688C210.42,201.031,210.271,201.727,210.271,202.658z"/>
		<path fill="#DDDDDD" d="M225.461,207.348l-0.341-1.195h-0.134c-0.271,0.436-0.661,0.771-1.16,1.009
			c-0.502,0.235-1.074,0.354-1.715,0.354c-1.098,0-1.926-0.295-2.482-0.882c-0.557-0.588-0.836-1.435-0.836-2.538v-6.095h2.55v5.459
			c0,0.674,0.12,1.183,0.359,1.519s0.622,0.506,1.146,0.506c0.715,0,1.229-0.236,1.547-0.715c0.317-0.478,0.479-1.266,0.479-2.371
			v-4.396h2.55v9.348h-1.962V207.348z"/>
		<path fill="#DDDDDD" d="M241.061,204.572c0,0.957-0.332,1.688-0.998,2.189s-1.664,0.752-2.989,0.752
			c-0.681,0-1.259-0.046-1.738-0.137s-0.928-0.229-1.346-0.406v-2.105c0.475,0.222,1.009,0.408,1.602,0.56
			c0.593,0.149,1.115,0.226,1.566,0.226c0.925,0,1.388-0.268,1.388-0.803c0-0.199-0.063-0.363-0.184-0.488
			c-0.122-0.125-0.336-0.269-0.637-0.426c-0.3-0.158-0.701-0.345-1.203-0.557c-0.719-0.301-1.248-0.58-1.584-0.836
			c-0.338-0.256-0.582-0.551-0.734-0.882s-0.23-0.74-0.23-1.226c0-0.83,0.321-1.474,0.965-1.928
			c0.645-0.454,1.557-0.681,2.738-0.681c1.125,0,2.221,0.245,3.285,0.735l-0.77,1.838c-0.469-0.199-0.905-0.366-1.313-0.494
			c-0.404-0.127-0.822-0.193-1.244-0.193c-0.754,0-1.129,0.204-1.129,0.611c0,0.229,0.122,0.425,0.364,0.593
			c0.241,0.167,0.772,0.414,1.592,0.743c0.729,0.296,1.267,0.572,1.604,0.828c0.34,0.256,0.59,0.554,0.752,0.886
			C240.98,203.709,241.061,204.109,241.061,204.572z"/>
		<path fill="#DDDDDD" d="M251.678,207.348h-2.55v-5.459c0-1.35-0.502-2.022-1.505-2.022c-0.714,0-1.229,0.243-1.547,0.728
			c-0.317,0.485-0.479,1.271-0.479,2.357v4.396h-2.55V194.34h2.55v2.65c0,0.205-0.019,0.689-0.058,1.453l-0.06,0.754h0.135
			c0.568-0.915,1.472-1.371,2.709-1.371c1.099,0,1.931,0.296,2.498,0.886c0.57,0.589,0.854,1.438,0.854,2.541L251.678,207.348
			L251.678,207.348z"/>
		<path fill="#DDDDDD" d="M262.796,202.658c0,1.521-0.401,2.712-1.204,3.568c-0.802,0.857-1.919,1.287-3.352,1.287
			c-0.896,0-1.689-0.195-2.373-0.588c-0.684-0.394-1.213-0.958-1.581-1.693s-0.552-1.594-0.552-2.575
			c0-1.526,0.396-2.714,1.195-3.562c0.795-0.848,1.916-1.271,3.359-1.271c0.896,0,1.688,0.196,2.374,0.586
			c0.685,0.39,1.212,0.948,1.58,1.681C262.611,200.823,262.796,201.677,262.796,202.658z M256.334,202.658
			c0,0.924,0.152,1.625,0.455,2.098c0.304,0.475,0.799,0.711,1.484,0.711c0.679,0,1.166-0.236,1.466-0.705
			c0.3-0.472,0.446-1.173,0.446-2.104c0-0.926-0.15-1.619-0.449-2.082c-0.303-0.463-0.797-0.694-1.48-0.694
			c-0.68,0-1.171,0.229-1.473,0.688C256.482,201.031,256.334,201.727,256.334,202.658z"/>
		<path fill="#DDDDDD" d="M270.119,197.826c0.344,0,0.631,0.023,0.861,0.074l-0.192,2.392c-0.207-0.056-0.458-0.084-0.754-0.084
			c-0.813,0-1.446,0.209-1.902,0.626c-0.454,0.418-0.681,1.003-0.681,1.757v4.757H264.9v-9.347h1.932l0.375,1.572h0.125
			c0.289-0.523,0.682-0.946,1.174-1.267C268.999,197.984,269.541,197.826,270.119,197.826z"/>
		<path fill="#DDDDDD" d="M276.615,205.482c0.445,0,0.98-0.096,1.604-0.293v1.898c-0.635,0.284-1.414,0.426-2.341,0.426
			c-1.021,0-1.762-0.257-2.229-0.771c-0.465-0.517-0.696-1.29-0.696-2.321v-4.506h-1.222v-1.079l1.404-0.853l0.736-1.973h1.63V198
			h2.616v1.915h-2.616v4.506c0,0.362,0.103,0.63,0.304,0.804C276.01,205.396,276.279,205.482,276.615,205.482z"/>
		<path fill="#DDDDDD" d="M282.659,207.348h-2.55V194.34h2.55V207.348z"/>
		<path fill="#DDDDDD" d="M283.996,198.001h2.793l1.764,5.259c0.151,0.456,0.254,0.998,0.311,1.622h0.05
			c0.062-0.573,0.185-1.114,0.358-1.622l1.73-5.259h2.732l-3.953,10.54c-0.362,0.977-0.879,1.706-1.553,2.191
			c-0.672,0.484-1.455,0.729-2.352,0.729c-0.441,0-0.874-0.047-1.298-0.143v-2.022c0.306,0.071,0.642,0.108,1.003,0.108
			c0.452,0,0.848-0.139,1.184-0.412c0.338-0.276,0.601-0.695,0.791-1.252l0.15-0.458L283.996,198.001z"/>
		<path fill="#DDDDDD" d="M294.714,206.152c0-0.469,0.125-0.823,0.376-1.063c0.251-0.238,0.616-0.359,1.096-0.359
			c0.461,0,0.819,0.123,1.072,0.367c0.256,0.246,0.381,0.598,0.381,1.055c0,0.438-0.129,0.787-0.384,1.041
			c-0.258,0.252-0.614,0.38-1.069,0.38c-0.47,0-0.832-0.124-1.088-0.373C294.841,206.953,294.714,206.604,294.714,206.152z"/>
		<path fill="#DDDDDD" d="M51.835,227.893h-2.951l-1.656-6.42c-0.062-0.229-0.166-0.701-0.313-1.416
			c-0.147-0.718-0.233-1.197-0.255-1.443c-0.033,0.302-0.117,0.785-0.251,1.449c-0.133,0.666-0.237,1.142-0.309,1.426l-1.647,6.402
			h-2.942l-3.119-12.222h2.55l1.563,6.671c0.273,1.23,0.471,2.301,0.593,3.202c0.034-0.317,0.109-0.81,0.23-1.478
			c0.12-0.666,0.233-1.184,0.339-1.551l1.78-6.848h2.449l1.781,6.848c0.078,0.307,0.175,0.773,0.292,1.404
			c0.118,0.631,0.207,1.17,0.268,1.623c0.056-0.438,0.145-0.979,0.268-1.626s0.233-1.173,0.335-1.576l1.554-6.671h2.55
			L51.835,227.893z"/>
		<path fill="#DDDDDD" d="M60.513,228.061c-1.505,0-2.68-0.412-3.528-1.246c-0.847-0.83-1.27-2.006-1.27-3.527
			c0-1.566,0.392-2.775,1.174-3.63c0.783-0.855,1.866-1.283,3.248-1.283c1.321,0,2.349,0.374,3.085,1.127
			c0.736,0.752,1.104,1.792,1.104,3.119v1.235h-6.027c0.028,0.727,0.242,1.291,0.644,1.696c0.402,0.406,0.964,0.61,1.689,0.61
			c0.563,0,1.095-0.059,1.597-0.176c0.501-0.116,1.025-0.303,1.571-0.561v1.975c-0.446,0.224-0.922,0.39-1.429,0.498
			C61.864,228.006,61.243,228.061,60.513,228.061z M60.153,220.186c-0.54,0-0.964,0.17-1.271,0.515
			c-0.306,0.344-0.482,0.827-0.526,1.459h3.578c-0.011-0.632-0.175-1.117-0.493-1.459C61.124,220.357,60.693,220.186,60.153,220.186
			z"/>
		<path fill="#DDDDDD" d="M68.454,215.671l0.118,0.185c-0.279,1.099-0.769,2.433-1.472,4.004h-1.831
			c0.384-1.649,0.664-3.047,0.836-4.188L68.454,215.671L68.454,215.671z"/>
		<path fill="#DDDDDD" d="M75.327,218.371c0.346,0,0.633,0.025,0.861,0.074l-0.193,2.392c-0.206-0.055-0.457-0.083-0.752-0.083
			c-0.814,0-1.447,0.209-1.902,0.625c-0.454,0.418-0.681,1.003-0.681,1.758v4.756h-2.55v-9.346h1.931l0.376,1.571h0.125
			c0.289-0.522,0.681-0.946,1.174-1.267C74.208,218.531,74.746,218.371,75.327,218.371z"/>
		<path fill="#DDDDDD" d="M82.114,228.061c-1.505,0-2.68-0.412-3.527-1.246c-0.848-0.83-1.271-2.006-1.271-3.527
			c0-1.566,0.392-2.775,1.175-3.63c0.782-0.855,1.865-1.283,3.248-1.283c1.321,0,2.349,0.374,3.085,1.127
			c0.736,0.752,1.104,1.792,1.104,3.119v1.235H79.9c0.029,0.727,0.243,1.291,0.644,1.696c0.401,0.406,0.964,0.61,1.689,0.61
			c0.563,0,1.095-0.059,1.596-0.176c0.502-0.116,1.026-0.303,1.572-0.561v1.975c-0.446,0.224-0.923,0.39-1.43,0.498
			C83.464,228.007,82.844,228.061,82.114,228.061z M81.755,220.186c-0.54,0-0.964,0.17-1.271,0.515
			c-0.306,0.344-0.482,0.827-0.527,1.459h3.579c-0.011-0.632-0.175-1.117-0.493-1.459C82.726,220.357,82.296,220.186,81.755,220.186
			z"/>
		<path fill="#DDDDDD" d="M100.582,218.547v1.295l-1.463,0.377c0.268,0.416,0.401,0.887,0.401,1.404c0,1.003-0.35,1.785-1.049,2.344
			c-0.699,0.561-1.671,0.84-2.913,0.84l-0.46-0.022l-0.375-0.042c-0.262,0.199-0.393,0.421-0.393,0.667
			c0,0.368,0.468,0.554,1.405,0.554h1.588c1.026,0,1.807,0.221,2.345,0.659s0.806,1.088,0.806,1.94c0,1.09-0.456,1.939-1.367,2.541
			c-0.912,0.603-2.22,0.902-3.925,0.902c-1.304,0-2.3-0.229-2.989-0.682c-0.688-0.454-1.032-1.092-1.032-1.91
			c0-0.563,0.175-1.033,0.526-1.411c0.351-0.379,0.867-0.649,1.547-0.812c-0.262-0.111-0.491-0.293-0.686-0.549
			c-0.195-0.254-0.293-0.521-0.293-0.806c0-0.356,0.104-0.655,0.309-0.892c0.206-0.233,0.504-0.469,0.895-0.695
			c-0.49-0.212-0.879-0.553-1.166-1.02s-0.43-1.021-0.43-1.655c0-1.021,0.331-1.81,0.995-2.367s1.61-0.837,2.842-0.837
			c0.262,0,0.573,0.021,0.932,0.07c0.36,0.049,0.589,0.084,0.69,0.104L100.582,218.547L100.582,218.547z M93.367,229.214
			c0,0.351,0.168,0.627,0.506,0.827c0.337,0.201,0.81,0.301,1.417,0.301c0.915,0,1.63-0.124,2.149-0.374s0.777-0.594,0.777-1.028
			c0-0.352-0.153-0.592-0.46-0.729c-0.306-0.134-0.78-0.199-1.421-0.199h-1.321c-0.468,0-0.86,0.11-1.174,0.331
			C93.524,228.563,93.367,228.852,93.367,229.214z M94.295,221.605c0,0.508,0.116,0.91,0.347,1.203
			c0.231,0.297,0.584,0.443,1.057,0.443c0.479,0,0.831-0.146,1.053-0.443c0.223-0.295,0.334-0.695,0.334-1.203
			c0-1.123-0.463-1.688-1.388-1.688C94.764,219.918,94.295,220.48,94.295,221.605z"/>
		<path fill="#DDDDDD" d="M108.055,227.893l-0.493-1.271h-0.067c-0.429,0.54-0.87,0.915-1.325,1.124
			c-0.454,0.209-1.046,0.313-1.776,0.313c-0.897,0-1.604-0.256-2.12-0.768c-0.516-0.516-0.773-1.242-0.773-2.191
			c0-0.99,0.347-1.725,1.042-2.192c0.694-0.472,1.74-0.729,3.139-0.782l1.622-0.051v-0.409c0-0.946-0.484-1.422-1.455-1.422
			c-0.748,0-1.625,0.228-2.633,0.678l-0.845-1.723c1.076-0.563,2.269-0.843,3.579-0.843c1.254,0,2.215,0.271,2.884,0.817
			c0.668,0.548,1.003,1.376,1.003,2.491v6.227L108.055,227.893L108.055,227.893L108.055,227.893z M107.303,223.563l-0.986,0.033
			c-0.741,0.021-1.292,0.155-1.655,0.401c-0.363,0.246-0.544,0.62-0.544,1.122c0,0.719,0.413,1.078,1.237,1.078
			c0.591,0,1.063-0.17,1.417-0.51c0.354-0.342,0.531-0.793,0.531-1.354V223.563L107.303,223.563z"/>
		<path fill="#DDDDDD" d="M116.398,226.027c0.446,0,0.981-0.096,1.605-0.291v1.896c-0.635,0.284-1.416,0.426-2.341,0.426
			c-1.02,0-1.762-0.257-2.228-0.771c-0.466-0.517-0.698-1.29-0.698-2.321v-4.506h-1.221v-1.078l1.405-0.854l0.735-1.973h1.63v1.989
			h2.617v1.914h-2.617v4.506c0,0.363,0.102,0.632,0.305,0.804C115.794,225.941,116.064,226.027,116.398,226.027z"/>
		<path fill="#DDDDDD" d="M128.52,227.893h-2.55v-5.459c0-1.349-0.502-2.021-1.505-2.021c-0.713,0-1.229,0.242-1.547,0.727
			c-0.318,0.486-0.477,1.271-0.477,2.357v4.396h-2.55v-13.008h2.55v2.65c0,0.205-0.02,0.689-0.059,1.453l-0.058,0.754h0.134
			c0.568-0.915,1.471-1.371,2.708-1.371c1.099,0,1.932,0.296,2.5,0.886c0.568,0.589,0.853,1.438,0.853,2.542L128.52,227.893
			L128.52,227.893z"/>
		<path fill="#DDDDDD" d="M135.375,228.061c-1.505,0-2.68-0.412-3.528-1.246c-0.848-0.83-1.27-2.006-1.27-3.527
			c0-1.566,0.392-2.775,1.174-3.63c0.782-0.855,1.865-1.283,3.248-1.283c1.321,0,2.349,0.374,3.085,1.127
			c0.736,0.752,1.104,1.792,1.104,3.119v1.235h-6.027c0.028,0.727,0.242,1.291,0.644,1.696c0.402,0.406,0.965,0.61,1.689,0.61
			c0.563,0,1.095-0.059,1.597-0.176c0.501-0.116,1.024-0.303,1.572-0.561v1.975c-0.446,0.224-0.923,0.39-1.43,0.498
			C136.725,228.007,136.106,228.061,135.375,228.061z M135.016,220.186c-0.541,0-0.965,0.17-1.271,0.515
			c-0.306,0.344-0.482,0.827-0.526,1.459h3.578c-0.012-0.632-0.175-1.117-0.493-1.459
			C135.986,220.357,135.556,220.186,135.016,220.186z"/>
		<path fill="#DDDDDD" d="M146.477,218.371c0.346,0,0.632,0.025,0.861,0.074l-0.192,2.392c-0.206-0.055-0.457-0.083-0.752-0.083
			c-0.814,0-1.448,0.209-1.902,0.625c-0.455,0.418-0.681,1.003-0.681,1.758v4.756h-2.55v-9.346h1.931l0.375,1.571h0.125
			c0.29-0.522,0.682-0.946,1.175-1.267C145.36,218.53,145.897,218.371,146.477,218.371z"/>
		<path fill="#DDDDDD" d="M148.926,216.131c0-0.831,0.463-1.246,1.388-1.246s1.388,0.415,1.388,1.246
			c0,0.396-0.116,0.703-0.347,0.924s-0.578,0.33-1.041,0.33C149.39,217.385,148.926,216.967,148.926,216.131z M151.585,227.893
			h-2.55v-9.346h2.55V227.893z"/>
		<path fill="#DDDDDD" d="M162.888,227.893h-2.551v-5.459c0-0.674-0.12-1.18-0.359-1.517c-0.238-0.337-0.622-0.506-1.146-0.506
			c-0.714,0-1.229,0.237-1.547,0.715c-0.317,0.478-0.476,1.267-0.476,2.369v4.397h-2.55v-9.347h1.947l0.343,1.195h0.142
			c0.284-0.451,0.675-0.793,1.174-1.022c0.499-0.232,1.065-0.347,1.701-0.347c1.087,0,1.91,0.294,2.475,0.881
			c0.563,0.588,0.844,1.438,0.844,2.546v6.094H162.888L162.888,227.893z"/>
		<path fill="#DDDDDD" d="M173.646,218.547v1.295l-1.463,0.377c0.268,0.416,0.401,0.887,0.401,1.404c0,1.003-0.349,1.785-1.05,2.344
			c-0.7,0.561-1.671,0.84-2.913,0.84l-0.46-0.022l-0.375-0.042c-0.264,0.199-0.394,0.421-0.394,0.667
			c0,0.368,0.469,0.554,1.405,0.554h1.588c1.024,0,1.807,0.221,2.345,0.659c0.537,0.438,0.807,1.088,0.807,1.94
			c0,1.09-0.456,1.939-1.367,2.541c-0.912,0.603-2.22,0.902-3.925,0.902c-1.304,0-2.301-0.229-2.988-0.682
			c-0.687-0.454-1.032-1.092-1.032-1.91c0-0.563,0.176-1.033,0.526-1.411c0.352-0.379,0.866-0.649,1.547-0.812
			c-0.263-0.111-0.489-0.293-0.686-0.549c-0.196-0.254-0.293-0.521-0.293-0.806c0-0.356,0.104-0.655,0.31-0.892
			c0.205-0.233,0.505-0.469,0.895-0.695c-0.49-0.212-0.88-0.553-1.166-1.02c-0.287-0.467-0.431-1.021-0.431-1.655
			c0-1.021,0.331-1.81,0.995-2.367c0.663-0.558,1.609-0.837,2.842-0.837c0.263,0,0.572,0.021,0.932,0.07
			c0.359,0.049,0.589,0.084,0.69,0.104L173.646,218.547L173.646,218.547z M166.432,229.214c0,0.351,0.169,0.627,0.506,0.827
			c0.337,0.201,0.81,0.301,1.417,0.301c0.914,0,1.63-0.124,2.148-0.374s0.777-0.594,0.777-1.028c0-0.352-0.154-0.592-0.46-0.729
			c-0.306-0.134-0.78-0.199-1.421-0.199h-1.321c-0.468,0-0.859,0.11-1.174,0.331C166.589,228.563,166.432,228.852,166.432,229.214z
			 M167.359,221.605c0,0.508,0.116,0.91,0.347,1.203c0.231,0.297,0.585,0.443,1.058,0.443c0.48,0,0.831-0.146,1.053-0.443
			c0.222-0.295,0.335-0.695,0.335-1.203c0-1.123-0.463-1.688-1.388-1.688C167.828,219.918,167.359,220.48,167.359,221.605z"/>
		<path fill="#DDDDDD" d="M185.566,227.893l-0.492-1.271h-0.066c-0.43,0.54-0.871,0.915-1.324,1.124
			c-0.455,0.21-1.047,0.313-1.776,0.313c-0.898,0-1.604-0.256-2.119-0.768c-0.517-0.516-0.773-1.242-0.773-2.191
			c0-0.99,0.347-1.725,1.041-2.192c0.694-0.472,1.739-0.729,3.139-0.782l1.623-0.051v-0.409c0-0.946-0.482-1.422-1.455-1.422
			c-0.745,0-1.622,0.228-2.631,0.678l-0.845-1.723c1.075-0.563,2.27-0.843,3.578-0.843c1.254,0,2.215,0.271,2.885,0.817
			c0.668,0.548,1.002,1.376,1.002,2.491v6.227L185.566,227.893L185.566,227.893L185.566,227.893z M184.814,223.563l-0.985,0.033
			c-0.741,0.021-1.293,0.155-1.655,0.401c-0.363,0.246-0.544,0.62-0.544,1.122c0,0.719,0.412,1.078,1.237,1.078
			c0.589,0,1.063-0.17,1.416-0.51c0.354-0.342,0.529-0.793,0.529-1.354L184.814,223.563L184.814,223.563z"/>
		<path fill="#DDDDDD" d="M192.523,227.893h-2.551v-13.008h2.551V227.893z"/>
		<path fill="#DDDDDD" d="M197.748,227.893h-2.551v-13.008h2.551V227.893z"/>
		<path fill="#DDDDDD" d="M207.42,227.893h-2.55v-13.008h2.55V227.893z"/>
		<path fill="#DDDDDD" d="M209.986,216.131c0-0.831,0.464-1.246,1.389-1.246c0.924,0,1.389,0.415,1.389,1.246
			c0,0.396-0.117,0.703-0.349,0.924s-0.577,0.33-1.04,0.33C210.45,217.385,209.986,216.967,209.986,216.131z M212.646,227.893
			h-2.551v-9.346h2.551V227.893z"/>
		<path fill="#DDDDDD" d="M221.841,225.117c0,0.958-0.332,1.688-0.999,2.189c-0.666,0.502-1.662,0.752-2.988,0.752
			c-0.681,0-1.258-0.045-1.738-0.137c-0.479-0.091-0.928-0.229-1.346-0.406v-2.105c0.475,0.222,1.008,0.408,1.602,0.561
			c0.593,0.15,1.117,0.225,1.566,0.225c0.924,0,1.389-0.266,1.389-0.801c0-0.201-0.063-0.365-0.186-0.49
			c-0.121-0.125-0.334-0.268-0.635-0.426s-0.701-0.345-1.203-0.557c-0.72-0.301-1.246-0.58-1.584-0.836s-0.584-0.55-0.736-0.882
			c-0.151-0.331-0.229-0.74-0.229-1.226c0-0.83,0.322-1.474,0.968-1.927c0.644-0.454,1.555-0.682,2.735-0.682
			c1.126,0,2.222,0.246,3.286,0.735l-0.77,1.838c-0.469-0.199-0.906-0.366-1.312-0.493c-0.405-0.128-0.823-0.194-1.246-0.194
			c-0.752,0-1.127,0.204-1.127,0.612c0,0.229,0.121,0.425,0.362,0.592c0.242,0.167,0.772,0.414,1.593,0.744
			c0.729,0.296,1.266,0.571,1.604,0.827c0.34,0.256,0.588,0.554,0.752,0.887C221.764,224.255,221.841,224.654,221.841,225.117z"/>
		<path fill="#DDDDDD" d="M227.77,226.027c0.445,0,0.98-0.096,1.604-0.291v1.896c-0.635,0.284-1.416,0.426-2.341,0.426
			c-1.019,0-1.763-0.257-2.228-0.771c-0.467-0.515-0.699-1.29-0.699-2.321v-4.506h-1.221v-1.078l1.404-0.854l0.736-1.973h1.629
			v1.989h2.617v1.914h-2.617v4.506c0,0.363,0.104,0.632,0.306,0.804C227.165,225.941,227.434,226.027,227.77,226.027z"/>
		<path fill="#DDDDDD" d="M231.154,216.131c0-0.831,0.463-1.246,1.388-1.246c0.924,0,1.388,0.415,1.388,1.246
			c0,0.396-0.115,0.703-0.348,0.924c-0.23,0.221-0.577,0.33-1.04,0.33C231.617,217.385,231.154,216.967,231.154,216.131z
			 M233.813,227.893h-2.551v-9.346h2.551V227.893z"/>
		<path fill="#DDDDDD" d="M245.115,227.893h-2.551v-5.459c0-0.674-0.121-1.18-0.359-1.517c-0.239-0.337-0.623-0.506-1.146-0.506
			c-0.713,0-1.229,0.237-1.547,0.715s-0.478,1.267-0.478,2.369v4.397h-2.552v-9.347h1.947l0.342,1.195h0.143
			c0.284-0.451,0.676-0.793,1.176-1.022c0.498-0.232,1.064-0.347,1.7-0.347c1.088,0,1.91,0.294,2.476,0.881
			c0.564,0.588,0.844,1.438,0.844,2.546v6.094H245.115L245.115,227.893z"/>
		<path fill="#DDDDDD" d="M255.874,218.547v1.295l-1.463,0.377c0.269,0.416,0.401,0.887,0.401,1.404
			c0,1.003-0.351,1.785-1.051,2.344c-0.699,0.561-1.671,0.84-2.912,0.84l-0.461-0.022l-0.373-0.042
			c-0.266,0.199-0.395,0.421-0.395,0.667c0,0.368,0.469,0.554,1.404,0.554h1.586c1.025,0,1.809,0.221,2.347,0.659
			c0.537,0.438,0.808,1.088,0.808,1.94c0,1.09-0.455,1.939-1.367,2.541c-0.914,0.603-2.221,0.902-3.926,0.902
			c-1.304,0-2.302-0.229-2.988-0.682c-0.688-0.454-1.032-1.092-1.032-1.91c0-0.563,0.176-1.033,0.526-1.411
			c0.352-0.379,0.866-0.649,1.547-0.812c-0.262-0.111-0.489-0.293-0.687-0.549c-0.194-0.254-0.292-0.521-0.292-0.806
			c0-0.356,0.104-0.655,0.311-0.892c0.203-0.233,0.504-0.469,0.894-0.695c-0.489-0.212-0.879-0.553-1.166-1.02
			c-0.286-0.467-0.431-1.021-0.431-1.655c0-1.021,0.33-1.81,0.994-2.367c0.662-0.558,1.61-0.837,2.844-0.837
			c0.262,0,0.57,0.021,0.931,0.07c0.358,0.049,0.589,0.084,0.69,0.104L255.874,218.547L255.874,218.547z M248.659,229.214
			c0,0.351,0.169,0.627,0.506,0.827c0.337,0.201,0.812,0.301,1.417,0.301c0.915,0,1.631-0.124,2.148-0.374
			c0.519-0.25,0.776-0.594,0.776-1.028c0-0.352-0.153-0.592-0.459-0.729c-0.307-0.134-0.78-0.199-1.422-0.199h-1.319
			c-0.47,0-0.859,0.11-1.176,0.331C248.816,228.563,248.659,228.852,248.659,229.214z M249.588,221.605
			c0,0.508,0.115,0.91,0.346,1.203c0.231,0.297,0.586,0.443,1.058,0.443c0.481,0,0.833-0.146,1.054-0.443
			c0.221-0.295,0.334-0.695,0.334-1.203c0-1.123-0.463-1.688-1.388-1.688C250.057,219.918,249.588,220.48,249.588,221.605z"/>
		<path fill="#DDDDDD" d="M264.818,228.061c-1.098,0-1.961-0.427-2.586-1.278c-0.627-0.853-0.941-2.035-0.941-3.546
			c0-1.532,0.318-2.727,0.957-3.582c0.639-0.854,1.518-1.282,2.638-1.282c1.177,0,2.073,0.456,2.692,1.371h0.083
			c-0.126-0.697-0.192-1.317-0.192-1.864v-2.992h2.559v13.008h-1.955l-0.493-1.213h-0.109
			C266.891,227.602,266.006,228.061,264.818,228.061z M265.714,226.027c0.651,0,1.13-0.188,1.435-0.567
			c0.304-0.378,0.471-1.021,0.496-1.931v-0.276c0-1.003-0.153-1.722-0.463-2.155c-0.31-0.437-0.813-0.652-1.51-0.652
			c-0.568,0-1.01,0.24-1.326,0.723c-0.313,0.482-0.472,1.184-0.472,2.104s0.159,1.608,0.478,2.068
			C264.669,225.799,265.123,226.027,265.714,226.027z"/>
		<path fill="#DDDDDD" d="M276.924,228.061c-1.505,0-2.681-0.412-3.527-1.246c-0.847-0.83-1.27-2.006-1.27-3.527
			c0-1.566,0.393-2.775,1.175-3.63c0.781-0.855,1.866-1.283,3.248-1.283c1.32,0,2.349,0.374,3.085,1.127
			c0.735,0.752,1.104,1.792,1.104,3.119v1.235h-6.027c0.027,0.727,0.242,1.291,0.645,1.696c0.401,0.406,0.963,0.61,1.688,0.61
			c0.562,0,1.095-0.059,1.597-0.176c0.502-0.116,1.024-0.303,1.571-0.561v1.975c-0.444,0.224-0.923,0.39-1.431,0.498
			S277.654,228.061,276.924,228.061z M276.564,220.186c-0.541,0-0.965,0.17-1.271,0.515c-0.305,0.344-0.48,0.827-0.525,1.459h3.578
			c-0.011-0.632-0.174-1.117-0.49-1.459C277.538,220.357,277.105,220.186,276.564,220.186z"/>
		<path fill="#DDDDDD" d="M286.747,226.027c0.444,0,0.979-0.096,1.604-0.291v1.896c-0.636,0.284-1.416,0.426-2.34,0.426
			c-1.021,0-1.764-0.257-2.229-0.771c-0.466-0.517-0.697-1.29-0.697-2.321v-4.506h-1.22v-1.078l1.404-0.854l0.734-1.973h1.63v1.989
			h2.617v1.914h-2.617v4.506c0,0.363,0.103,0.632,0.304,0.804C286.143,225.941,286.412,226.027,286.747,226.027z"/>
		<path fill="#DDDDDD" d="M296.177,227.893l-0.493-1.271h-0.065c-0.429,0.54-0.871,0.915-1.325,1.124
			c-0.453,0.21-1.047,0.313-1.775,0.313c-0.896,0-1.604-0.256-2.119-0.768c-0.518-0.516-0.773-1.242-0.773-2.191
			c0-0.99,0.348-1.725,1.042-2.192c0.694-0.472,1.739-0.729,3.138-0.782l1.623-0.051v-0.409c0-0.946-0.482-1.422-1.453-1.422
			c-0.748,0-1.625,0.228-2.634,0.678l-0.844-1.723c1.075-0.563,2.267-0.843,3.578-0.843c1.254,0,2.216,0.271,2.885,0.817
			c0.668,0.548,1.003,1.376,1.003,2.491v6.227h-1.781v0.002H296.177L296.177,227.893z M295.425,223.563l-0.985,0.033
			c-0.74,0.021-1.295,0.155-1.655,0.401c-0.362,0.246-0.544,0.62-0.544,1.122c0,0.719,0.41,1.078,1.236,1.078
			c0.59,0,1.063-0.17,1.416-0.51c0.353-0.342,0.53-0.793,0.53-1.354L295.425,223.563L295.425,223.563z"/>
		<path fill="#DDDDDD" d="M300.475,216.131c0-0.831,0.461-1.246,1.387-1.246c0.925,0,1.388,0.415,1.388,1.246
			c0,0.396-0.116,0.703-0.347,0.924c-0.231,0.221-0.579,0.33-1.041,0.33C300.936,217.385,300.475,216.967,300.475,216.131z
			 M303.132,227.893h-2.55v-9.346h2.55V227.893z"/>
		<path fill="#DDDDDD" d="M308.357,227.893h-2.551v-13.008h2.551V227.893z"/>
		<path fill="#DDDDDD" d="M317.553,225.117c0,0.958-0.332,1.688-0.998,2.189s-1.66,0.752-2.988,0.752
			c-0.678,0-1.26-0.045-1.737-0.137c-0.479-0.091-0.929-0.229-1.347-0.406v-2.105c0.475,0.222,1.008,0.408,1.602,0.561
			c0.594,0.15,1.117,0.225,1.566,0.225c0.927,0,1.389-0.266,1.389-0.801c0-0.201-0.061-0.365-0.186-0.49
			c-0.123-0.125-0.334-0.268-0.635-0.426c-0.299-0.158-0.701-0.345-1.203-0.557c-0.72-0.301-1.248-0.58-1.584-0.836
			c-0.339-0.256-0.584-0.55-0.736-0.882c-0.151-0.331-0.229-0.74-0.229-1.226c0-0.83,0.322-1.474,0.966-1.927
			c0.646-0.454,1.558-0.682,2.736-0.682c1.126,0,2.225,0.246,3.286,0.735l-0.769,1.838c-0.469-0.199-0.904-0.366-1.313-0.493
			c-0.406-0.128-0.822-0.194-1.245-0.194c-0.753,0-1.128,0.204-1.128,0.612c0,0.229,0.121,0.425,0.364,0.592
			c0.241,0.167,0.772,0.414,1.592,0.744c0.729,0.296,1.267,0.571,1.604,0.827c0.34,0.256,0.59,0.554,0.752,0.887
			C317.475,224.255,317.553,224.654,317.553,225.117z"/>
		<path fill="#DDDDDD" d="M319.184,226.697c0-0.469,0.125-0.822,0.377-1.063c0.25-0.24,0.615-0.359,1.094-0.359
			c0.462,0,0.82,0.125,1.072,0.367c0.256,0.246,0.381,0.599,0.381,1.055c0,0.439-0.127,0.787-0.383,1.042
			c-0.259,0.252-0.613,0.379-1.07,0.379c-0.469,0-0.831-0.123-1.088-0.372C319.311,227.498,319.184,227.148,319.184,226.697z"/>
	</g>
</g>
</svg>
