<?xml version="1.0" encoding="utf-8"?>
<!-- Generator: Adobe Illustrator 16.0.0, SVG Export Plug-In . SVG Version: 6.00 Build 0)  -->
<!DOCTYPE svg PUBLIC "-//W3C//DTD SVG 1.1//EN" "http://www.w3.org/Graphics/SVG/1.1/DTD/svg11.dtd">
<svg version="1.1" id="Layer_1" xmlns="http://www.w3.org/2000/svg" xmlns:xlink="http://www.w3.org/1999/xlink" x="0px" y="0px"
	 width="180.421px" height="152.924px" viewBox="0 0 180.421 152.924" enable-background="new 0 0 180.421 152.924"
	 xml:space="preserve">
<g>
	<g>
		<g>
			<path fill="#A95935" d="M11.74,107.88h1.599v11.943h-1.717v-9.293l-3.672,4.615H7.633l-3.714-4.615v9.293H2.209V107.88h1.618
				l3.969,4.905L11.74,107.88z"/>
			<path fill="#A95935" d="M18.539,107.88h6.771v1.521h-5.062v3.643h4.891v1.529h-4.891v3.71h5.225v1.521h-6.934V107.88z"/>
			<path fill="#A95935" d="M29.972,119.824V107.88h2.99c1.209,0,2.168,0.299,2.878,0.896c0.709,0.599,1.064,1.407,1.064,2.429
				c0,0.697-0.176,1.297-0.521,1.806c-0.35,0.507-0.847,0.886-1.498,1.135c0.383,0.252,0.756,0.593,1.12,1.025
				c0.365,0.435,0.878,1.19,1.538,2.268c0.417,0.679,0.752,1.187,1.002,1.528l0.631,0.857h-2.033l-0.52-0.788
				c-0.018-0.028-0.054-0.075-0.103-0.146l-0.335-0.472l-0.527-0.873l-0.573-0.932c-0.353-0.488-0.675-0.882-0.968-1.17
				c-0.295-0.29-0.561-0.499-0.798-0.628c-0.235-0.127-0.635-0.19-1.194-0.19h-0.443v5.198H29.972z M32.193,109.331h-0.511v3.773
				h0.648c0.865,0,1.461-0.076,1.784-0.224c0.32-0.149,0.571-0.372,0.752-0.671c0.178-0.298,0.268-0.64,0.268-1.022
				c0-0.376-0.1-0.716-0.299-1.021c-0.2-0.306-0.481-0.521-0.842-0.646C33.632,109.396,33.031,109.331,32.193,109.331z"/>
			<path fill="#A95935" d="M43.139,107.88h1.709v11.943h-1.709V107.88z"/>
			<path fill="#A95935" d="M50.141,119.805V107.88h4.027c1.625,0,2.91,0.243,3.856,0.729c0.945,0.486,1.697,1.203,2.256,2.148
				c0.56,0.949,0.839,1.98,0.839,3.097c0,0.799-0.155,1.562-0.461,2.291c-0.31,0.729-0.748,1.371-1.317,1.923
				c-0.581,0.572-1.258,1-2.026,1.292c-0.451,0.177-0.865,0.294-1.24,0.354c-0.377,0.061-1.096,0.09-2.155,0.09H50.141z
				 M53.987,109.402h-2.135v8.882h2.187c0.856,0,1.519-0.058,1.992-0.177c0.475-0.116,0.868-0.264,1.185-0.442
				c0.317-0.18,0.604-0.4,0.867-0.662c0.844-0.856,1.266-1.937,1.266-3.239c0-1.285-0.433-2.331-1.299-3.141
				c-0.32-0.301-0.685-0.551-1.098-0.744c-0.415-0.191-0.806-0.322-1.176-0.384C55.403,109.432,54.81,109.402,53.987,109.402z"/>
			<path fill="#A95935" d="M65.899,107.88h1.711v11.943h-1.711V107.88z"/>
			<path fill="#A95935" d="M76.699,107.812h1.202l5.353,12.012h-1.748l-1.594-3.541h-5.094l-1.492,3.541h-1.758L76.699,107.812z
				 M79.21,114.762l-1.929-4.327l-1.784,4.327H79.21z"/>
			<path fill="#A95935" d="M96.679,107.88h1.623v11.943h-1.469l-7.986-9.2v9.2h-1.608V107.88h1.386l8.054,9.274V107.88z"/>
			<path fill="#A95935" d="M117.427,113.941h4.014v5.061c-1.471,0.64-2.93,0.958-4.377,0.958c-1.979,0-3.559-0.577-4.742-1.731
				s-1.773-2.577-1.773-4.27c0-1.783,0.613-3.27,1.838-4.454c1.227-1.185,2.76-1.779,4.609-1.779c0.672,0,1.311,0.075,1.912,0.218
				c0.607,0.147,1.371,0.413,2.293,0.8v1.743c-1.426-0.824-2.84-1.238-4.24-1.238c-1.303,0-2.406,0.443-3.297,1.335
				c-0.898,0.889-1.344,1.978-1.344,3.272c0,1.356,0.445,2.464,1.344,3.325c0.891,0.861,2.043,1.292,3.449,1.292
				c0.686,0,1.504-0.157,2.455-0.472l0.16-0.05v-2.488h-2.301V113.941z"/>
			<path fill="#A95935" d="M126.614,119.824V107.88h2.99c1.207,0,2.17,0.299,2.877,0.896c0.709,0.599,1.063,1.407,1.063,2.429
				c0,0.697-0.172,1.297-0.521,1.806c-0.344,0.507-0.844,0.886-1.492,1.135c0.379,0.252,0.75,0.593,1.117,1.025
				c0.365,0.435,0.877,1.19,1.537,2.268c0.42,0.679,0.75,1.187,1.002,1.528l0.631,0.857h-2.031l-0.52-0.788
				c-0.02-0.028-0.055-0.075-0.105-0.146l-0.334-0.472l-0.525-0.873l-0.576-0.932c-0.348-0.488-0.674-0.882-0.969-1.17
				c-0.293-0.29-0.557-0.499-0.795-0.628c-0.238-0.127-0.637-0.19-1.195-0.19h-0.443v5.198H126.614z M128.835,109.331h-0.512v3.773
				h0.65c0.861,0,1.461-0.076,1.781-0.224c0.32-0.149,0.57-0.372,0.752-0.671c0.178-0.298,0.268-0.64,0.268-1.022
				c0-0.376-0.098-0.716-0.299-1.021c-0.199-0.306-0.479-0.521-0.844-0.646C130.274,109.396,129.671,109.331,128.835,109.331z"/>
			<path fill="#A95935" d="M144.571,107.709c1.844,0,3.383,0.584,4.611,1.752c1.227,1.169,1.842,2.632,1.842,4.394
				s-0.623,3.219-1.859,4.373c-1.238,1.154-2.803,1.731-4.688,1.731c-1.799,0-3.299-0.577-4.496-1.731
				c-1.199-1.154-1.801-2.601-1.801-4.339c0-1.783,0.605-3.259,1.814-4.428C141.2,108.293,142.728,107.709,144.571,107.709z
				 M144.64,109.331c-1.365,0-2.488,0.429-3.369,1.286c-0.879,0.854-1.318,1.943-1.318,3.272c0,1.288,0.439,2.356,1.324,3.214
				c0.883,0.854,1.988,1.283,3.316,1.283c1.33,0,2.441-0.436,3.332-1.31c0.895-0.87,1.336-1.957,1.336-3.255
				c0-1.266-0.441-2.33-1.336-3.192C147.034,109.765,145.938,109.331,144.64,109.331z"/>
			<path fill="#A95935" d="M164.062,107.88h1.721v6.778c0,0.917-0.07,1.609-0.205,2.078c-0.131,0.467-0.295,0.856-0.496,1.166
				c-0.197,0.312-0.438,0.589-0.721,0.833c-0.945,0.815-2.182,1.224-3.709,1.224c-1.559,0-2.807-0.405-3.744-1.213
				c-0.285-0.253-0.527-0.532-0.723-0.844c-0.195-0.31-0.357-0.69-0.49-1.14c-0.123-0.452-0.191-1.158-0.191-2.12v-6.763h1.719
				v6.778c0,1.122,0.127,1.904,0.387,2.344c0.256,0.438,0.646,0.79,1.172,1.054c0.523,0.265,1.141,0.4,1.852,0.4
				c1.018,0,1.844-0.266,2.48-0.798c0.336-0.284,0.578-0.621,0.727-1.008c0.15-0.388,0.223-1.051,0.223-1.992V107.88z"/>
			<path fill="#A95935" d="M170.679,119.824v-11.962h3.785c1.141,0,2.053,0.308,2.73,0.925c0.678,0.615,1.018,1.44,1.018,2.478
				c0,0.696-0.176,1.31-0.521,1.846c-0.35,0.537-0.824,0.927-1.428,1.169c-0.605,0.242-1.473,0.364-2.598,0.364h-1.268v5.181
				H170.679z M174.169,109.386h-1.771v3.735h1.871c0.695,0,1.234-0.166,1.609-0.493c0.375-0.328,0.563-0.796,0.563-1.406
				C176.44,109.998,175.683,109.386,174.169,109.386z"/>
		</g>
	</g>
	<path fill="#A95935" d="M95.733,2.914v6.222H84.765v-6.23C60.517,5.61,41.661,26.174,41.661,51.148
		c0,19.582,11.594,36.453,28.291,44.128V87.86c-12.927-7.108-21.689-20.855-21.689-36.651c0-16.087,9.09-30.047,22.412-37.035
		c3.419,0.017,8.55,0.803,12.927,4.606c-15.258,3.016-26.798,16.494-26.798,32.623c0,18.339,14.92,33.259,33.258,33.259
		c17.524,0,31.915-13.626,33.161-30.836h8.561c-0.902,14.553-9.242,27.089-21.27,33.85v7.581
		c16.672-7.686,28.248-24.544,28.248-44.108C138.761,26.204,119.944,5.657,95.733,2.914z M90.21,11.384
		c2.197,0,3.976,1.78,3.976,3.978c0,2.195-1.779,3.977-3.976,3.977c-2.196,0-3.978-1.781-3.978-3.977
		C86.233,13.165,88.014,11.384,90.21,11.384z M90.061,80.724c-16.167,0-29.32-13.154-29.32-29.321
		c0-14.952,11.254-27.317,25.734-29.093c2.481,21.324-0.412,48.006-0.412,48.006h8.985c0,0-0.131-1.356-0.318-3.669h-2.393v-2.994
		h2.162c-0.096-1.251-0.193-2.645-0.297-4.152h-1.773v-2.994h1.586c-0.615-10.088-1.146-23.755-0.428-34.132
		c0.02-0.023,0.035-0.043,0.053-0.066c12.992,1.588,23.379,11.701,25.387,24.558h-17.434v5.985v0.975v4.989h1.754
		c0,0-0.521-3.003,1.402-4.989h14.527C118.04,68.864,105.411,80.724,90.061,80.724z M123.009,46.866
		c-1.91-13.955-12.512-25.18-26.154-28.022c4.189-3.536,9.063-4.511,12.605-4.661c12.104,6.352,20.709,18.456,22.182,32.684H123.009
		z"/>
	<g>
		<path fill="#ADADAD" d="M27.847,129.599h0.855l3.808,8.543h-1.245l-1.131-2.517h-3.624l-1.061,2.517h-1.25L27.847,129.599z
			 M29.633,134.542l-1.37-3.075l-1.271,3.075H29.633z"/>
		<path fill="#ADADAD" d="M31.47,129.637h7.095v1.082h-2.96v7.423h-1.222v-7.423H31.47V129.637z"/>
		<path fill="#ADADAD" d="M43.209,138.142v-8.494h2.128c0.86,0,1.541,0.214,2.046,0.639c0.505,0.426,0.756,1.002,0.756,1.728
			c0,0.493-0.124,0.922-0.37,1.282c-0.248,0.36-0.603,0.631-1.064,0.809c0.271,0.179,0.537,0.421,0.796,0.729
			c0.26,0.309,0.625,0.845,1.094,1.61c0.296,0.483,0.533,0.846,0.712,1.089l0.45,0.608H48.31l-0.37-0.561
			c-0.011-0.021-0.037-0.054-0.072-0.104l-0.237-0.333l-0.376-0.621l-0.406-0.662c-0.252-0.35-0.482-0.627-0.69-0.834
			c-0.209-0.206-0.397-0.354-0.566-0.446s-0.452-0.137-0.85-0.137h-0.316v3.697H43.209z M44.79,130.682h-0.364v2.682h0.461
			c0.617,0,1.039-0.054,1.268-0.159c0.228-0.104,0.407-0.264,0.535-0.477c0.128-0.214,0.191-0.455,0.191-0.727
			c0-0.268-0.071-0.509-0.212-0.728c-0.143-0.216-0.341-0.368-0.6-0.458C45.812,130.727,45.386,130.682,44.79,130.682z"/>
		<path fill="#ADADAD" d="M50.693,129.648h4.815v1.082H51.91v2.591h3.477v1.088H51.91v2.639h3.713v1.082h-4.93V129.648z"/>
		<path fill="#ADADAD" d="M59.63,129.599h0.855l3.808,8.543h-1.245l-1.131-2.517h-3.623l-1.061,2.517h-1.25L59.63,129.599z
			 M61.417,134.542l-1.37-3.075l-1.271,3.075H61.417z"/>
		<path fill="#ADADAD" d="M65.223,129.648h1.217v7.388h3.824v1.106h-5.041V129.648z"/>
		<path fill="#ADADAD" d="M69.357,129.637h7.096v1.082h-2.961v7.423h-1.223v-7.423h-2.912V129.637z"/>
		<path fill="#ADADAD" d="M82.708,129.648h1.478l-3.138,4.001v4.493h-1.247v-4.493l-3.137-4.001h1.468l2.273,2.929L82.708,129.648z"
			/>
		<path fill="#ADADAD" d="M88.581,129.648h4.817v1.082h-3.601v2.591h3.478v1.088h-3.478v2.639h3.714v1.082h-4.93V129.648z"/>
		<path fill="#ADADAD" d="M100.954,129.648h1.469l-3.396,4.098l3.633,4.396h-1.467l-2.895-3.521l-2.918,3.521h-1.484l3.654-4.397
			l-3.395-4.097h1.484l2.666,3.244L100.954,129.648z"/>
		<path fill="#ADADAD" d="M103.622,129.648h4.814v1.082h-3.6v2.591h3.479v1.088h-3.479v2.639h3.715v1.082h-4.93V129.648z"/>
		<path fill="#ADADAD" d="M117.167,136.172v1.337c-0.893,0.487-1.922,0.729-3.09,0.729c-0.947,0-1.752-0.189-2.414-0.571
			c-0.66-0.381-1.184-0.905-1.566-1.574c-0.385-0.668-0.578-1.393-0.578-2.171c0-1.235,0.441-2.274,1.322-3.118
			c0.883-0.844,1.969-1.266,3.262-1.266c0.893,0,1.883,0.233,2.973,0.7v1.308c-0.992-0.567-1.963-0.852-2.912-0.852
			c-0.973,0-1.779,0.308-2.422,0.921c-0.643,0.614-0.965,1.382-0.965,2.307c0,0.933,0.316,1.698,0.949,2.298
			c0.631,0.602,1.441,0.9,2.426,0.9C115.181,137.121,116.185,136.803,117.167,136.172z"/>
		<path fill="#ADADAD" d="M124.571,129.648h1.221v4.821c0,0.653-0.047,1.146-0.143,1.478c-0.094,0.333-0.211,0.609-0.352,0.83
			c-0.139,0.222-0.311,0.418-0.514,0.594c-0.672,0.579-1.553,0.868-2.639,0.868c-1.105,0-1.994-0.287-2.662-0.862
			c-0.201-0.18-0.375-0.378-0.514-0.6c-0.141-0.221-0.256-0.491-0.346-0.812c-0.092-0.32-0.139-0.822-0.139-1.508v-4.81h1.221v4.821
			c0,0.799,0.092,1.354,0.275,1.667c0.182,0.312,0.459,0.562,0.834,0.751c0.373,0.188,0.811,0.281,1.318,0.281
			c0.721,0,1.309-0.188,1.764-0.565c0.238-0.203,0.41-0.44,0.516-0.716s0.158-0.749,0.158-1.418V129.648z"/>
		<path fill="#ADADAD" d="M126.755,129.637h7.094v1.082h-2.961v7.423h-1.223v-7.423h-2.91V129.637z"/>
		<path fill="#ADADAD" d="M135.011,129.648h1.215v8.494h-1.215V129.648z"/>
		<path fill="#ADADAD" d="M143.489,129.648h1.213l-3.592,8.53h-0.275l-3.66-8.53h1.223l2.555,5.965L143.489,129.648z"/>
		<path fill="#ADADAD" d="M145.632,129.648h4.813v1.082h-3.598v2.591h3.479v1.088h-3.479v2.639h3.715v1.082h-4.93V129.648z"/>
		<path fill="#ADADAD" d="M153.958,134.583l-0.922-0.562c-0.58-0.354-0.992-0.702-1.238-1.046c-0.246-0.34-0.367-0.735-0.367-1.183
			c0-0.668,0.232-1.21,0.697-1.628c0.463-0.417,1.066-0.627,1.809-0.627c0.707,0,1.359,0.199,1.949,0.598v1.38
			c-0.611-0.589-1.27-0.883-1.975-0.883c-0.396,0-0.723,0.092-0.98,0.276c-0.254,0.184-0.381,0.419-0.381,0.704
			c0,0.256,0.094,0.494,0.281,0.716c0.188,0.223,0.49,0.455,0.906,0.698l0.93,0.55c1.037,0.619,1.555,1.407,1.555,2.364
			c0,0.68-0.229,1.232-0.684,1.659c-0.457,0.425-1.051,0.638-1.779,0.638c-0.84,0-1.604-0.259-2.291-0.774v-1.543
			c0.656,0.832,1.416,1.247,2.279,1.247c0.381,0,0.697-0.105,0.951-0.318c0.252-0.211,0.381-0.478,0.381-0.797
			C155.079,135.538,154.706,135.046,153.958,134.583z"/>
		<path fill="#ADADAD" d="M59.34,143.225h5.605v0.855h-2.339v5.863h-0.965v-5.863h-2.3V143.225z"/>
		<path fill="#ADADAD" d="M70.52,143.235h0.965v3.809c0,0.515-0.038,0.904-0.111,1.167c-0.076,0.262-0.17,0.48-0.28,0.655
			s-0.245,0.331-0.405,0.469c-0.531,0.458-1.226,0.686-2.084,0.686c-0.873,0-1.575-0.227-2.103-0.682
			c-0.161-0.141-0.295-0.298-0.407-0.473c-0.11-0.175-0.202-0.389-0.272-0.641c-0.073-0.255-0.108-0.651-0.108-1.19v-3.8h0.965
			v3.809c0,0.631,0.071,1.068,0.215,1.316c0.145,0.245,0.364,0.443,0.659,0.592c0.293,0.148,0.642,0.225,1.041,0.225
			c0.57,0,1.035-0.149,1.394-0.447c0.188-0.159,0.325-0.35,0.407-0.568c0.083-0.215,0.125-0.589,0.125-1.117V143.235z"/>
		<path fill="#ADADAD" d="M78.598,148.388v1.056c-0.704,0.386-1.518,0.576-2.44,0.576c-0.749,0-1.384-0.15-1.906-0.45
			c-0.521-0.301-0.935-0.716-1.238-1.245c-0.305-0.527-0.457-1.099-0.457-1.714c0-0.977,0.349-1.798,1.045-2.463
			c0.696-0.667,1.555-1,2.576-1c0.704,0,1.486,0.185,2.349,0.554v1.031c-0.785-0.447-1.551-0.673-2.3-0.673
			c-0.77,0-1.406,0.244-1.915,0.729c-0.508,0.484-0.761,1.092-0.761,1.822c0,0.737,0.25,1.342,0.749,1.814
			c0.499,0.474,1.139,0.713,1.917,0.713C77.029,149.138,77.824,148.888,78.598,148.388z"/>
		<path fill="#ADADAD" d="M81.44,147.133l-0.729-0.443c-0.458-0.28-0.782-0.556-0.978-0.825c-0.193-0.271-0.29-0.581-0.29-0.936
			c0-0.526,0.184-0.956,0.551-1.286c0.365-0.329,0.842-0.495,1.428-0.495c0.561,0,1.074,0.158,1.541,0.472v1.091
			c-0.483-0.465-1.003-0.697-1.561-0.697c-0.313,0-0.572,0.072-0.773,0.219c-0.201,0.145-0.302,0.33-0.302,0.556
			c0,0.201,0.073,0.39,0.223,0.564c0.148,0.176,0.388,0.36,0.717,0.552L82,146.337c0.819,0.491,1.229,1.112,1.229,1.868
			c0,0.537-0.181,0.974-0.541,1.311c-0.36,0.336-0.828,0.504-1.404,0.504c-0.664,0-1.267-0.202-1.812-0.611v-1.219
			c0.52,0.657,1.12,0.986,1.802,0.986c0.301,0,0.552-0.084,0.752-0.252c0.199-0.168,0.299-0.377,0.299-0.63
			C82.324,147.886,82.029,147.499,81.44,147.133z"/>
		<path fill="#ADADAD" d="M87.576,143.139c1.036,0,1.899,0.328,2.589,0.983c0.69,0.658,1.033,1.479,1.033,2.47
			c0,0.988-0.347,1.808-1.042,2.455c-0.696,0.649-1.574,0.973-2.633,0.973c-1.011,0-1.854-0.323-2.526-0.973
			c-0.674-0.647-1.011-1.459-1.011-2.437c0-1.002,0.339-1.83,1.018-2.488C85.682,143.467,86.539,143.139,87.576,143.139z
			 M87.615,144.05c-0.769,0-1.399,0.242-1.894,0.722c-0.495,0.48-0.742,1.093-0.742,1.839c0,0.724,0.249,1.325,0.744,1.807
			c0.496,0.48,1.117,0.721,1.862,0.721c0.748,0,1.372-0.246,1.874-0.735c0.5-0.49,0.749-1.101,0.749-1.83
			c0-0.711-0.249-1.308-0.749-1.794C88.958,144.293,88.343,144.05,87.615,144.05z"/>
		<path fill="#ADADAD" d="M97.712,143.235h0.912v6.709h-0.826l-4.484-5.167v5.167h-0.904v-6.709h0.777l4.525,5.21V143.235z"/>
		<path fill="#ADADAD" d="M102.792,143.235h3.805v0.855h-2.844v2.046h2.746v0.859h-2.746v2.083h2.934v0.856h-3.895V143.235z"/>
		<path fill="#ADADAD" d="M107.71,143.235h0.959v5.835h3.023v0.874h-3.982V143.235z"/>
		<path fill="#ADADAD" d="M112.54,143.235h0.961v6.709h-0.961V143.235z"/>
		<path fill="#ADADAD" d="M114.419,143.225h5.605v0.855h-2.342v5.863h-0.965v-5.863h-2.299V143.225z"/>
		<path fill="#ADADAD" d="M120.931,143.235h3.803v0.855h-2.844v2.046h2.748v0.859h-2.748v2.083h2.936v0.856h-3.895V143.235z"/>
	</g>
</g>
</svg>
