<?xml version="1.0" encoding="utf-8"?>
<!-- Generator: Adobe Illustrator 16.0.0, SVG Export Plug-In . SVG Version: 6.00 Build 0)  -->
<!DOCTYPE svg PUBLIC "-//W3C//DTD SVG 1.1//EN" "http://www.w3.org/Graphics/SVG/1.1/DTD/svg11.dtd">
<svg version="1.1" id="Layer_1" xmlns="http://www.w3.org/2000/svg" xmlns:xlink="http://www.w3.org/1999/xlink" x="0px" y="0px"
	 width="177.499px" height="86.17px" viewBox="0 0 177.499 86.17" enable-background="new 0 0 177.499 86.17" xml:space="preserve">
<g>
	<g>
		<path fill="#FFFFFF" stroke="#002C59" d="M166.708,43.085l0.433,2.883c0.98,6.055,2.595,12.109,1.499,17.443
			c-1.586,7.783-6.833,15.799-22.661,17.645c-17.875,1.037-32.551-13.695-57.576,1.471c-26.841-15.742-44.14,1.008-62.361-1.529
			C9.55,78.605,4.534,66.063,5.284,58.222c0.115-3.489,1.845-7.698,3.085-12.254l0.721-2.883c1.21-5.882,1.037-12.225-4.671-18.25
			C8.288,20.916,20.607,8.661,20.402,8.881C46.27,21.139,64.198,15.92,88.403,3.644c33.069,15.05,51.118,13.58,68.388,5.046
			l16.29,15.741C166.507,29.794,165.901,36.338,166.708,43.085z"/>
		<g>
			<path fill="#B70E2B" d="M39.189,53.026l3.229-3.314c0.404-0.434,0.692-0.664,0.75-0.809c0.201-0.172,0.519-0.375,0.778-0.518
				c0.317-0.145,0.634-0.203,1.326-0.203h0.317l0.26-1.182h-5.392l-0.23,1.182c0.114,0,0.23,0,0.288,0
				c0.461,0,0.634,0.145,0.634,0.49c0,0.23-0.173,0.49-0.691,1.039l-1.528,1.729c-1.066-5.881-2.797-10.638-12.888-9.082
				c7.236,0.895,7.842,6.344,8.332,12.109l-3.488,3.604c-1.124,1.153-2.22,1.729-3.143,1.729h-0.346l-0.317,1.211h5.709l0.316-1.211
				h-0.259c-0.433,0-0.75-0.26-0.75-0.576c0-0.23,0.26-0.779,0.634-1.153l2.019-2.22c0.692,1.354-0.403,11.82,13.349,11.129
				C40.371,63.435,39.91,58.303,39.189,53.026z"/>
			<path fill="#B70E2B" d="M160.366,51.671l1.067-4.612h-1.298l-0.23,0.26c-0.173,0.173-0.288,0.288-0.288,0.288
				c-0.115,0.115-0.26,0.23-0.404,0.23c-0.086,0-0.173-0.057-0.26-0.115c-0.058-0.029-0.144-0.086-0.346-0.173
				c-1.009-0.49-2.134-0.836-3.431-0.836c-3.719,0-6.516,2.163-6.516,5.104c0,1.558,0.807,2.681,2.797,3.776l1.239,0.692
				c1.326,0.72,1.845,1.325,1.845,2.104c0,1.009-0.836,1.759-1.931,1.759c-0.98,0-2.076-0.519-2.711-1.24
				c-0.691-0.691-0.979-1.527-1.124-2.911l-1.326,0.057l-1.153,4.988h1.297l0.462-0.433c0.288-0.346,0.375-0.374,0.605-0.374
				c0.086,0,0.23,0.028,0.403,0.143l0.462,0.231c1.009,0.49,2.162,0.778,3.487,0.778c3.72,0,6.892-2.479,6.892-5.479
				c0-1.556-0.836-2.854-2.336-3.719c-0.288-0.144-0.691-0.374-1.211-0.634c-0.547-0.288-0.864-0.462-0.894-0.52
				c-1.153-0.489-1.471-0.922-1.471-1.614c0-0.807,0.865-1.355,2.048-1.355c0.864,0,1.527,0.23,2.075,0.779
				c0.635,0.691,0.836,1.239,0.952,2.883L160.366,51.671z"/>
			<path fill="#B70E2B" d="M145.806,55.909l-1.239-0.316c-0.75,1.412-1.153,2.018-1.788,2.652c-1.009,1.01-2.162,1.471-3.488,1.471
				c-0.692,0-0.98-0.145-0.98-0.577c0-0.144,0-0.433,0.087-0.749l1.124-4.036c0.23-0.058,0.317-0.058,0.403-0.058
				c0.778,0,1.153,0.605,1.153,1.758c0,0.145,0,0.26,0,0.548h1.326l1.528-5.708h-1.355c-0.489,1.441-1.269,2.162-2.363,2.162
				c-0.145,0-0.202,0-0.347-0.029l0.98-3.689c0.23-0.923,0.548-1.183,1.614-1.183c1.788,0,2.479,1.009,2.739,3.719h1.153
				l1.096-4.814h-13.954l-0.317,1.239h0.577c0.836,0,1.297,0.318,1.297,0.895c0,0.201-0.087,0.663-0.23,1.211l-2.019,7.438
				c-0.461,1.789-0.691,2.02-2.104,2.02h-0.605l-0.317,1.182h14.474L145.806,55.909z"/>
			<path fill="#B70E2B" d="M123.895,61.187l6.141-10.639c1.124-1.903,1.354-2.134,2.22-2.221l0.26-0.029l0.346-1.239h-4.699
				l-0.375,1.239h0.23c0.778,0,1.009,0.116,1.009,0.578c0,0.316-0.403,1.297-0.894,2.133l-2.71,4.613l-0.375-5.998
				c0-0.086-0.058-0.201-0.058-0.287c0-0.779,0.317-1.039,1.298-1.039h0.26l0.346-1.239h-8.419l-0.317,1.239h0.26
				c0.75,0,1.066,0.434,1.153,1.5l0.836,11.389H123.895z"/>
			<path fill="#B70E2B" d="M103.625,61.042h10.294l0.374-1.182h-0.749c-0.808,0-1.24-0.289-1.24-0.924
				c0-0.172,0.115-0.604,0.23-1.182l1.989-7.438c0.49-1.789,0.721-2.02,2.163-2.02h0.691l0.317-1.239h-10.351l-0.317,1.239h0.692
				c0.865,0,1.298,0.318,1.298,0.895c0,0.23-0.087,0.663-0.231,1.211l-2.018,7.438c-0.462,1.789-0.75,2.02-2.134,2.02h-0.692
				L103.625,61.042z"/>
			<path fill="#B70E2B" d="M105.154,51.787l1.096-4.729H92.44l-1.298,4.729l1.24,0.086c0.836-2.075,2.249-3.401,3.719-3.487
				l-2.565,9.455c-0.462,1.789-0.692,2.02-2.104,2.02h-0.692l-0.346,1.182h10.35l0.375-1.182h-0.691
				c-0.923,0-1.327-0.289-1.327-0.924c0-0.23,0.087-0.634,0.231-1.182l2.508-9.369c0.087-0.059,0.231-0.059,0.317-0.059
				c1.211,0,1.759,1.066,1.759,3.229v0.316L105.154,51.787z"/>
			<path fill="#B70E2B" d="M91.315,47.059h-4.987l-0.317,1.239h0.433c0.808,0,1.124,0.26,1.124,0.865
				c0,0.174-0.058,0.605-0.201,1.01l-1.903,7.15c-0.173,0.749-0.345,1.123-0.691,1.527c-0.549,0.691-1.471,1.096-2.364,1.096
				c-1.125,0-1.759-0.548-1.759-1.412c0-0.317,0.058-0.75,0.173-1.211l1.903-7.006c0.489-1.789,0.721-2.02,2.248-2.02h0.087
				l0.317-1.239h-9.86l-0.347,1.239h0.75c0.865,0,1.298,0.26,1.298,0.895c0,0.201-0.116,0.605-0.231,1.125l-1.384,5.074
				c-0.288,0.979-0.374,1.758-0.374,2.363c0,2.249,2.248,3.633,5.823,3.633c1.759,0,2.998-0.346,4.066-0.98
				c0.922-0.605,1.44-1.383,1.844-2.883l2.076-7.727c0.317-1.24,0.577-1.5,1.701-1.5h0.26L91.315,47.059z"/>
			<path fill="#B70E2B" d="M71.653,55.909c-0.52,1.154-0.692,1.529-1.153,2.191c-0.837,1.154-1.932,1.816-3.027,1.816
				s-1.846-0.836-1.846-2.248c0-0.836,0.23-2.277,0.548-3.69c0.923-3.95,2.162-5.882,3.806-5.882c1.384,0,2.162,1.297,2.364,3.863
				l1.326-0.087l1.096-4.929h-1.384c-0.087,0.143-0.173,0.23-0.23,0.287c-0.26,0.375-0.346,0.461-0.577,0.461
				c-0.144,0-0.23-0.057-0.375-0.086l-0.403-0.201c-0.836-0.404-1.989-0.692-3.056-0.692c-4.671,0-8.852,4.007-8.852,8.36
				c0,3.604,2.854,6.314,6.574,6.314c1.383,0,2.854-0.432,3.863-1.211c0.547-0.375,1.009-0.865,1.412-1.5
				c0.52-0.69,0.721-1.123,1.153-2.219L71.653,55.909z"/>
			<path fill="#B70E2B" d="M58.823,55.909l-1.24-0.316c-0.721,1.412-1.153,2.018-1.787,2.652c-1.009,1.01-2.162,1.471-3.488,1.471
				c-0.692,0-0.952-0.145-0.952-0.577c0-0.144,0-0.433,0.087-0.749l1.096-4.036c0.23-0.058,0.316-0.058,0.403-0.058
				c0.778,0,1.153,0.605,1.153,1.758c0,0.145,0,0.26,0,0.548h1.326l1.528-5.708h-1.326c-0.52,1.441-1.298,2.162-2.394,2.162
				c-0.144,0-0.173,0-0.316-0.029l0.951-3.689c0.23-0.923,0.548-1.183,1.614-1.183c1.788,0,2.479,1.009,2.768,3.719h1.125
				l1.124-4.814H46.511l-0.316,1.239H46.8c0.836,0,1.269,0.318,1.269,0.895c0,0.201-0.087,0.663-0.23,1.211l-2.019,7.438
				c-0.461,1.789-0.692,2.02-2.104,2.02H43.11l-0.317,1.182h14.474L58.823,55.909z"/>
			<path fill="#B70E2B" d="M27.627,55.909l-1.24-0.316c-0.721,1.412-1.124,2.018-1.787,2.652c-1.009,1.01-2.162,1.471-3.488,1.471
				c-0.692,0-0.952-0.145-0.952-0.577c0-0.144,0-0.433,0.087-0.749l1.096-4.036c0.23-0.058,0.317-0.058,0.433-0.058
				c0.778,0,1.124,0.605,1.124,1.758c0,0.145,0,0.26,0,0.548h1.355l1.499-5.708h-1.326c-0.52,1.441-1.298,2.162-2.393,2.162
				c-0.145,0-0.174,0-0.317-0.029l0.951-3.689c0.23-0.923,0.577-1.183,1.614-1.183c1.788,0,2.479,1.009,2.768,3.719h1.153
				l1.096-4.814H15.317L15,48.298h0.605c0.836,0,1.297,0.318,1.297,0.895c0,0.201-0.115,0.663-0.23,1.211l-2.019,7.438
				c-0.461,1.789-0.691,2.02-2.133,2.02h-0.577l-0.346,1.182h14.474L27.627,55.909z"/>
		</g>
		<g>
			<path fill="#B70E2B" d="M129.632,33.71l4.093-5.017c0.779-1.01,1.385-1.413,2.076-1.413h0.26l0.317-1.239h-5.189l-0.317,1.239
				h0.288c0.808,0,1.096,0.145,1.096,0.605c0,0.173-0.173,0.577-0.403,0.894l-0.605,0.837l-2.076,2.623l-0.692-2.335
				c-0.172-0.548-0.316-1.355-0.316-1.615c0-0.691,0.403-1.009,1.24-1.009h0.316l0.375-1.239h-9.082l-0.346,1.239h0.346
				c0.865,0,1.183,0.26,1.471,1.24l1.557,5.189l-0.836,3.113c-0.461,1.788-0.721,2.019-2.163,2.019h-0.721l-0.316,1.211h10.148
				l0.317-1.211h-0.605c-0.865,0-1.298-0.26-1.298-0.923c0-0.173,0.115-0.635,0.23-1.182L129.632,33.71z"/>
			<path fill="#B70E2B" d="M118.964,30.769l1.125-4.728h-13.84l-1.269,4.728l1.24,0.087c0.807-2.076,2.249-3.402,3.719-3.488
				l-2.595,9.456c-0.461,1.788-0.691,2.019-2.104,2.019h-0.692l-0.316,1.211h10.351l0.346-1.211h-0.692
				c-0.923,0-1.326-0.26-1.326-0.923c0-0.23,0.087-0.635,0.23-1.182l2.537-9.37c0.087-0.058,0.231-0.058,0.317-0.058
				c1.183,0,1.73,1.066,1.73,3.229v0.317L118.964,30.769z"/>
			<path fill="#B70E2B" d="M104,34.806l-1.297-0.173c-1.183,2.797-2.71,4.122-4.729,4.122c-0.548,0-0.808-0.144-0.808-0.461
				c0-0.145,0.029-0.317,0.087-0.548l2.307-8.447c0.433-1.788,0.663-2.019,2.104-2.019h0.721l0.317-1.239H92.325l-0.317,1.249
				l0.692-0.01c0.864,0,1.297,0.317,1.297,0.923c0,0.23-0.086,0.635-0.23,1.182l-1.989,7.438c-0.49,1.788-0.721,2.019-2.162,2.019
				h-0.692l-0.346,1.211h13.81L104,34.806z"/>
			<path fill="#B70E2B" d="M72.114,34.892l-1.24-0.317c-0.749,1.442-1.152,2.019-1.787,2.682c-1.009,1.01-2.162,1.471-3.518,1.471
				c-0.663,0-0.951-0.145-0.951-0.605c0-0.145,0-0.433,0.087-0.75l1.095-4.036c0.231-0.029,0.347-0.029,0.433-0.029
				c0.778,0,1.153,0.577,1.153,1.73c0,0.145,0,0.288,0,0.548h1.326l1.499-5.68h-1.325c-0.491,1.412-1.27,2.162-2.394,2.162
				c-0.115,0-0.173,0-0.317-0.058l0.98-3.69c0.23-0.894,0.548-1.182,1.586-1.182c1.816,0,2.479,1.009,2.768,3.719h1.153l1.096-4.806
				H59.803l-0.317,1.23h0.576c0.837,0,1.298,0.317,1.298,0.923c0,0.173-0.087,0.635-0.23,1.182l-2.019,7.438
				c-0.461,1.788-0.692,2.019-2.104,2.019h-0.605l-0.317,1.211h14.474L72.114,34.892z"/>
			<path fill="#B70E2B" d="M88.49,38.842c-1.153,0-1.441-0.26-1.528-1.558l-0.979-11.445l-3.95,0.009l-6.718,10.659
				c-0.721,1.182-1.239,1.7-1.961,2.075c-0.374,0.173-0.605,0.23-1.557,0.26l-0.346,1.211h6.314l0.259-1.211h-0.259
				c-1.125,0-1.471-0.173-1.471-0.692c0-0.316,0.173-0.807,0.576-1.412l0.605-0.923h3.633l0.144,1.759c0,0.029,0,0.115,0,0.23
				c0,0.778-0.374,1.038-1.441,1.038h-0.345l-0.317,1.211h9.283l0.317-1.211H88.49z M78.254,34.546l2.394-3.863l0.317,3.863H78.254z
				"/>
			<path fill="#B70E2B" d="M55.881,36.189c-0.259,0.778-0.576,1.153-0.864,1.153c-0.173,0-0.23-0.087-0.375-0.52
				c-0.173-0.807-0.317-1.269-0.346-1.47c-0.145-0.548-0.433-1.038-0.75-1.413c-0.634-0.749-1.528-1.009-3.085-1.066
				c1.066-0.087,1.441-0.087,2.307-0.26c0.778-0.145,1.384-0.346,1.932-0.548c1.096-0.576,1.874-1.759,1.874-2.912
				c0-1.182-0.692-2.162-1.845-2.652c-0.895-0.375-1.586-0.461-3.662-0.452h-8.822l-0.26,1.23h0.49c0.836,0,1.298,0.317,1.298,0.923
				c0,0.173-0.087,0.635-0.23,1.182l-2.019,7.438c-0.461,1.788-0.692,2.019-2.134,2.019h-0.547l-0.317,1.211h9.658l0.346-1.211
				h-0.317c-0.864,0-1.269-0.26-1.269-0.923c0-0.173,0.087-0.635,0.23-1.182l0.865-3.258c0.173,0,0.375-0.058,0.49-0.058
				c0.519,0,0.75,0.316,0.75,0.894c0,0.173,0,0.317-0.145,1.182c-0.145,0.605-0.173,1.096-0.173,1.558
				c0,1.902,1.471,3.315,3.488,3.315c2.076,0,3.575-1.298,4.498-3.863L55.881,36.189z M48.674,32.096c-0.087,0-0.174,0-0.26,0
				l1.096-4.095c0.173-0.634,0.403-0.864,0.865-0.864c0.548,0,0.836,0.374,0.836,1.152c0,0.865-0.23,1.846-0.605,2.653
				C50.202,31.836,49.741,32.096,48.674,32.096z"/>
		</g>
	</g>
	<g>
		<path fill="#002C59" d="M66.377,66.165h-1.346v-0.946h3.829v0.946H67.5v4.037h-1.123V66.165z"/>
		<path fill="#002C59" d="M70.583,65.219v2.862c0,0.865,0.333,1.301,0.902,1.301c0.592,0,0.917-0.414,0.917-1.301v-2.862h1.123
			v2.796c0,1.537-0.776,2.27-2.077,2.27c-1.257,0-1.988-0.703-1.988-2.285v-2.78H70.583z"/>
		<path fill="#002C59" d="M78.155,70.069c-0.2,0.096-0.673,0.215-1.271,0.215c-1.723,0-2.61-1.08-2.61-2.507
			c0-1.7,1.213-2.64,2.721-2.64c0.584,0,1.027,0.119,1.228,0.223l-0.236,0.887c-0.222-0.097-0.54-0.186-0.946-0.186
			c-0.888,0-1.583,0.54-1.583,1.656c0,0.998,0.592,1.627,1.59,1.627c0.348,0,0.718-0.066,0.946-0.163L78.155,70.069z"/>
		<path fill="#002C59" d="M78.938,69.049c0.296,0.155,0.77,0.311,1.25,0.311c0.517,0,0.791-0.214,0.791-0.547
			c0-0.304-0.236-0.487-0.836-0.695c-0.828-0.296-1.375-0.754-1.375-1.485c0-0.851,0.718-1.494,1.886-1.494
			c0.569,0,0.976,0.111,1.271,0.252l-0.252,0.901c-0.191-0.097-0.554-0.235-1.035-0.235c-0.487,0-0.725,0.229-0.725,0.479
			c0,0.317,0.274,0.458,0.925,0.71c0.88,0.324,1.286,0.783,1.286,1.493c0,0.835-0.636,1.546-2.003,1.546
			c-0.569,0-1.132-0.156-1.412-0.311L78.938,69.049z"/>
		<path fill="#002C59" d="M85.008,70.284c-1.472,0-2.344-1.117-2.344-2.537c0-1.492,0.961-2.609,2.425-2.609
			c1.53,0,2.366,1.146,2.366,2.521c0,1.641-0.983,2.625-2.44,2.625H85.008z M85.06,69.39c0.762,0,1.197-0.718,1.197-1.693
			c0-0.895-0.421-1.664-1.197-1.664s-1.213,0.754-1.213,1.686c0,0.939,0.451,1.672,1.205,1.672H85.06z"/>
		<path fill="#002C59" d="M88.195,70.202v-4.983h1.315l1.035,1.826c0.296,0.524,0.585,1.147,0.813,1.708h0.015
			c-0.066-0.658-0.088-1.331-0.088-2.085v-1.449h1.034v4.983h-1.183l-1.064-1.922c-0.296-0.54-0.629-1.176-0.865-1.76h-0.029
			c0.037,0.666,0.052,1.367,0.052,2.182v1.5H88.195z"/>
		<path fill="#002C59" d="M97.754,68.095H95.92v1.184h2.048v0.924h-3.172v-4.983h3.068v0.925H95.92v1.035h1.834V68.095z"/>
		<path fill="#002C59" d="M98.745,65.219h1.124v4.037h1.981v0.946h-3.105V65.219z"/>
		<path fill="#002C59" d="M103.646,65.219v4.983h-1.123v-4.983H103.646z"/>
		<path fill="#002C59" d="M105.591,66.165h-1.346v-0.946h3.829v0.946h-1.36v4.037h-1.123V66.165z"/>
		<path fill="#002C59" d="M111.638,68.095h-1.833v1.184h2.048v0.924h-3.172v-4.983h3.068v0.925h-1.944v1.035h1.833V68.095z"/>
	</g>
</g>
</svg>
