<?xml version="1.0" encoding="utf-8"?>
<!-- Generator: Adobe Illustrator 16.0.0, SVG Export Plug-In . SVG Version: 6.00 Build 0)  -->
<!DOCTYPE svg PUBLIC "-//W3C//DTD SVG 1.1//EN" "http://www.w3.org/Graphics/SVG/1.1/DTD/svg11.dtd">
<svg version="1.1" id="Layer_2" xmlns="http://www.w3.org/2000/svg" xmlns:xlink="http://www.w3.org/1999/xlink" x="0px" y="0px"
	 width="120px" height="40.279px" viewBox="-5.914 -1.985 120 40.279" enable-background="new -5.914 -1.985 120 40.279"
	 xml:space="preserve">
<g>
	<g>
		<path fill="#F1F2F2" d="M-5.879,8.664v29.617h29.616V8.664H-5.879z M10.245,14.343c0.712,0.349,3.348,2.14,4.285,2.802
			c-3.003,0.069-8.865,1.369-11.304,2.182C5.232,17.819,8.953,14.945,10.245,14.343z M-0.038,22.533
			c1.598-0.729,6.075-2.09,10.365-3.094c0,0-8.244,7.611-10.534,9.969l1.893-5.133c-1.471,0.217-2.118,0.301-4.131,0.73
			L-0.038,22.533z M14.417,29.496C7.208,29.928-0.63,32.537-1.455,32.901l0.961-2.707c2.442-1.131,8.524-3.361,16.001-3.895
			C15.361,26.852,14.57,28.887,14.417,29.496z M16.985,22.211c0,0-0.353,0.74-0.688,1.758c-2.879,0.174-7.41,1.125-9.624,1.924
			c1.141-1.049,8.417-8.356,8.417-8.356c2.82,1.925,5.746,4.29,5.746,4.29L16.985,22.211z"/>
		<path fill="#F1F2F2" d="M44.999,34.533l1.092-3.461h-7.098c-0.852,0-1.789,0.01-1.789,0.01s0.332-0.615,0.788-1.373l8.019-14.033
			v-3.063h-12.62l-0.941,3.52h6.491c1.274,0,1.737,0.038,1.737,0.038s-0.312,0.75-0.888,1.72l-7.961,13.671v2.975h13.17V34.533z"/>
		<path fill="#F1F2F2" d="M50.907,19.098c1.396,0,2.517-1.122,2.517-2.517c0-1.397-1.092-2.52-2.458-2.52
			c-1.396,0-2.547,1.123-2.547,2.52C48.42,17.977,49.542,19.098,50.907,19.098L50.907,19.098z"/>
		<polygon fill="#F1F2F2" points="48.876,34.565 52.94,34.565 52.932,19.994 48.881,20.905 		"/>
		<polygon fill="#F1F2F2" points="56.938,34.524 56.908,13.025 61.064,12.083 61.096,34.524 		"/>
		<polygon fill="#F1F2F2" points="65.016,34.524 64.984,13.025 69.145,12.083 69.174,34.524 		"/>
		<path fill="#F1F2F2" d="M104.037,34.533l4.43-15.535h-4.186l-1.182,5.553c-0.426,1.973-0.76,4.4-0.852,5.066
			c0,0-0.455-2.609-1.152-5.49l-1.244-5.129h-3.822l-1.455,5.219c-0.729,2.641-1.125,5.4-1.125,5.4s-0.486-3.033-0.877-4.824
			l-1.24-5.795h-4.148l4.326,15.533h3.793l0.785-3.186c0.365-1.457,1.033-4.127,1.334-5.463c0.246-1.121,0.275-1.334,0.367-2
			c0.09,0.605,0.123,0.816,0.244,1.547c0.18,1.031,0.545,2.518,0.877,3.764l1.396,5.338h3.73V34.533z"/>
		<path fill="#F1F2F2" d="M84.504,21.033c-1.336-1.578-3.064-2.336-5.279-2.336c-4.186,0-6.979,3.246-6.979,8.131
			s2.762,8.037,6.979,8.037c2.396,0,3.943-0.816,5.127-2.15c1.336-1.518,1.941-3.338,1.941-6.008
			C86.293,24.188,85.75,22.489,84.504,21.033z M79.346,31.926c-0.789,0-1.697-0.426-2.063-1.277
			c-0.332-0.787-0.518-2.123-0.518-3.912c0-1.547,0.156-2.639,0.428-3.457c0.332-0.971,1.121-1.58,2.094-1.58
			c0.729,0,1.363,0.305,1.758,0.82c0.547,0.697,0.82,2.063,0.82,4.156C81.865,30.348,81.105,31.926,79.346,31.926z"/>
		<path fill="#F1F2F2" d="M111.811,15.708v0.703h0.193c0.191,0,0.291-0.026,0.357-0.096c0.063-0.059,0.102-0.155,0.102-0.267
			c0-0.224-0.121-0.341-0.449-0.341H111.811L111.811,15.708z M112.525,17.626l-0.193-0.347c-0.154-0.271-0.256-0.421-0.377-0.543
			c-0.043-0.044-0.076-0.065-0.145-0.071v0.96h-0.361v-2.218h0.676c0.494,0,0.719,0.288,0.719,0.635
			c0,0.341-0.219,0.607-0.551,0.607c0.08,0.042,0.227,0.256,0.344,0.441l0.326,0.533h-0.438V17.626z M112.086,14.865
			c-0.885,0-1.58,0.725-1.58,1.657c0,0.929,0.695,1.662,1.58,1.662c0.871,0,1.582-0.733,1.582-1.662
			C113.668,15.59,112.957,14.865,112.086,14.865L112.086,14.865z M112.086,18.506c-1.08,0-1.963-0.869-1.963-1.983
			c0-1.113,0.883-1.983,1.963-1.983c1.07,0,1.965,0.87,1.965,1.983C114.051,17.637,113.156,18.506,112.086,18.506L112.086,18.506z"
			/>
	</g>
	<g>
		<path fill="#F1F2F2" d="M29.357,0.099c0,0.681-0.212,1.201-0.638,1.562c-0.424,0.359-1.03,0.54-1.814,0.54H26.33v2.248h-1.34
			v-6.321h2.02c0.766,0,1.349,0.164,1.747,0.494C29.156-1.049,29.357-0.555,29.357,0.099z M26.33,1.102h0.439
			c0.412,0,0.722-0.081,0.926-0.244c0.206-0.162,0.307-0.398,0.307-0.712c0-0.314-0.085-0.547-0.256-0.695
			c-0.171-0.152-0.44-0.226-0.808-0.226h-0.61v1.877H26.33z"/>
		<path fill="#F1F2F2" d="M31.891,2.024v2.426h-1.34v-6.321h1.842c0.857,0,1.496,0.155,1.907,0.469
			c0.412,0.313,0.619,0.788,0.619,1.425c0,0.371-0.104,0.702-0.307,0.994c-0.204,0.289-0.494,0.516-0.868,0.678
			c0.949,1.422,1.569,2.341,1.858,2.756h-1.488l-1.508-2.426H31.891L31.891,2.024z M31.891,0.935h0.435
			c0.423,0,0.735-0.071,0.938-0.213c0.201-0.142,0.301-0.362,0.301-0.666c0-0.301-0.103-0.513-0.307-0.64
			c-0.208-0.126-0.527-0.19-0.958-0.19h-0.406v1.709H31.891z"/>
		<path fill="#F1F2F2" d="M42.134,1.279c0,1.047-0.259,1.851-0.777,2.414c-0.52,0.563-1.263,0.844-2.231,0.844
			s-1.712-0.281-2.231-0.844c-0.521-0.563-0.777-1.369-0.777-2.423s0.259-1.855,0.78-2.411c0.52-0.555,1.267-0.831,2.237-0.831
			c0.972,0,1.715,0.278,2.23,0.839C41.877-0.575,42.134,0.23,42.134,1.279z M37.521,1.279c0,0.708,0.135,1.239,0.402,1.596
			c0.267,0.357,0.668,0.535,1.202,0.535c1.069,0,1.604-0.71,1.604-2.132c0-1.425-0.533-2.137-1.595-2.137
			c-0.534,0-0.936,0.18-1.207,0.538S37.521,0.573,37.521,1.279z"/>
		<path fill="#F1F2F2" d="M47.051-1.873h1.354l-2.148,6.321h-1.46L42.65-1.873h1.354l1.188,3.763c0.067,0.22,0.134,0.48,0.207,0.774
			c0.069,0.297,0.114,0.5,0.131,0.617c0.03-0.266,0.141-0.729,0.325-1.392L47.051-1.873z"/>
		<path fill="#F1F2F2" d="M49.199,4.449v-6.321h1.341v6.321H49.199z"/>
		<path fill="#F1F2F2" d="M57.377,1.227c0,1.04-0.299,1.837-0.891,2.392c-0.592,0.554-1.445,0.83-2.565,0.83h-1.788v-6.321h1.983
			c1.032,0,1.833,0.272,2.403,0.815C57.09-0.51,57.377,0.248,57.377,1.227z M55.982,1.262c0-1.357-0.598-2.036-1.797-2.036H53.47
			v4.116h0.577C55.338,3.342,55.982,2.65,55.982,1.262z"/>
		<path fill="#F1F2F2" d="M62.326,4.449h-3.641v-6.321h3.641v1.098h-2.299v1.388h2.141v1.098h-2.141v1.631h2.299V4.449z"/>
		<path fill="#F1F2F2" d="M68.891,1.227c0,1.04-0.295,1.837-0.887,2.392c-0.594,0.554-1.449,0.83-2.566,0.83h-1.791v-6.321h1.984
			c1.033,0,1.836,0.272,2.404,0.815C68.605-0.51,68.891,0.248,68.891,1.227z M67.498,1.262c0-1.357-0.6-2.036-1.797-2.036h-0.717
			v4.116h0.578C66.854,3.342,67.498,2.65,67.498,1.262z"/>
		<path fill="#F1F2F2" d="M72.502-1.873h1.967c0.896,0,1.547,0.126,1.951,0.382c0.404,0.255,0.607,0.663,0.607,1.218
			c0,0.378-0.086,0.688-0.266,0.931C76.586,0.9,76.35,1.045,76.055,1.094v0.044c0.4,0.089,0.691,0.255,0.869,0.501
			c0.176,0.245,0.266,0.571,0.266,0.977c0,0.578-0.209,1.026-0.625,1.35c-0.418,0.323-0.984,0.486-1.697,0.486h-2.365V-1.873
			L72.502-1.873z M73.842,0.63h0.779c0.363,0,0.625-0.057,0.789-0.168c0.16-0.114,0.242-0.299,0.242-0.558
			c0-0.243-0.086-0.416-0.266-0.521c-0.176-0.106-0.457-0.158-0.842-0.158h-0.703V0.63L73.842,0.63z M73.842,1.693v1.648h0.875
			c0.367,0,0.641-0.069,0.814-0.212c0.178-0.141,0.264-0.356,0.264-0.647c0-0.525-0.373-0.789-1.123-0.789H73.842L73.842,1.693z"/>
		<path fill="#F1F2F2" d="M80.418,0.73l1.318-2.603h1.443l-2.098,3.86v2.461h-1.33V2.031l-2.098-3.903h1.455L80.418,0.73z"/>
	</g>
</g>
</svg>
