<?xml version="1.0" encoding="utf-8"?>
<!-- Generator: Adobe Illustrator 16.0.0, SVG Export Plug-In . SVG Version: 6.00 Build 0)  -->
<!DOCTYPE svg PUBLIC "-//W3C//DTD SVG 1.1//EN" "http://www.w3.org/Graphics/SVG/1.1/DTD/svg11.dtd">
<svg version="1.1" id="Layer_1" xmlns="http://www.w3.org/2000/svg" xmlns:xlink="http://www.w3.org/1999/xlink" x="0px" y="0px"
	 width="225.147px" height="76.072px" viewBox="0 0 225.147 76.072" enable-background="new 0 0 225.147 76.072"
	 xml:space="preserve">
<g>
	<path fill="#E6E7E8" d="M116.126,8.343v4.001h-7.054V8.338C93.48,10.076,81.356,23.301,81.356,39.359
		c0,12.593,7.455,23.44,18.19,28.375v-4.769C91.236,58.396,85.6,49.555,85.6,39.399c0-10.345,5.846-19.321,14.412-23.814
		c2.198,0.011,5.498,0.515,8.313,2.96c-9.812,1.941-17.233,10.607-17.233,20.979c0,11.791,9.596,21.387,21.387,21.387
		c11.269,0,20.522-8.763,21.324-19.828h5.502c-0.577,9.355-5.94,17.418-13.676,21.764v4.878
		c10.721-4.945,18.165-15.786,18.165-28.365C143.793,23.32,131.694,10.107,116.126,8.343z M112.573,13.791
		c1.413,0,2.559,1.146,2.559,2.558c0,1.411-1.146,2.557-2.559,2.557c-1.411,0-2.557-1.146-2.557-2.557
		C110.016,14.936,111.162,13.791,112.573,13.791z M112.478,58.375c-10.396,0-18.854-8.459-18.854-18.852
		c0-9.615,7.236-17.566,16.547-18.708c1.596,13.713-0.264,30.868-0.264,30.868h5.776c0,0-0.083-0.87-0.203-2.359h-1.539v-1.923
		h1.391c-0.062-0.806-0.125-1.702-0.189-2.674h-1.142v-1.922h1.018c-0.394-6.487-0.735-15.277-0.273-21.948
		c0.012-0.016,0.023-0.027,0.033-0.044c8.355,1.022,15.035,7.525,16.326,15.793h-11.212v3.847v0.629v3.206h1.129
		c0,0-0.335-1.93,0.9-3.206h9.342C130.468,50.752,122.349,58.375,112.478,58.375z M133.666,36.607
		c-1.229-8.975-8.047-16.192-16.818-18.021c2.692-2.272,5.826-2.9,8.104-2.997c7.784,4.084,13.318,11.867,14.263,21.018H133.666z"/>
	<g>
		<rect x="39.69" y="44.993" fill="#E6E7E8" width="35.284" height="4.102"/>
		<rect x="150.174" y="44.993" fill="#E6E7E8" width="35.281" height="4.102"/>
	</g>
	<g>
		<rect x="14.3" y="36.716" fill="#E6E7E8" width="60.674" height="4.1"/>
		<rect x="150.174" y="36.716" fill="#E6E7E8" width="60.673" height="4.1"/>
	</g>
	<g>
		<rect x="39.69" y="28.44" fill="#E6E7E8" width="35.284" height="4.101"/>
		<rect x="150.174" y="28.44" fill="#E6E7E8" width="35.281" height="4.101"/>
	</g>
</g>
</svg>
