<?xml version="1.0" encoding="utf-8"?>
<!-- Generator: Adobe Illustrator 16.0.0, SVG Export Plug-In . SVG Version: 6.00 Build 0)  -->
<!DOCTYPE svg PUBLIC "-//W3C//DTD SVG 1.1//EN" "http://www.w3.org/Graphics/SVG/1.1/DTD/svg11.dtd">
<svg version="1.1" id="Layer_1" xmlns="http://www.w3.org/2000/svg" xmlns:xlink="http://www.w3.org/1999/xlink" x="0px" y="0px"
	 width="335px" height="90px" viewBox="0 0 335 90" enable-background="new 0 0 335 90" xml:space="preserve">
<rect x="123.507" y="3.824" opacity="0.1" fill="#FFFFFF" width="87.986" height="82.352"/>
<g>
	<g>
		<path fill-rule="evenodd" clip-rule="evenodd" fill="#DF3E36" d="M148.033,77.1c-1.037,0.717-2.164,1.201-3.437,1.357
			c-0.468-0.828-0.595-1.719-0.673-2.592c-0.142-1.582-0.297-3.172-0.258-4.758c0.065-2.66,0.432-5.299,0.982-7.906
			c0.78-3.7,1.791-7.336,3.313-10.805c1.171-2.666,2.544-5.23,4.34-7.539c1.578-2.031,3.399-3.839,5.474-5.353
			c2.267-1.653,4.772-2.882,7.524-3.495c1.139-0.254,2.325-0.342,3.496-0.396c2.786-0.127,5.523,0.169,8.196,1.016
			c2.525,0.799,4.84,1.989,6.941,3.594c1.395,1.065,2.749,2.174,3.961,3.456c1.97,2.082,3.541,4.408,4.475,7.123
			c0.756,2.191,1.172,4.451,1.308,6.783c0.157,2.682-0.208,5.285-0.974,7.818c-0.693,2.295-1.758,4.439-3.307,6.32
			c-1.26,1.531-2.669,2.9-4.339,3.953c-1.711,1.078-3.55,1.934-5.504,2.504c-2.267,0.656-4.568,1.104-6.937,1.133
			c-2.289,0.027-4.5-0.422-6.685-1.098c-1.956-0.604-3.815-1.426-5.687-2.23c-0.453-0.193-0.699-0.484-0.729-0.971
			c-0.069-1.131-0.158-2.262-0.203-3.393c-0.01-0.264,0.122-0.533,0.204-0.865c0.672,0.275,1.238,0.508,1.806,0.738
			c2.43,0.982,4.893,1.867,7.464,2.406c1.782,0.373,3.589,0.666,5.414,0.51c2.53-0.219,4.95-0.863,7.136-2.227
			c3.875-2.42,6.432-5.807,7.476-10.273c0.531-2.267,0.39-4.55,0.002-6.831c-0.299-1.757-0.708-3.485-1.497-5.083
			c-1.301-2.634-3.168-4.809-5.536-6.567c-2.748-2.041-5.814-3.28-9.201-3.67c-5.553-0.638-10.501,0.828-14.808,4.41
			c-1.994,1.659-3.5,3.713-4.784,5.941c-2.05,3.559-3.327,7.396-4.004,11.436c-0.313,1.868-0.595,3.747-0.807,5.63
			c-0.142,1.25-0.17,2.514-0.183,3.773c-0.019,1.822,0.023,3.645,0.039,5.467C148.034,76.621,148.033,76.826,148.033,77.1z"/>
		<path fill-rule="evenodd" clip-rule="evenodd" fill="#DF3E36" d="M160.33,61.144c0.636,0.379,1.134,0.661,1.617,0.966
			c2.892,1.82,6.028,2.973,9.426,3.328c1.626,0.17,3.265,0.119,4.819-0.541c1.716-0.725,2.876-1.949,3.408-3.749
			c0.614-2.073,0.763-4.178,0.329-6.302c-0.389-1.9-1.315-3.51-2.844-4.715c-1.27-1.001-2.752-1.556-4.351-1.808
			c-2.279-0.36-4.428,0.104-6.519,0.987c-3.711,1.57-6.117,4.396-7.466,8.084c-0.647,1.769-0.956,3.672-1.303,5.535
			c-0.574,3.088-0.788,6.217-0.891,9.354c-0.016,0.492-0.073,0.984-0.119,1.578c-1.231,0.49-2.504,0.996-3.881,1.543
			c-0.05-0.826-0.116-1.561-0.135-2.295c-0.04-1.631-0.103-3.262-0.072-4.891c0.061-3.215,0.593-6.37,1.542-9.433
			c1.007-3.246,2.502-6.277,4.626-8.956c1.414-1.786,2.984-3.408,4.995-4.56c2.272-1.303,4.696-1.851,7.304-1.71
			c1.491,0.081,2.961,0.309,4.351,0.841c1.327,0.509,2.582,1.169,3.712,2.07c2.107,1.687,3.521,3.882,4.516,6.323
			c0.771,1.89,1.114,3.91,1.017,5.988c-0.095,2.017-0.613,3.91-1.622,5.643c-1.072,1.834-2.542,3.301-4.459,4.262
			c-1.229,0.613-2.559,0.941-3.92,1.049c-3.641,0.287-7.094-0.451-10.38-2.025c-1.286-0.615-2.539-1.279-3.627-2.221
			c-0.324-0.281-0.534-0.568-0.481-1.004C160.051,63.429,160.18,62.369,160.33,61.144z"/>
		<path fill-rule="evenodd" clip-rule="evenodd" fill="#DF3E36" d="M143.73,55.797c-0.046-0.387-0.114-0.774-0.134-1.163
			c-0.132-2.597-0.247-5.194-0.381-7.791c-0.113-2.184-0.251-4.366-0.368-6.55c-0.091-1.688-0.166-3.378-0.251-5.066
			c-0.123-2.432-0.249-4.862-0.373-7.294c-0.083-1.608-0.156-3.216-0.25-4.823c-0.14-2.387-0.304-4.771-0.44-7.159
			c-0.078-1.359-0.119-2.723-0.179-4.084c-0.013-0.287-0.039-0.574-0.065-0.98c0.203-0.065,0.447-0.226,0.668-0.198
			c0.952,0.114,1.819,0.486,2.651,0.962c0.563,0.323,0.602,0.86,0.633,1.389c0.116,1.875,0.195,3.75,0.308,5.624
			c0.138,2.264,0.303,4.526,0.441,6.79c0.112,1.854,0.192,3.708,0.304,5.562c0.138,2.263,0.302,4.522,0.44,6.785
			c0.112,1.812,0.199,3.624,0.305,5.436c0.072,1.255,0.153,2.51,0.237,3.763c0.031,0.461-0.02,0.883-0.245,1.312
			c-1.084,2.064-1.948,4.227-2.776,6.403c-0.135,0.357-0.233,0.728-0.348,1.093C143.849,55.802,143.79,55.8,143.73,55.797z"/>
		<path fill-rule="evenodd" clip-rule="evenodd" fill="#DF3E36" d="M151.475,40.286c-0.645-8.813-1.29-17.626-1.938-26.47
			c0.824-0.221,1.51,0.024,2.156,0.313c0.542,0.241,1.051,0.573,1.536,0.917c0.173,0.124,0.317,0.396,0.335,0.61
			c0.124,1.459,0.213,2.92,0.31,4.381c0.115,1.75,0.225,3.5,0.338,5.251c0.094,1.461,0.184,2.922,0.286,4.382
			c0.143,2.058,0.297,4.113,0.437,6.171c0.028,0.389,0.005,0.782,0.005,1.293c-1.058,1.019-2.195,2.117-3.333,3.215
			C151.563,40.328,151.519,40.308,151.475,40.286z"/>
	</g>
</g>
<path fill="#F5F5F5" d="M335,41.974V38.1H215.318V0h-95.637v38.1H-0.094v3.874h119.775v6.053H-0.094V51.9h119.775V90h95.637V51.9
	H335v-3.874H215.318v-6.053H335z M211.493,86.176h-87.986V3.825h87.986V86.176z"/>
</svg>
